<?xml version="1.0" encoding="UTF-8" standalone="no"?>
<svg
   xmlns:dc="http://purl.org/dc/elements/1.1/"
   xmlns:cc="http://creativecommons.org/ns#"
   xmlns:rdf="http://www.w3.org/1999/02/22-rdf-syntax-ns#"
   xmlns:svg="http://www.w3.org/2000/svg"
   xmlns="http://www.w3.org/2000/svg"
   xmlns:sodipodi="http://sodipodi.sourceforge.net/DTD/sodipodi-0.dtd"
   xmlns:inkscape="http://www.inkscape.org/namespaces/inkscape"
   width="189.80594mm"
   height="80.650299mm"
   viewBox="0 0 189.80594 80.650299"
   version="1.1"
   id="svg8"
   inkscape:version="1.0.1 (c497b03c, 2020-09-10)"
   sodipodi:docname="jedi_knights_text2.svg"
   inkscape:export-filename="/Users/devon/jedi_knights_text2.png"
   inkscape:export-xdpi="300.06299"
   inkscape:export-ydpi="300.06299">
  <defs
     id="defs2">
    <filter
       inkscape:collect="always"
       style="color-interpolation-filters:sRGB"
       id="filter1209"
       x="-0.043070305"
       width="1.0861406"
       y="-0.12693337"
       height="1.2538667">
      <feGaussianBlur
         inkscape:collect="always"
         stdDeviation="3.1361039"
         id="feGaussianBlur1211" />
    </filter>
  </defs>
  <sodipodi:namedview
     id="base"
     pagecolor="#ffffff"
     bordercolor="#666666"
     borderopacity="1.0"
     inkscape:pageopacity="0.0"
     inkscape:pageshadow="2"
     inkscape:zoom="0.98994949"
     inkscape:cx="384.46008"
     inkscape:cy="260.27371"
     inkscape:document-units="mm"
     inkscape:current-layer="layer2"
     inkscape:document-rotation="0"
     showgrid="false"
     inkscape:snap-global="false"
     fit-margin-top="0"
     fit-margin-left="0"
     fit-margin-right="0"
     fit-margin-bottom="0"
     inkscape:window-width="1440"
     inkscape:window-height="847"
     inkscape:window-x="0"
     inkscape:window-y="25"
     inkscape:window-maximized="0" />
  <metadata
     id="metadata5">
    <rdf:RDF>
      <cc:Work
         rdf:about="">
        <dc:format>image/svg+xml</dc:format>
        <dc:type
           rdf:resource="http://purl.org/dc/dcmitype/StillImage" />
        <dc:title></dc:title>
      </cc:Work>
    </rdf:RDF>
  </metadata>
  <g
     inkscape:groupmode="layer"
     id="layer3"
     inkscape:label="green"
     style="display:none"
     sodipodi:insensitive="true"
     transform="translate(-7.9609943,-9.0457647)">
    <path
       style="fill:#30a710;fill-opacity:1;stroke:none;stroke-width:0.264583px;stroke-linecap:butt;stroke-linejoin:miter;stroke-opacity:1"
       d="m 25.324405,19.465774 c 14.363094,-1.133929 11.717261,16.630951 13.796129,26.269344 2.078871,9.638392 2.267858,14.741072 6.614584,13.229166 4.346725,-1.511903 4.346725,-14.174107 4.913691,-25.324403 C 51.215774,22.489583 55.940475,15.875 67.27976,16.630952 c 11.339287,0.755953 22.867559,10.205357 23.8125,16.81994 0.944941,6.614583 -4.535714,11.906251 -6.80357,24.94643 C 82.70597,67.497966 67.657737,77.674106 62.177082,75.595238 57.226232,73.71733 39.6875,75.784225 33.261905,69.736607 26.836309,63.688988 15.686012,55.184523 15.497024,42.144344 15.308036,29.104166 17.953869,21.733631 25.324405,19.465774 Z"
       id="path930"
       sodipodi:nodetypes="csssssssssc" />
    <path
       style="fill:#30a710;fill-opacity:1;stroke:none;stroke-width:0.264583px;stroke-linecap:butt;stroke-linejoin:miter;stroke-opacity:1"
       d="m 110.93601,18.709821 c 26.08036,-2.456845 10.3044,26.300793 17.95387,27.592262 14.55208,2.456845 -8.50447,-26.269345 10.96131,-25.702381 14.59856,0.4252 20.89948,11.187194 19.27678,15.874999 -3.40178,9.827383 -15.30803,30.049108 -28.72619,35.151787 -13.75802,5.231922 -31.938983,3.023809 -35.907733,1.700893 -3.96875,-1.322917 -9.827381,-5.291667 -7.559524,-10.205358 2.267858,-4.91369 13.985117,-10.205357 12.851191,-15.119048 -1.13393,-4.913691 -4.724704,-8.126486 -4.724704,-11.339285 0,-3.212798 4.535715,-15.119047 15.875,-17.953869 z"
       id="path932"
       sodipodi:nodetypes="cssssssssc" />
    <path
       style="fill:#30a710;fill-opacity:1;stroke:none;stroke-width:0.264583px;stroke-linecap:butt;stroke-linejoin:miter;stroke-opacity:1"
       d="m 178.97172,19.654762 c 16.44197,1.322916 12.28423,29.67113 3.96875,34.206845 -8.31547,4.535715 -2.64583,16.630951 -11.71726,19.276785 -9.07143,2.645833 -17.3869,-2.078869 -13.22916,-7.9375 4.15773,-5.858632 10.96131,-6.80357 10.77232,-13.229167 -0.18899,-6.425594 -4.43587,-5.673505 -4.15774,-15.68601 0.18899,-6.803573 7.18155,-16.252977 14.36309,-16.630953 z"
       id="path934"
       sodipodi:nodetypes="csssssc" />
  </g>
  <g
     inkscape:groupmode="layer"
     id="g1003"
     inkscape:label="green blur"
     style="display:inline;opacity:1;filter:url(#filter1209)"
     transform="translate(-7.9609943,-9.0457647)">
    <path
       style="fill:#30a710;fill-opacity:1;stroke:none;stroke-width:0.264583px;stroke-linecap:butt;stroke-linejoin:miter;stroke-opacity:1"
       d="m 25.324405,19.465774 c 14.363094,-1.133929 11.717261,16.630951 13.796129,26.269344 2.078871,9.638392 2.267858,14.741072 6.614584,13.229166 4.346725,-1.511903 4.346725,-14.174107 4.913691,-25.324403 C 51.215774,22.489583 55.940475,15.875 67.27976,16.630952 c 11.339287,0.755953 22.867559,10.205357 23.8125,16.81994 0.944941,6.614583 -4.535714,11.906251 -6.80357,24.94643 C 82.70597,67.497966 67.657737,77.674106 62.177082,75.595238 57.226232,73.71733 39.6875,75.784225 33.261905,69.736607 26.836309,63.688988 15.686012,55.184523 15.497024,42.144344 15.308036,29.104166 17.953869,21.733631 25.324405,19.465774 Z"
       id="path997"
       sodipodi:nodetypes="csssssssssc" />
    <path
       style="fill:#30a710;fill-opacity:1;stroke:none;stroke-width:0.264583px;stroke-linecap:butt;stroke-linejoin:miter;stroke-opacity:1"
       d="m 110.93601,18.709821 c 26.08036,-2.456845 10.3044,26.300793 17.95387,27.592262 14.55208,2.456845 -8.50447,-26.269345 10.96131,-25.702381 14.59856,0.4252 20.89948,11.187194 19.27678,15.874999 -3.40178,9.827383 -15.30803,30.049108 -28.72619,35.151787 -13.75802,5.231922 -31.938983,3.023809 -35.907733,1.700893 -3.96875,-1.322917 -9.827381,-5.291667 -7.559524,-10.205358 2.267858,-4.91369 13.985117,-10.205357 12.851191,-15.119048 -1.13393,-4.913691 -4.724704,-8.126486 -4.724704,-11.339285 0,-3.212798 4.535715,-15.119047 15.875,-17.953869 z"
       id="path999"
       sodipodi:nodetypes="cssssssssc" />
    <path
       style="fill:#30a710;fill-opacity:1;stroke:none;stroke-width:0.264583px;stroke-linecap:butt;stroke-linejoin:miter;stroke-opacity:1"
       d="m 178.97172,19.654762 c 16.44197,1.322916 12.28423,29.67113 3.96875,34.206845 -8.31547,4.535715 -2.64583,16.630951 -11.71726,19.276785 -9.07143,2.645833 -17.3869,-2.078869 -13.22916,-7.9375 4.15773,-5.858632 10.96131,-6.80357 10.77232,-13.229167 -0.18899,-6.425594 -4.43587,-5.673505 -4.15774,-15.68601 0.18899,-6.803573 7.18155,-16.252977 14.36309,-16.630953 z"
       id="path1001"
       sodipodi:nodetypes="csssssc" />
  </g>
  <g
     inkscape:groupmode="layer"
     id="g982"
     inkscape:label="letter green"
     style="display:inline"
     transform="translate(-7.9609943,-9.0457647)"
     sodipodi:insensitive="true">
    <path
       style="fill:#30a710;fill-opacity:1;stroke:none;stroke-width:0.264583px;stroke-linecap:butt;stroke-linejoin:miter;stroke-opacity:1"
       d="m 12.697409,58.459389 c 0,0 14.93006,-3.118302 16.819941,-8.787945 2.856835,-6.644871 -0.369783,-25.032752 2.031622,-27.828497 0.755952,-0.566965 4.960937,-0.708408 4.960937,-0.708408 l -6.5e-5,-0.662 -20.127167,2.44e-4 v 0.661756 c 0,0 4.804762,-0.393212 5.669643,0.802901 1.544949,1.627334 1.630761,27.194742 -0.850446,30.852307 -2.07887,3.638022 -8.504465,5.669642 -8.504465,5.669642 z"
       id="path956"
       sodipodi:nodetypes="cccccccccc" />
    <path
       style="fill:#30a710;fill-opacity:1;stroke:none;stroke-width:0.264583px;stroke-linecap:butt;stroke-linejoin:miter;stroke-opacity:1"
       d="m 51.345496,48.679255 c 0,0 27.524148,0.796777 30.83773,0.57722 1.270365,-0.08418 1.991788,-5.387703 1.991788,-5.387703 l -0.796035,-0.244947 c 0,0 -0.627026,2.881031 -3.536453,3.573346 -4.698493,1.118034 -12.690404,0.09863 -13.711121,-1.264127 -1.334506,-1.781702 -0.418294,-11.140934 -0.418294,-11.140934 0,0 11.406303,0.221156 12.723034,0.779049 1.170718,0.496028 1.097371,2.664891 1.097371,2.664891 l 0.916671,0.0022 c 0,0 0.03263,-2.25793 0.261564,-3.339648 0.211338,-0.998599 1.059238,-2.901303 1.059238,-2.901303 l -0.921734,-0.04593 c -2.127512,2.511056 -15.048764,1.04044 -15.048764,1.04044 l 0.0026,-10.298417 c 0,0 9.204869,-0.67524 13.237651,0.818623 1.863786,0.690402 1.396084,2.388567 1.396084,2.388567 l 1.332696,0.100399 c 0,0 0.06863,-1.736513 0.197444,-2.652016 0.130467,-0.927311 0.5804,-2.876427 0.5804,-2.876427 l -31.768834,2.44e-4 v 0.661757 c 0,0 5.46622,-0.251471 6.331101,0.944642 1.21422,3.328227 0.780315,23.745709 -0.188987,25.466146 -0.992189,0.944942 -5.57515,1.133928 -5.57515,1.133928 z"
       id="path958"
       sodipodi:nodetypes="csccsscsccsccccsccscccccc" />
    <path
       id="path960"
       style="fill:#30a710;fill-opacity:1;stroke:none;stroke-width:0.264583px;stroke-linecap:butt;stroke-linejoin:miter;stroke-opacity:1"
       d="m 131.76065,20.47234 -31.769125,5.29e-4 v 0.661458 c 0,0 5.466005,-0.251467 6.330885,0.944646 1.21422,3.328227 0.78069,23.74571 -0.18862,25.466145 -0.9922,0.944943 -5.57537,1.134298 -5.57537,1.134298 l -5.3e-4,0.529166 30.83791,0.04806 c 0,0 22.73376,0.09432 22.73453,-14.445112 7.9e-4,-13.202838 -22.3697,-14.339177 -22.3697,-14.339177 z m -14.08028,2.310453 c 2.89456,0.01856 7.3264,0.302696 10.54199,0.469739 5.14494,0.26727 16.43751,4.610449 16.77159,13.363524 0.33409,8.753078 -9.22109,11.425404 -19.51096,11.759491 -10.28988,0.334087 -10.18884,-1.695159 -10.75748,-2.672707 -0.60977,-1.048253 -0.19734,-21.103398 0,-22.58415 0.035,-0.262824 1.21813,-0.347034 2.95486,-0.335897 z" />
    <path
       style="fill:#30a710;fill-opacity:1;stroke:none;stroke-width:0.264583px;stroke-linecap:butt;stroke-linejoin:miter;stroke-opacity:1"
       d="m 168.82097,49.208422 21.48347,0.448957 0.12091,-0.443216 c 0,0 -6.79113,0.500325 -7.15248,-1.543867 -0.39937,-3.303815 0.003,-14.291738 0.006,-25.751731 0.91788,-0.934139 5.61797,-0.733936 5.61797,-0.733936 l -0.0321,-0.712091 -20.61051,2.44e-4 v 0.661757 c 0,0 5.46625,-0.251471 6.33113,0.944642 1.21423,3.328227 0.78033,24.213431 -0.18898,25.933868 -0.9922,0.944942 -5.57518,0.666206 -5.57518,0.666206 z"
       id="path962"
       sodipodi:nodetypes="ccccccccccccc" />
    <rect
       style="fill:#30a710;fill-opacity:1;stroke:none;stroke-width:3;stroke-linecap:round;stroke-linejoin:round;paint-order:stroke markers fill"
       id="rect964"
       width="138.90625"
       height="1.3229166"
       x="36.226425"
       y="54.018166" />
    <g
       aria-label="KNIGHTS"
       id="text968"
       style="font-size:23.8788px;line-height:1.25;font-family:sans-serif;letter-spacing:6.87917px;fill:#30a710;fill-opacity:1;stroke-width:0.149242">
      <path
         d="m 33.778639,71.356748 q 0,0.214909 0.143272,0.334303 0.143273,0.09551 0.334304,0.09551 v 0.429819 h -3.725093 v -0.429819 q 0.525334,0 0.525334,-0.429818 v -10.84097 q 0,-0.429818 -0.525334,-0.429818 v -0.429819 h 3.725093 v 0.429819 q -0.191031,0 -0.334304,0.119394 -0.143272,0.09551 -0.143272,0.310424 v 4.536972 l 4.942911,-3.892244 q 0.334303,-0.286546 0.525334,-0.453697 0.19103,-0.191031 0.19103,-0.310425 0,-0.167151 -0.119394,-0.238788 -0.09551,-0.07164 -0.238788,-0.07164 v -0.429819 h 5.014548 v 0.429819 q -0.429818,0 -0.859637,0.358182 l -5.492124,4.36982 5.014548,5.802548 q 0.310425,0.358182 0.716364,0.716364 0.429819,0.334304 0.835758,0.453697 v 0.429819 h -4.417578 v -0.429819 q 0.310425,0 0.310425,-0.167151 0,-0.119394 -0.334303,-0.525334 l -4.083275,-4.704123 -2.005819,1.552122 z"
         style="font-style:normal;font-variant:normal;font-weight:normal;font-stretch:normal;font-family:Copperplate;-inkscape-font-specification:Copperplate;fill:#30a710;fill-opacity:1;stroke-width:0.149242"
         id="path1345" />
      <path
         d="m 53.790402,71.786566 q 0.453698,0 0.453698,-0.429818 V 60.515773 q 0,-0.429818 -0.453698,-0.429818 v -0.429819 h 4.083275 v 0.429819 q -0.19103,0 -0.19103,0.238788 0,0.19103 0.477576,0.668606 l 6.853215,7.115882 v -7.593458 q 0,-0.429818 -0.620849,-0.429818 v -0.429819 h 3.605699 v 0.429819 q -0.453697,0 -0.453697,0.429818 v 10.840975 q 0,0.429818 0.453697,0.429818 v 0.429819 h -3.868365 v -0.429819 q 0.310424,0 0.310424,-0.214909 0,-0.167151 -0.382061,-0.549212 l -7.283034,-7.593458 v 7.927761 q 0,0.429818 0.549213,0.429818 v 0.429819 h -3.534063 z"
         style="font-style:normal;font-variant:normal;font-weight:normal;font-stretch:normal;font-family:Copperplate;-inkscape-font-specification:Copperplate;fill:#30a710;fill-opacity:1;stroke-width:0.149242"
         id="path1347" />
      <path
         d="m 79.040578,71.786566 q 0.620849,0 0.620849,-0.429818 V 60.515773 q 0,-0.429818 -0.620849,-0.429818 v -0.429819 h 3.963881 v 0.429819 q -0.620849,0 -0.620849,0.429818 v 10.840975 q 0,0.429818 0.620849,0.429818 v 0.429819 h -3.963881 z"
         style="font-style:normal;font-variant:normal;font-weight:normal;font-stretch:normal;font-family:Copperplate;-inkscape-font-specification:Copperplate;fill:#30a710;fill-opacity:1;stroke-width:0.149242"
         id="path1349" />
      <path
         d="m 105.40447,63.524502 -0.47757,-0.143273 q 0.0477,-0.143273 0.0477,-0.286545 0,-0.358182 -0.45369,-0.644728 -0.42982,-0.286546 -1.12231,-0.477576 -0.6686,-0.214909 -1.48048,-0.310424 -0.788,-0.09552 -1.50437,-0.09552 -0.883512,0 -1.767028,0.262667 -0.859637,0.238788 -1.552122,0.764122 -0.668606,0.525333 -1.098425,1.361091 -0.405939,0.835758 -0.405939,2.029698 0,1.170061 0.405939,2.029698 0.429819,0.835758 1.098425,1.361092 0.692485,0.525333 1.552122,0.788 0.883516,0.238788 1.767028,0.238788 1.36109,0 2.43564,-0.214909 1.09843,-0.238788 1.86255,-0.501455 v -2.053577 h -3.05649 q -0.3343,0 -0.50145,0.143273 -0.16716,0.143273 -0.21491,0.620849 h -0.42982 v -3.056486 h 0.42982 q 0.0478,0.405939 0.21491,0.525333 0.16715,0.09551 0.50145,0.09551 h 5.9697 v 0.429819 q -0.47758,0.07164 -0.59697,0.167151 -0.11939,0.09552 -0.11939,0.40594 v 2.698304 q 0,0.238788 0.14327,0.310425 0.14327,0.07164 0.3343,0.167151 v 0.382061 q -0.788,0.549213 -1.67151,0.907395 -0.85964,0.358181 -1.76703,0.573091 -0.88352,0.19103 -1.79091,0.238788 -0.88352,0.04776 -1.74316,0.04776 -1.671513,0 -3.056483,-0.405939 -1.361092,-0.429819 -2.340123,-1.241698 -0.97903,-0.835758 -1.528243,-2.005819 -0.525333,-1.19394 -0.525333,-2.698304 0,-1.504365 0.525333,-2.674426 0.549213,-1.19394 1.528243,-2.029698 0.979031,-0.835758 2.340123,-1.265576 1.38497,-0.453697 3.056483,-0.453697 1.05067,0 2.00582,0.143272 0.95515,0.143273 1.6954,0.334304 0.74024,0.167151 1.21782,0.334303 0.50145,0.143273 0.62084,0.143273 0.21491,0 0.33431,-0.09552 0.11939,-0.09551 0.23879,-0.167151 l 0.28654,0.167151 z"
         style="font-style:normal;font-variant:normal;font-weight:normal;font-stretch:normal;font-family:Copperplate;-inkscape-font-specification:Copperplate;fill:#30a710;fill-opacity:1;stroke-width:0.149242"
         id="path1351" />
      <path
         d="m 129.18162,60.515773 q 0,-0.429818 -0.52533,-0.429818 v -0.429819 h 3.67734 v 0.429819 q -0.16716,0 -0.31043,0.119394 -0.11939,0.09551 -0.11939,0.310424 v 10.840975 q 0,0.214909 0.11939,0.334303 0.14327,0.09551 0.31043,0.09551 v 0.429819 h -3.67734 v -0.429819 q 0.52533,0 0.52533,-0.429818 v -4.489214 h -7.68897 v 4.489214 q 0,0.214909 0.11939,0.334303 0.14328,0.09551 0.31043,0.09551 v 0.429819 h -3.6057 v -0.429819 q 0.4537,0 0.4537,-0.429818 V 60.515773 q 0,-0.429818 -0.4537,-0.429818 v -0.429819 h 3.6057 v 0.429819 q -0.16715,0 -0.31043,0.119394 -0.11939,0.09551 -0.11939,0.310424 v 4.059396 h 7.68897 z"
         style="font-style:normal;font-variant:normal;font-weight:normal;font-stretch:normal;font-family:Copperplate;-inkscape-font-specification:Copperplate;fill:#30a710;fill-opacity:1;stroke-width:0.149242"
         id="path1353" />
      <path
         d="m 150.13362,71.356748 q 0,0.429818 0.52533,0.429818 v 0.429819 h -3.67733 v -0.429819 q 0.16715,0 0.28654,-0.09551 0.14327,-0.119394 0.14327,-0.334303 v -9.503762 h -3.94 q -0.21491,0 -0.42982,0.119394 -0.19103,0.119394 -0.19103,0.453697 h -0.42981 V 59.08305 h 0.42981 q 0,0.334303 0.19103,0.453697 0.21491,0.119394 0.42982,0.119394 h 10.60219 q 0.21491,0 0.40594,-0.119394 0.21491,-0.119394 0.21491,-0.453697 h 0.42982 v 3.343032 h -0.42982 q 0,-0.334303 -0.21491,-0.453697 -0.19103,-0.119394 -0.40594,-0.119394 h -3.94 z"
         style="font-style:normal;font-variant:normal;font-weight:normal;font-stretch:normal;font-family:Copperplate;-inkscape-font-specification:Copperplate;fill:#30a710;fill-opacity:1;stroke-width:0.149242"
         id="path1355" />
      <path
         d="m 165.95129,68.276383 0.23878,0.119394 q 0,0.214909 0.0955,0.382061 0.16715,0.286545 0.64473,0.573091 0.50145,0.262667 1.1223,0.477576 0.64473,0.214909 1.33721,0.358182 0.69249,0.119394 1.2417,0.119394 0.40594,0 1.05067,-0.04776 0.64473,-0.07164 1.26557,-0.262666 0.62085,-0.191031 1.07455,-0.525334 0.4537,-0.334303 0.4537,-0.883516 0,-0.549212 -0.42982,-0.811879 -0.40594,-0.262667 -1.09843,-0.382061 -0.6686,-0.119394 -1.55212,-0.143272 -0.85963,-0.04776 -1.76703,-0.119394 -0.90739,-0.07164 -1.79091,-0.238788 -0.85964,-0.167152 -1.55212,-0.549213 -0.66861,-0.405939 -1.09843,-1.074546 -0.40593,-0.692485 -0.40593,-1.79091 0,-0.740242 0.3343,-1.456606 0.35818,-0.716364 1.07454,-1.265577 0.71637,-0.549212 1.81479,-0.883515 1.09843,-0.358182 2.57891,-0.358182 1.26558,0 2.19685,0.19103 0.93128,0.19103 1.59988,0.40594 0.69249,0.214909 1.14618,0.405939 0.47758,0.191031 0.78801,0.191031 0.3343,0 0.47757,-0.143273 l 0.28655,0.19103 -1.64764,2.98485 -0.23879,-0.09551 q -0.0478,-0.334303 -0.19103,-0.549212 -0.19103,-0.286546 -0.64473,-0.549213 -0.42981,-0.286545 -1.02678,-0.501455 -0.59697,-0.214909 -1.28946,-0.334303 -0.69249,-0.143273 -1.38497,-0.143273 -0.52533,0 -1.09842,0.09552 -0.54922,0.07164 -1.00291,0.238788 -0.4537,0.167151 -0.76413,0.453697 -0.28654,0.262667 -0.28654,0.668606 0,0.573091 0.40594,0.859637 0.42982,0.286545 1.09842,0.429818 0.69249,0.143273 1.55212,0.191031 0.88352,0.04776 1.79091,0.119394 0.9074,0.07164 1.76704,0.262666 0.88351,0.167152 1.55212,0.573092 0.69248,0.38206 1.09842,1.050667 0.42982,0.668606 0.42982,1.743152 0,1.241698 -0.66861,2.029698 -0.64472,0.788001 -1.62375,1.241698 -0.97903,0.453697 -2.12522,0.620848 -1.1223,0.143273 -2.10133,0.143273 -1.36109,0 -2.29237,-0.143273 -0.90739,-0.167151 -1.52824,-0.38206 -0.59697,-0.238788 -0.95515,-0.40594 -0.35818,-0.19103 -0.62085,-0.19103 -0.16715,0 -0.31042,0.19103 l -0.33431,-0.19103 z"
         style="font-style:normal;font-variant:normal;font-weight:normal;font-stretch:normal;font-family:Copperplate;-inkscape-font-specification:Copperplate;fill:#30a710;fill-opacity:1;stroke-width:0.149242"
         id="path1357" />
    </g>
    <g
       aria-label="TM"
       id="text972"
       style="font-size:3.68093px;line-height:1.25;font-family:sans-serif;fill:#30a710;fill-opacity:1;stroke-width:0.0230059">
      <path
         d="m 180.60291,61.365997 h -0.83576 v 2.158593 h -0.69018 v -2.158593 h -0.83575 v -0.51763 h 2.36169 z"
         style="font-style:normal;font-variant:normal;font-weight:bold;font-stretch:normal;font-family:sans-serif;-inkscape-font-specification:'sans-serif Bold';fill:#30a710;fill-opacity:1;stroke-width:0.0230059"
         id="path1360" />
      <path
         d="m 183.82372,63.52459 h -0.68658 v -1.791938 l -0.49606,1.162872 h -0.47629 l -0.49607,-1.162872 v 1.791938 h -0.65063 v -2.676223 h 0.80161 l 0.6021,1.342604 0.60031,-1.342604 h 0.80161 z"
         style="font-style:normal;font-variant:normal;font-weight:bold;font-stretch:normal;font-family:sans-serif;-inkscape-font-specification:'sans-serif Bold';fill:#30a710;fill-opacity:1;stroke-width:0.0230059"
         id="path1362" />
    </g>
    <g
       aria-label="TRADING CARD GAME"
       id="text976"
       style="font-size:12.7777px;line-height:1.25;font-family:sans-serif;letter-spacing:-0.529167px;fill:#30a710;fill-opacity:1;stroke:none;stroke-width:2;stroke-linecap:round;stroke-linejoin:round;stroke-miterlimit:4;stroke-dasharray:none;stroke-opacity:1;paint-order:stroke fill markers">
      <path
         d="m 36.949815,81.54402 h -2.901187 v 7.493173 H 31.65281 V 81.54402 h -2.901187 v -1.796864 h 8.198192 z"
         style="font-style:normal;font-variant:normal;font-weight:bold;font-stretch:normal;font-family:sans-serif;-inkscape-font-specification:'sans-serif Bold';fill:#30a710;fill-opacity:1;stroke:none;stroke-width:2;stroke-linecap:round;stroke-linejoin:round;stroke-miterlimit:4;stroke-dasharray:none;stroke-opacity:1;paint-order:stroke fill markers"
         id="path1365" />
      <path
         d="m 43.071541,82.592191 q 0,-0.34939 -0.1435,-0.598955 -0.143499,-0.249564 -0.492889,-0.393064 -0.243326,-0.09982 -0.56776,-0.118543 -0.324433,-0.02496 -0.754932,-0.02496 h -0.867237 v 2.501884 h 0.736216 q 0.573998,0 0.960823,-0.05615 0.386825,-0.05615 0.648867,-0.255804 0.249565,-0.193413 0.361869,-0.42426 0.118543,-0.237086 0.118543,-0.63015 z m 3.737228,6.445002 h -2.926143 l -2.53308,-3.406555 h -1.104323 v 3.406555 h -2.38334 v -9.290037 h 4.017988 q 0.823562,0 1.416278,0.09359 0.592716,0.09359 1.110562,0.405542 0.524085,0.311956 0.829802,0.811085 0.311955,0.492889 0.311955,1.241583 0,1.029453 -0.480411,1.678321 -0.474173,0.648867 -1.360127,1.079366 z"
         style="font-style:normal;font-variant:normal;font-weight:bold;font-stretch:normal;font-family:sans-serif;-inkscape-font-specification:'sans-serif Bold';fill:#30a710;fill-opacity:1;stroke:none;stroke-width:2;stroke-linecap:round;stroke-linejoin:round;stroke-miterlimit:4;stroke-dasharray:none;stroke-opacity:1;paint-order:stroke fill markers"
         id="path1367" />
      <path
         d="m 55.925268,89.037193 h -2.476927 l -0.642629,-1.877972 h -3.443989 l -0.642629,1.877972 h -2.414536 l 3.431512,-9.290037 h 2.757687 z m -3.699793,-3.58125 -1.141757,-3.331685 -1.141758,3.331685 z"
         style="font-style:normal;font-variant:normal;font-weight:bold;font-stretch:normal;font-family:sans-serif;-inkscape-font-specification:'sans-serif Bold';fill:#30a710;fill-opacity:1;stroke:none;stroke-width:2;stroke-linecap:round;stroke-linejoin:round;stroke-miterlimit:4;stroke-dasharray:none;stroke-opacity:1;paint-order:stroke fill markers"
         id="path1369" />
      <path
         d="m 65.52218,84.401533 q 0,1.297736 -0.592715,2.327189 -0.592716,1.023214 -1.497387,1.572256 -0.680063,0.411781 -1.491148,0.573998 -0.811084,0.162217 -1.921646,0.162217 H 56.74375 v -9.290037 h 3.369121 q 1.135518,0 1.959081,0.193413 0.823562,0.187173 1.385082,0.536563 0.960823,0.586477 1.509865,1.584735 0.555281,0.992018 0.555281,2.339666 z m -2.476927,-0.01872 q 0,-0.917149 -0.336912,-1.566017 -0.330673,-0.655107 -1.05441,-1.023214 -0.368108,-0.180934 -0.754932,-0.243326 -0.380586,-0.06863 -1.154236,-0.06863 h -0.605194 v 5.814852 h 0.605194 q 0.854758,0 1.254061,-0.07487 0.399303,-0.08111 0.779889,-0.286999 0.655107,-0.374347 0.960823,-0.998258 0.305717,-0.63015 0.305717,-1.553538 z"
         style="font-style:normal;font-variant:normal;font-weight:bold;font-stretch:normal;font-family:sans-serif;-inkscape-font-specification:'sans-serif Bold';fill:#30a710;fill-opacity:1;stroke:none;stroke-width:2;stroke-linecap:round;stroke-linejoin:round;stroke-miterlimit:4;stroke-dasharray:none;stroke-opacity:1;paint-order:stroke fill markers"
         id="path1371" />
      <path
         d="M 71.843555,89.037193 H 66.40305 v -1.647125 h 1.522343 V 81.394282 H 66.40305 v -1.647126 h 5.440505 v 1.647126 h -1.522343 v 5.995786 h 1.522343 z"
         style="font-style:normal;font-variant:normal;font-weight:bold;font-stretch:normal;font-family:sans-serif;-inkscape-font-specification:'sans-serif Bold';fill:#30a710;fill-opacity:1;stroke:none;stroke-width:2;stroke-linecap:round;stroke-linejoin:round;stroke-miterlimit:4;stroke-dasharray:none;stroke-opacity:1;paint-order:stroke fill markers"
         id="path1373" />
      <path
         d="m 81.727468,89.037193 h -2.308471 l -3.943118,-6.376372 v 6.376372 h -2.196168 v -9.290037 h 2.863753 l 3.387837,5.321962 v -5.321962 h 2.196167 z"
         style="font-style:normal;font-variant:normal;font-weight:bold;font-stretch:normal;font-family:sans-serif;-inkscape-font-specification:'sans-serif Bold';fill:#30a710;fill-opacity:1;stroke:none;stroke-width:2;stroke-linecap:round;stroke-linejoin:round;stroke-miterlimit:4;stroke-dasharray:none;stroke-opacity:1;paint-order:stroke fill markers"
         id="path1375" />
      <path
         d="m 91.798551,88.506869 q -0.623911,0.243325 -1.653365,0.486651 -1.029453,0.237086 -2.052667,0.237086 -2.370863,0 -3.712272,-1.285257 -1.341409,-1.291496 -1.341409,-3.562533 0,-2.164972 1.353887,-3.487663 1.353888,-1.328931 3.774663,-1.328931 0.917149,0 1.746951,0.168456 0.829802,0.162217 1.846777,0.655107 v 2.17745 h -0.268282 q -0.174695,-0.131022 -0.511607,-0.368108 -0.336912,-0.243325 -0.648867,-0.411781 -0.361869,-0.199652 -0.84852,-0.343151 -0.480411,-0.1435 -1.023214,-0.1435 -0.636389,0 -1.154236,0.187173 -0.517846,0.187174 -0.929627,0.573999 -0.393064,0.374346 -0.623911,0.954584 -0.224608,0.573998 -0.224608,1.32893 0,1.541061 0.817323,2.358385 0.817324,0.817323 2.414536,0.817323 0.137261,0 0.299478,-0.0062 0.168456,-0.0062 0.305716,-0.01872 v -1.821821 h -1.853016 v -1.75319 h 4.28627 z"
         style="font-style:normal;font-variant:normal;font-weight:bold;font-stretch:normal;font-family:sans-serif;-inkscape-font-specification:'sans-serif Bold';fill:#30a710;fill-opacity:1;stroke:none;stroke-width:2;stroke-linecap:round;stroke-linejoin:round;stroke-miterlimit:4;stroke-dasharray:none;stroke-opacity:1;paint-order:stroke fill markers"
         id="path1377" />
      <path
         d="m 101.44653,89.218128 q -1.03569,0 -1.915404,-0.305717 -0.873476,-0.305716 -1.503626,-0.91091 -0.630151,-0.605194 -0.979541,-1.509865 -0.343151,-0.904671 -0.343151,-2.090103 0,-1.104322 0.330673,-2.002754 0.330673,-0.898432 0.960823,-1.541061 0.605194,-0.617672 1.497387,-0.954584 0.898429,-0.336912 1.959079,-0.336912 0.58648,0 1.05441,0.06863 0.47417,0.06239 0.87348,0.168456 0.41802,0.118543 0.75493,0.268282 0.34315,0.1435 0.59895,0.268282 v 2.252319 h -0.27452 q -0.17469,-0.149739 -0.44297,-0.355629 -0.26205,-0.205891 -0.59896,-0.405543 -0.34315,-0.199651 -0.74245,-0.336912 -0.39931,-0.13726 -0.85476,-0.13726 -0.50537,0 -0.96082,0.162217 -0.45546,0.155978 -0.84228,0.524085 -0.368111,0.35563 -0.598958,0.942106 -0.224608,0.586477 -0.224608,1.422518 0,0.873475 0.243325,1.459952 0.249564,0.586476 0.623911,0.923388 0.38059,0.343151 0.84852,0.49289 0.46793,0.1435 0.92339,0.1435 0.43674,0 0.861,-0.131022 0.43049,-0.131021 0.79236,-0.355629 0.30572,-0.180934 0.56776,-0.386825 0.26204,-0.205891 0.4305,-0.355629 h 0.24956 v 2.221123 q -0.34939,0.155978 -0.66758,0.293238 -0.3182,0.137261 -0.66759,0.237087 -0.45545,0.131021 -0.85475,0.199651 -0.39931,0.06863 -1.09809,0.06863 z"
         style="font-style:normal;font-variant:normal;font-weight:bold;font-stretch:normal;font-family:sans-serif;-inkscape-font-specification:'sans-serif Bold';fill:#30a710;fill-opacity:1;stroke:none;stroke-width:2;stroke-linecap:round;stroke-linejoin:round;stroke-miterlimit:4;stroke-dasharray:none;stroke-opacity:1;paint-order:stroke fill markers"
         id="path1379" />
      <path
         d="m 114.5623,89.037193 h -2.47692 l -0.64263,-1.877972 h -3.44399 l -0.64263,1.877972 h -2.41454 l 3.43151,-9.290037 h 2.75769 z m -3.69979,-3.58125 -1.14176,-3.331685 -1.14175,3.331685 z"
         style="font-style:normal;font-variant:normal;font-weight:bold;font-stretch:normal;font-family:sans-serif;-inkscape-font-specification:'sans-serif Bold';fill:#30a710;fill-opacity:1;stroke:none;stroke-width:2;stroke-linecap:round;stroke-linejoin:round;stroke-miterlimit:4;stroke-dasharray:none;stroke-opacity:1;paint-order:stroke fill markers"
         id="path1381" />
      <path
         d="m 120.59044,82.592191 q 0,-0.34939 -0.1435,-0.598955 -0.1435,-0.249564 -0.49289,-0.393064 -0.24332,-0.09982 -0.56776,-0.118543 -0.32443,-0.02496 -0.75493,-0.02496 h -0.86724 v 2.501884 h 0.73622 q 0.574,0 0.96082,-0.05615 0.38683,-0.05615 0.64887,-0.255804 0.24956,-0.193413 0.36187,-0.42426 0.11854,-0.237086 0.11854,-0.63015 z m 3.73723,6.445002 h -2.92615 l -2.53307,-3.406555 h -1.10433 v 3.406555 h -2.38334 v -9.290037 h 4.01799 q 0.82356,0 1.41628,0.09359 0.59271,0.09359 1.11056,0.405542 0.52409,0.311956 0.8298,0.811085 0.31196,0.492889 0.31196,1.241583 0,1.029453 -0.48041,1.678321 -0.47418,0.648867 -1.36013,1.079366 z"
         style="font-style:normal;font-variant:normal;font-weight:bold;font-stretch:normal;font-family:sans-serif;-inkscape-font-specification:'sans-serif Bold';fill:#30a710;fill-opacity:1;stroke:none;stroke-width:2;stroke-linecap:round;stroke-linejoin:round;stroke-miterlimit:4;stroke-dasharray:none;stroke-opacity:1;paint-order:stroke fill markers"
         id="path1383" />
      <path
         d="m 133.63758,84.401533 q 0,1.297736 -0.59271,2.327189 -0.59272,1.023214 -1.49739,1.572256 -0.68006,0.411781 -1.49115,0.573998 -0.81108,0.162217 -1.92164,0.162217 h -3.27554 v -9.290037 h 3.36912 q 1.13552,0 1.95908,0.193413 0.82357,0.187173 1.38509,0.536563 0.96082,0.586477 1.50986,1.584735 0.55528,0.992018 0.55528,2.339666 z m -2.47692,-0.01872 q 0,-0.917149 -0.33692,-1.566017 -0.33067,-0.655107 -1.05441,-1.023214 -0.3681,-0.180934 -0.75493,-0.243326 -0.38059,-0.06863 -1.15423,-0.06863 h -0.6052 v 5.814852 h 0.6052 q 0.85475,0 1.25406,-0.07487 0.3993,-0.08111 0.77989,-0.286999 0.6551,-0.374347 0.96082,-0.998258 0.30572,-0.63015 0.30572,-1.553538 z"
         style="font-style:normal;font-variant:normal;font-weight:bold;font-stretch:normal;font-family:sans-serif;-inkscape-font-specification:'sans-serif Bold';fill:#30a710;fill-opacity:1;stroke:none;stroke-width:2;stroke-linecap:round;stroke-linejoin:round;stroke-miterlimit:4;stroke-dasharray:none;stroke-opacity:1;paint-order:stroke fill markers"
         id="path1385" />
      <path
         d="m 146.9916,88.506869 q -0.62391,0.243325 -1.65337,0.486651 -1.02945,0.237086 -2.05266,0.237086 -2.37087,0 -3.71228,-1.285257 -1.34141,-1.291496 -1.34141,-3.562533 0,-2.164972 1.35389,-3.487663 1.35389,-1.328931 3.77466,-1.328931 0.91715,0 1.74696,0.168456 0.8298,0.162217 1.84677,0.655107 v 2.17745 h -0.26828 q -0.17469,-0.131022 -0.51161,-0.368108 -0.33691,-0.243325 -0.64886,-0.411781 -0.36187,-0.199652 -0.84852,-0.343151 -0.48041,-0.1435 -1.02322,-0.1435 -0.63639,0 -1.15423,0.187173 -0.51785,0.187174 -0.92963,0.573999 -0.39306,0.374346 -0.62391,0.954584 -0.22461,0.573998 -0.22461,1.32893 0,1.541061 0.81732,2.358385 0.81733,0.817323 2.41454,0.817323 0.13726,0 0.29948,-0.0062 0.16845,-0.0062 0.30571,-0.01872 v -1.821821 h -1.85301 v -1.75319 h 4.28627 z"
         style="font-style:normal;font-variant:normal;font-weight:bold;font-stretch:normal;font-family:sans-serif;-inkscape-font-specification:'sans-serif Bold';fill:#30a710;fill-opacity:1;stroke:none;stroke-width:2;stroke-linecap:round;stroke-linejoin:round;stroke-miterlimit:4;stroke-dasharray:none;stroke-opacity:1;paint-order:stroke fill markers"
         id="path1387" />
      <path
         d="m 157.18746,89.037193 h -2.47692 l -0.64263,-1.877972 h -3.44399 l -0.64263,1.877972 h -2.41454 l 3.43152,-9.290037 h 2.75768 z m -3.69979,-3.58125 -1.14176,-3.331685 -1.14175,3.331685 z"
         style="font-style:normal;font-variant:normal;font-weight:bold;font-stretch:normal;font-family:sans-serif;-inkscape-font-specification:'sans-serif Bold';fill:#30a710;fill-opacity:1;stroke:none;stroke-width:2;stroke-linecap:round;stroke-linejoin:round;stroke-miterlimit:4;stroke-dasharray:none;stroke-opacity:1;paint-order:stroke fill markers"
         id="path1389" />
      <path
         d="m 167.7452,89.037193 h -2.38335 v -6.220394 l -1.72199,4.036705 h -1.65336 l -1.722,-4.036705 v 6.220394 h -2.25856 v -9.290037 h 2.78265 l 2.0901,4.660617 2.08386,-4.660617 h 2.78265 z"
         style="font-style:normal;font-variant:normal;font-weight:bold;font-stretch:normal;font-family:sans-serif;-inkscape-font-specification:'sans-serif Bold';fill:#30a710;fill-opacity:1;stroke:none;stroke-width:2;stroke-linecap:round;stroke-linejoin:round;stroke-miterlimit:4;stroke-dasharray:none;stroke-opacity:1;paint-order:stroke fill markers"
         id="path1391" />
      <path
         d="m 176.30017,89.037193 h -6.71952 v -9.290037 h 6.71952 v 1.796864 h -4.33618 v 1.603452 h 4.02423 v 1.796864 h -4.02423 v 2.295993 h 4.33618 z"
         style="font-style:normal;font-variant:normal;font-weight:bold;font-stretch:normal;font-family:sans-serif;-inkscape-font-specification:'sans-serif Bold';fill:#30a710;fill-opacity:1;stroke:none;stroke-width:2;stroke-linecap:round;stroke-linejoin:round;stroke-miterlimit:4;stroke-dasharray:none;stroke-opacity:1;paint-order:stroke fill markers"
         id="path1393" />
    </g>
  </g>
  <g
     inkscape:groupmode="layer"
     id="layer2"
     inkscape:label="Layer 2"
     style="display:inline"
     transform="translate(-7.9609943,-9.0457647)">
    <path
       style="fill:#000000;fill-opacity:1;stroke:#000000;stroke-width:0.264583px;stroke-linecap:butt;stroke-linejoin:miter;stroke-opacity:1"
       d="m 14.835565,57.92485 c 0,0 14.93006,-3.118302 16.819941,-8.787945 C 34.512341,42.492034 31.285723,24.104153 33.687128,21.308408 34.44308,20.741443 38.648065,20.6 38.648065,20.6 L 38.648,19.938 18.520833,19.938244 V 20.6 c 0,0 4.804762,-0.393212 5.669643,0.802901 1.544949,1.627334 1.630761,27.194742 -0.850446,30.852307 -2.07887,3.638022 -8.504465,5.669642 -8.504465,5.669642 z"
       id="path916"
       sodipodi:nodetypes="cccccccccc" />
    <path
       style="fill:#000000;fill-opacity:1;stroke:#000000;stroke-width:0.264583px;stroke-linecap:butt;stroke-linejoin:miter;stroke-opacity:1"
       d="m 53.483652,48.144716 c 0,0 27.524148,0.796777 30.83773,0.57722 1.270365,-0.08418 1.991788,-5.387703 1.991788,-5.387703 l -0.796035,-0.244947 c 0,0 -0.627026,2.881031 -3.536453,3.573346 -4.698493,1.118034 -12.690404,0.09863 -13.711121,-1.264127 -1.334506,-1.781702 -0.418294,-11.140934 -0.418294,-11.140934 0,0 11.406303,0.221156 12.723034,0.779049 1.170718,0.496028 1.097371,2.664891 1.097371,2.664891 l 0.916671,0.0022 c 0,0 0.03263,-2.25793 0.261564,-3.339648 0.211338,-0.998599 1.059238,-2.901303 1.059238,-2.901303 l -0.921734,-0.04593 c -2.127512,2.511056 -15.048764,1.04044 -15.048764,1.04044 l 0.0026,-10.298417 c 0,0 9.204869,-0.67524 13.237651,0.818623 1.863786,0.690402 1.396084,2.388567 1.396084,2.388567 l 1.332696,0.100399 c 0,0 0.06863,-1.736513 0.197444,-2.652016 0.130467,-0.927311 0.5804,-2.876427 0.5804,-2.876427 l -31.768834,2.44e-4 V 20.6 c 0,0 5.46622,-0.251471 6.331101,0.944642 1.21422,3.328227 0.780315,23.745709 -0.188987,25.466146 -0.992189,0.944942 -5.57515,1.133928 -5.57515,1.133928 z"
       id="path918"
       sodipodi:nodetypes="csccsscsccsccccsccscccccc" />
    <path
       id="path920"
       style="fill:#000000;fill-opacity:1;stroke:#000000;stroke-width:0.999999px;stroke-linecap:butt;stroke-linejoin:miter;stroke-opacity:1"
       d="m 506.07422,75.355469 -120.07227,0.002 v 2.5 c 0,0 20.6589,-0.95043 23.92774,3.570312 4.58921,12.579126 2.95064,89.747569 -0.71289,96.249999 -3.75005,3.57144 -21.07227,4.28711 -21.07227,4.28711 l -0.002,2 116.55273,0.18164 c 0,0 85.92287,0.35649 85.92578,-54.5957 0.003,-49.900492 -84.54687,-54.195314 -84.54687,-54.195314 z m -53.2168,8.732422 c 10.94006,0.07015 27.69035,1.144046 39.84375,1.77539 19.44544,1.010155 62.12601,17.425319 63.38867,50.507809 1.26271,33.0825 -34.85134,43.18263 -73.74218,44.44532 -38.89089,1.26269 -38.50902,-6.4069 -40.65821,-10.10157 -2.30464,-3.9619 -0.74585,-79.760875 0,-85.357418 0.13238,-0.993349 4.60394,-1.311623 11.16797,-1.269531 z"
       transform="scale(0.26458333)" />
    <path
       style="fill:#000000;fill-opacity:1;stroke:#000000;stroke-width:0.264583px;stroke-linecap:butt;stroke-linejoin:miter;stroke-opacity:1"
       d="m 170.95913,48.673883 21.48347,0.448957 0.12091,-0.443216 c 0,0 -6.79113,0.500325 -7.15248,-1.543867 -0.39937,-3.303815 0.003,-14.291738 0.006,-25.751731 0.91788,-0.934139 5.61797,-0.733936 5.61797,-0.733936 l -0.0321,-0.712091 -20.61051,2.44e-4 V 20.6 c 0,0 5.46625,-0.251471 6.33113,0.944642 1.21423,3.328227 0.78033,24.213431 -0.18898,25.933868 -0.9922,0.944942 -5.57518,0.666206 -5.57518,0.666206 z"
       id="path925"
       sodipodi:nodetypes="ccccccccccccc" />
    <rect
       style="fill:#000000;fill-opacity:1;stroke-width:3;stroke-linecap:round;stroke-linejoin:round;paint-order:stroke markers fill"
       id="rect927"
       width="138.90625"
       height="1.3229166"
       x="38.364582"
       y="53.483627" />
    <g
       aria-label="KNIGHTS"
       id="text938"
       style="font-size:23.8788px;line-height:1.25;font-family:sans-serif;letter-spacing:6.87917px;stroke-width:0.149242">
      <path
         d="m 35.916796,70.82221 q 0,0.214909 0.143272,0.334303 0.143273,0.09551 0.334304,0.09551 v 0.429819 h -3.725093 v -0.429819 q 0.525333,0 0.525333,-0.429818 v -10.84097 q 0,-0.429818 -0.525333,-0.429818 v -0.429819 h 3.725093 v 0.429819 q -0.191031,0 -0.334304,0.119394 -0.143272,0.09551 -0.143272,0.310424 v 4.536972 l 4.942911,-3.892245 q 0.334303,-0.286545 0.525334,-0.453697 0.19103,-0.19103 0.19103,-0.310424 0,-0.167152 -0.119394,-0.238788 -0.09551,-0.07164 -0.238788,-0.07164 v -0.429819 h 5.014548 v 0.429819 q -0.429818,0 -0.859637,0.358181 l -5.492124,4.369821 5.014548,5.802548 q 0.310425,0.358182 0.716364,0.716364 0.429819,0.334303 0.835758,0.453697 v 0.429819 h -4.417578 v -0.429819 q 0.310425,0 0.310425,-0.167151 0,-0.119394 -0.334304,-0.525334 l -4.083274,-4.704123 -2.005819,1.552122 z"
         style="font-style:normal;font-variant:normal;font-weight:normal;font-stretch:normal;font-family:Copperplate;-inkscape-font-specification:Copperplate;stroke-width:0.149242"
         id="path1231" />
      <path
         d="m 55.928559,71.252028 q 0.453697,0 0.453697,-0.429818 V 59.981235 q 0,-0.429818 -0.453697,-0.429818 v -0.429819 h 4.083275 v 0.429819 q -0.19103,0 -0.19103,0.238787 0,0.191031 0.477576,0.668607 l 6.853215,7.115882 v -7.593458 q 0,-0.429818 -0.620849,-0.429818 v -0.429819 h 3.605699 v 0.429819 q -0.453697,0 -0.453697,0.429818 V 70.82221 q 0,0.429818 0.453697,0.429818 v 0.429819 h -3.868366 v -0.429819 q 0.310425,0 0.310425,-0.214909 0,-0.167152 -0.382061,-0.549212 l -7.283034,-7.593459 v 7.927762 q 0,0.429818 0.549213,0.429818 v 0.429819 h -3.534063 z"
         style="font-style:normal;font-variant:normal;font-weight:normal;font-stretch:normal;font-family:Copperplate;-inkscape-font-specification:Copperplate;stroke-width:0.149242"
         id="path1233" />
      <path
         d="m 81.178735,71.252028 q 0.620849,0 0.620849,-0.429818 V 59.981235 q 0,-0.429818 -0.620849,-0.429818 v -0.429819 h 3.963881 v 0.429819 q -0.620849,0 -0.620849,0.429818 V 70.82221 q 0,0.429818 0.620849,0.429818 v 0.429819 h -3.963881 z"
         style="font-style:normal;font-variant:normal;font-weight:normal;font-stretch:normal;font-family:Copperplate;-inkscape-font-specification:Copperplate;stroke-width:0.149242"
         id="path1235" />
      <path
         d="m 107.54263,62.989964 -0.47758,-0.143273 q 0.0478,-0.143273 0.0478,-0.286546 0,-0.358182 -0.4537,-0.644727 -0.42981,-0.286546 -1.1223,-0.477576 -0.66861,-0.21491 -1.48049,-0.310425 -0.788,-0.09551 -1.50436,-0.09551 -0.88352,0 -1.76703,0.262667 -0.859638,0.238788 -1.552123,0.764121 -0.668606,0.525334 -1.098425,1.361092 -0.405939,0.835758 -0.405939,2.029698 0,1.170061 0.405939,2.029698 0.429819,0.835758 1.098425,1.361091 0.692485,0.525334 1.552123,0.788001 0.88351,0.238788 1.76703,0.238788 1.36109,0 2.43564,-0.214909 1.09842,-0.238788 1.86254,-0.501455 v -2.053577 h -3.05648 q -0.33431,0 -0.50146,0.143273 -0.16715,0.143273 -0.21491,0.620849 h -0.42981 v -3.056487 h 0.42981 q 0.0478,0.40594 0.21491,0.525334 0.16715,0.09552 0.50146,0.09552 h 5.9697 v 0.429819 q -0.47758,0.07164 -0.59697,0.167151 -0.1194,0.09552 -0.1194,0.40594 v 2.698304 q 0,0.238788 0.14328,0.310424 0.14327,0.07164 0.3343,0.167152 v 0.382061 q -0.788,0.549212 -1.67152,0.907394 -0.85963,0.358182 -1.76703,0.573091 -0.88351,0.191031 -1.79091,0.238788 -0.88351,0.04776 -1.74315,0.04776 -1.67152,0 -3.056486,-0.40594 -1.361092,-0.429818 -2.340123,-1.241697 -0.97903,-0.835758 -1.528243,-2.005819 -0.525333,-1.19394 -0.525333,-2.698305 0,-1.504364 0.525333,-2.674425 0.549213,-1.19394 1.528243,-2.029698 0.979031,-0.835758 2.340123,-1.265576 1.384966,-0.453698 3.056486,-0.453698 1.05067,0 2.00582,0.143273 0.95515,0.143273 1.69539,0.334303 0.74025,0.167152 1.21782,0.334303 0.50146,0.143273 0.62085,0.143273 0.21491,0 0.3343,-0.09552 0.1194,-0.09551 0.23879,-0.167151 l 0.28655,0.167151 z"
         style="font-style:normal;font-variant:normal;font-weight:normal;font-stretch:normal;font-family:Copperplate;-inkscape-font-specification:Copperplate;stroke-width:0.149242"
         id="path1237" />
      <path
         d="m 131.31978,59.981235 q 0,-0.429818 -0.52533,-0.429818 v -0.429819 h 3.67733 v 0.429819 q -0.16715,0 -0.31042,0.119394 -0.1194,0.09551 -0.1194,0.310424 V 70.82221 q 0,0.214909 0.1194,0.334303 0.14327,0.09551 0.31042,0.09551 v 0.429819 h -3.67733 v -0.429819 q 0.52533,0 0.52533,-0.429818 v -4.489214 h -7.68897 v 4.489214 q 0,0.214909 0.11939,0.334303 0.14327,0.09551 0.31043,0.09551 v 0.429819 h -3.6057 v -0.429819 q 0.45369,0 0.45369,-0.429818 V 59.981235 q 0,-0.429818 -0.45369,-0.429818 v -0.429819 h 3.6057 v 0.429819 q -0.16716,0 -0.31043,0.119394 -0.11939,0.09551 -0.11939,0.310424 v 4.059396 h 7.68897 z"
         style="font-style:normal;font-variant:normal;font-weight:normal;font-stretch:normal;font-family:Copperplate;-inkscape-font-specification:Copperplate;stroke-width:0.149242"
         id="path1239" />
      <path
         d="m 152.27177,70.82221 q 0,0.429818 0.52534,0.429818 v 0.429819 h -3.67734 v -0.429819 q 0.16715,0 0.28655,-0.09551 0.14327,-0.119394 0.14327,-0.334303 v -9.503762 h -3.94 q -0.21491,0 -0.42982,0.119394 -0.19103,0.119394 -0.19103,0.453697 h -0.42982 v -3.343032 h 0.42982 q 0,0.334303 0.19103,0.453697 0.21491,0.119394 0.42982,0.119394 h 10.60219 q 0.21491,0 0.40594,-0.119394 0.21491,-0.119394 0.21491,-0.453697 h 0.42981 v 3.343032 h -0.42981 q 0,-0.334303 -0.21491,-0.453697 -0.19103,-0.119394 -0.40594,-0.119394 h -3.94001 z"
         style="font-style:normal;font-variant:normal;font-weight:normal;font-stretch:normal;font-family:Copperplate;-inkscape-font-specification:Copperplate;stroke-width:0.149242"
         id="path1241" />
      <path
         d="m 168.08944,67.741845 0.23879,0.119394 q 0,0.214909 0.0955,0.38206 0.16715,0.286546 0.64472,0.573092 0.50146,0.262666 1.12231,0.477576 0.64473,0.214909 1.33721,0.358182 0.69249,0.119394 1.2417,0.119394 0.40594,0 1.05067,-0.04776 0.64472,-0.07164 1.26557,-0.262667 0.62085,-0.19103 1.07455,-0.525333 0.45369,-0.334304 0.45369,-0.883516 0,-0.549212 -0.42981,-0.811879 -0.40594,-0.262667 -1.09843,-0.382061 -0.6686,-0.119394 -1.55212,-0.143273 -0.85964,-0.04776 -1.76703,-0.119394 -0.9074,-0.07164 -1.79091,-0.238788 -0.85964,-0.167151 -1.55212,-0.549212 -0.66861,-0.40594 -1.09843,-1.074546 -0.40594,-0.692485 -0.40594,-1.79091 0,-0.740243 0.33431,-1.456607 0.35818,-0.716364 1.07454,-1.265576 0.71637,-0.549212 1.81479,-0.883516 1.09842,-0.358182 2.57891,-0.358182 1.26558,0 2.19685,0.191031 0.93127,0.19103 1.59988,0.405939 0.69248,0.214909 1.14618,0.40594 0.47758,0.19103 0.788,0.19103 0.33431,0 0.47758,-0.143273 l 0.28654,0.191031 -1.64763,2.98485 -0.23879,-0.09551 q -0.0478,-0.334304 -0.19103,-0.549213 -0.19103,-0.286545 -0.64473,-0.549212 -0.42982,-0.286546 -1.02679,-0.501455 -0.59697,-0.214909 -1.28945,-0.334303 -0.69249,-0.143273 -1.38497,-0.143273 -0.52534,0 -1.09843,0.09551 -0.54921,0.07164 -1.00291,0.238788 -0.45369,0.167152 -0.76412,0.453697 -0.28654,0.262667 -0.28654,0.668607 0,0.573091 0.40593,0.859637 0.42982,0.286545 1.09843,0.429818 0.69248,0.143273 1.55212,0.19103 0.88352,0.04776 1.79091,0.119394 0.9074,0.07164 1.76703,0.262667 0.88352,0.167152 1.55212,0.573091 0.69249,0.382061 1.09843,1.050668 0.42982,0.668606 0.42982,1.743152 0,1.241697 -0.66861,2.029698 -0.64473,0.788 -1.62376,1.241697 -0.97903,0.453698 -2.12521,0.620849 -1.1223,0.143273 -2.10133,0.143273 -1.3611,0 -2.29237,-0.143273 -0.90739,-0.167151 -1.52824,-0.382061 -0.59697,-0.238788 -0.95515,-0.405939 -0.35819,-0.191031 -0.62085,-0.191031 -0.16715,0 -0.31043,0.191031 l -0.3343,-0.191031 z"
         style="font-style:normal;font-variant:normal;font-weight:normal;font-stretch:normal;font-family:Copperplate;-inkscape-font-specification:Copperplate;stroke-width:0.149242"
         id="path1243" />
    </g>
    <g
       aria-label="TM"
       id="text946"
       style="font-size:3.68093px;line-height:1.25;font-family:sans-serif;stroke-width:0.0230059">
      <path
         d="m 182.74106,60.831459 h -0.83576 v 2.158592 h -0.69017 v -2.158592 h -0.83576 v -0.517631 h 2.36169 z"
         style="font-style:normal;font-variant:normal;font-weight:bold;font-stretch:normal;font-family:sans-serif;-inkscape-font-specification:'sans-serif Bold';stroke-width:0.0230059"
         id="path1396" />
      <path
         d="m 185.96187,62.990051 h -0.68658 v -1.791937 l -0.49606,1.162872 h -0.47629 l -0.49606,-1.162872 v 1.791937 h -0.65064 v -2.676223 h 0.80161 l 0.60211,1.342605 0.60031,-1.342605 h 0.8016 z"
         style="font-style:normal;font-variant:normal;font-weight:bold;font-stretch:normal;font-family:sans-serif;-inkscape-font-specification:'sans-serif Bold';stroke-width:0.0230059"
         id="path1398" />
    </g>
    <g
       aria-label="TRADING CARD GAME"
       id="text950"
       style="font-size:12.7777px;line-height:1.25;font-family:sans-serif;letter-spacing:-0.529167px;stroke:#000000;stroke-width:2;stroke-linecap:round;stroke-linejoin:round;stroke-miterlimit:4;stroke-dasharray:none;stroke-opacity:1;paint-order:stroke fill markers">
      <path
         d="m 39.087972,81.009482 h -2.901187 v 7.493173 H 33.790966 V 81.009482 H 30.88978 v -1.796864 h 8.198192 z"
         style="font-style:normal;font-variant:normal;font-weight:bold;font-stretch:normal;font-family:sans-serif;-inkscape-font-specification:'sans-serif Bold';stroke:#000000;stroke-width:2;stroke-linecap:round;stroke-linejoin:round;stroke-miterlimit:4;stroke-dasharray:none;stroke-opacity:1;paint-order:stroke fill markers"
         id="path1277" />
      <path
         d="m 45.209698,82.057653 q 0,-0.34939 -0.1435,-0.598955 -0.143499,-0.249564 -0.492889,-0.393064 -0.243326,-0.09983 -0.56776,-0.118543 -0.324433,-0.02496 -0.754932,-0.02496 H 42.38338 v 2.501883 h 0.736216 q 0.573998,0 0.960823,-0.05615 0.386825,-0.05615 0.648867,-0.255803 0.249565,-0.193413 0.361869,-0.42426 0.118543,-0.237086 0.118543,-0.63015 z m 3.737228,6.445002 H 46.020782 L 43.487703,85.0961 H 42.38338 v 3.406555 h -2.38334 v -9.290037 h 4.017988 q 0.823562,0 1.416278,0.09359 0.592716,0.09359 1.110562,0.405542 0.524085,0.311955 0.829802,0.811084 0.311955,0.49289 0.311955,1.241584 0,1.029453 -0.480411,1.678321 -0.474173,0.648867 -1.360127,1.079366 z"
         style="font-style:normal;font-variant:normal;font-weight:bold;font-stretch:normal;font-family:sans-serif;-inkscape-font-specification:'sans-serif Bold';stroke:#000000;stroke-width:2;stroke-linecap:round;stroke-linejoin:round;stroke-miterlimit:4;stroke-dasharray:none;stroke-opacity:1;paint-order:stroke fill markers"
         id="path1279" />
      <path
         d="M 58.063425,88.502655 H 55.586498 L 54.943869,86.624682 H 51.49988 l -0.642629,1.877973 h -2.414536 l 3.431511,-9.290037 h 2.757688 z m -3.699793,-3.58125 -1.141758,-3.331686 -1.141757,3.331686 z"
         style="font-style:normal;font-variant:normal;font-weight:bold;font-stretch:normal;font-family:sans-serif;-inkscape-font-specification:'sans-serif Bold';stroke:#000000;stroke-width:2;stroke-linecap:round;stroke-linejoin:round;stroke-miterlimit:4;stroke-dasharray:none;stroke-opacity:1;paint-order:stroke fill markers"
         id="path1281" />
      <path
         d="m 67.660337,83.866995 q 0,1.297735 -0.592715,2.327189 -0.592716,1.023214 -1.497387,1.572256 -0.680063,0.411781 -1.491148,0.573998 -0.811084,0.162217 -1.921646,0.162217 h -3.275534 v -9.290037 h 3.36912 q 1.135519,0 1.959081,0.193412 0.823563,0.187174 1.385083,0.536564 0.960823,0.586476 1.509865,1.584734 0.555281,0.992019 0.555281,2.339667 z m -2.476927,-0.01872 q 0,-0.91715 -0.336912,-1.566017 -0.330673,-0.655107 -1.05441,-1.023214 -0.368108,-0.180935 -0.754933,-0.243326 -0.380585,-0.06863 -1.154235,-0.06863 h -0.605194 v 5.814852 h 0.605194 q 0.854758,0 1.254061,-0.07487 0.399303,-0.08111 0.779889,-0.287 0.655107,-0.374346 0.960823,-0.998257 0.305717,-0.630151 0.305717,-1.553538 z"
         style="font-style:normal;font-variant:normal;font-weight:bold;font-stretch:normal;font-family:sans-serif;-inkscape-font-specification:'sans-serif Bold';stroke:#000000;stroke-width:2;stroke-linecap:round;stroke-linejoin:round;stroke-miterlimit:4;stroke-dasharray:none;stroke-opacity:1;paint-order:stroke fill markers"
         id="path1283" />
      <path
         d="M 73.981712,88.502655 H 68.541207 V 86.85553 h 1.522343 v -5.995787 h -1.522343 v -1.647125 h 5.440505 v 1.647125 h -1.522343 v 5.995787 h 1.522343 z"
         style="font-style:normal;font-variant:normal;font-weight:bold;font-stretch:normal;font-family:sans-serif;-inkscape-font-specification:'sans-serif Bold';stroke:#000000;stroke-width:2;stroke-linecap:round;stroke-linejoin:round;stroke-miterlimit:4;stroke-dasharray:none;stroke-opacity:1;paint-order:stroke fill markers"
         id="path1285" />
      <path
         d="m 83.865625,88.502655 h -2.308471 l -3.943118,-6.376372 v 6.376372 h -2.196168 v -9.290037 h 2.863753 l 3.387837,5.321962 v -5.321962 h 2.196167 z"
         style="font-style:normal;font-variant:normal;font-weight:bold;font-stretch:normal;font-family:sans-serif;-inkscape-font-specification:'sans-serif Bold';stroke:#000000;stroke-width:2;stroke-linecap:round;stroke-linejoin:round;stroke-miterlimit:4;stroke-dasharray:none;stroke-opacity:1;paint-order:stroke fill markers"
         id="path1287" />
      <path
         d="m 93.936708,87.972331 q -0.623911,0.243325 -1.653365,0.48665 -1.029453,0.237086 -2.052668,0.237086 -2.370862,0 -3.712271,-1.285256 -1.341409,-1.291497 -1.341409,-3.562533 0,-2.164972 1.353887,-3.487664 1.353888,-1.32893 3.774663,-1.32893 0.917149,0 1.746951,0.168456 0.829802,0.162217 1.846777,0.655106 v 2.17745 h -0.268282 q -0.174695,-0.131021 -0.511607,-0.368107 -0.336912,-0.243326 -0.648868,-0.411782 -0.361868,-0.199651 -0.848519,-0.343151 -0.480411,-0.143499 -1.023214,-0.143499 -0.636389,0 -1.154236,0.187173 -0.517846,0.187173 -0.929627,0.573998 -0.393064,0.374347 -0.623911,0.954584 -0.224608,0.573999 -0.224608,1.328931 0,1.541061 0.817323,2.358384 0.817324,0.817324 2.414536,0.817324 0.137261,0 0.299478,-0.0062 0.168456,-0.0062 0.305716,-0.01872 v -1.82182 h -1.853016 v -1.75319 h 4.28627 z"
         style="font-style:normal;font-variant:normal;font-weight:bold;font-stretch:normal;font-family:sans-serif;-inkscape-font-specification:'sans-serif Bold';stroke:#000000;stroke-width:2;stroke-linecap:round;stroke-linejoin:round;stroke-miterlimit:4;stroke-dasharray:none;stroke-opacity:1;paint-order:stroke fill markers"
         id="path1289" />
      <path
         d="m 103.58469,88.683589 q -1.03569,0 -1.91541,-0.305716 -0.87347,-0.305717 -1.50362,-0.91091 -0.630154,-0.605194 -0.979544,-1.509865 -0.343151,-0.904672 -0.343151,-2.090103 0,-1.104323 0.330673,-2.002755 0.330673,-0.898432 0.960822,-1.54106 0.60519,-0.617672 1.49739,-0.954584 0.89843,-0.336912 1.95908,-0.336912 0.58648,0 1.05441,0.06863 0.47417,0.06239 0.87347,0.168456 0.41802,0.118543 0.75494,0.268282 0.34315,0.143499 0.59895,0.268282 v 2.252319 h -0.27452 q -0.17469,-0.149739 -0.44298,-0.35563 -0.26204,-0.20589 -0.59895,-0.405542 -0.34315,-0.199651 -0.74246,-0.336912 -0.3993,-0.13726 -0.85475,-0.13726 -0.50537,0 -0.96083,0.162217 -0.45545,0.155977 -0.84228,0.524085 -0.3681,0.355629 -0.59895,0.942106 -0.22461,0.586476 -0.22461,1.422517 0,0.873476 0.24333,1.459952 0.24956,0.586477 0.62391,0.923389 0.38058,0.343151 0.84852,0.49289 0.46793,0.143499 0.92338,0.143499 0.43674,0 0.861,-0.131021 0.4305,-0.131021 0.79237,-0.355629 0.30572,-0.180935 0.56776,-0.386825 0.26204,-0.205891 0.4305,-0.35563 h 0.24956 v 2.221124 q -0.34939,0.155978 -0.66758,0.293238 -0.3182,0.137261 -0.66759,0.237086 -0.45545,0.131022 -0.85476,0.199652 -0.3993,0.06863 -1.09808,0.06863 z"
         style="font-style:normal;font-variant:normal;font-weight:bold;font-stretch:normal;font-family:sans-serif;-inkscape-font-specification:'sans-serif Bold';stroke:#000000;stroke-width:2;stroke-linecap:round;stroke-linejoin:round;stroke-miterlimit:4;stroke-dasharray:none;stroke-opacity:1;paint-order:stroke fill markers"
         id="path1291" />
      <path
         d="m 116.70046,88.502655 h -2.47693 l -0.64263,-1.877973 h -3.44398 l -0.64263,1.877973 h -2.41454 l 3.43151,-9.290037 h 2.75769 z m -3.69979,-3.58125 -1.14176,-3.331686 -1.14176,3.331686 z"
         style="font-style:normal;font-variant:normal;font-weight:bold;font-stretch:normal;font-family:sans-serif;-inkscape-font-specification:'sans-serif Bold';stroke:#000000;stroke-width:2;stroke-linecap:round;stroke-linejoin:round;stroke-miterlimit:4;stroke-dasharray:none;stroke-opacity:1;paint-order:stroke fill markers"
         id="path1293" />
      <path
         d="m 122.7286,82.057653 q 0,-0.34939 -0.1435,-0.598955 -0.1435,-0.249564 -0.49289,-0.393064 -0.24333,-0.09983 -0.56776,-0.118543 -0.32444,-0.02496 -0.75493,-0.02496 h -0.86724 v 2.501883 h 0.73621 q 0.574,0 0.96083,-0.05615 0.38682,-0.05615 0.64887,-0.255803 0.24956,-0.193413 0.36186,-0.42426 0.11855,-0.237086 0.11855,-0.63015 z m 3.73722,6.445002 h -2.92614 L 121.0066,85.0961 h -1.10432 v 3.406555 h -2.38334 v -9.290037 h 4.01799 q 0.82356,0 1.41627,0.09359 0.59272,0.09359 1.11057,0.405542 0.52408,0.311955 0.8298,0.811084 0.31195,0.49289 0.31195,1.241584 0,1.029453 -0.48041,1.678321 -0.47417,0.648867 -1.36012,1.079366 z"
         style="font-style:normal;font-variant:normal;font-weight:bold;font-stretch:normal;font-family:sans-serif;-inkscape-font-specification:'sans-serif Bold';stroke:#000000;stroke-width:2;stroke-linecap:round;stroke-linejoin:round;stroke-miterlimit:4;stroke-dasharray:none;stroke-opacity:1;paint-order:stroke fill markers"
         id="path1295" />
      <path
         d="m 135.77574,83.866995 q 0,1.297735 -0.59272,2.327189 -0.59271,1.023214 -1.49738,1.572256 -0.68007,0.411781 -1.49115,0.573998 -0.81109,0.162217 -1.92165,0.162217 h -3.27553 v -9.290037 h 3.36912 q 1.13552,0 1.95908,0.193412 0.82356,0.187174 1.38508,0.536564 0.96083,0.586476 1.50987,1.584734 0.55528,0.992019 0.55528,2.339667 z m -2.47693,-0.01872 q 0,-0.91715 -0.33691,-1.566017 -0.33067,-0.655107 -1.05441,-1.023214 -0.36811,-0.180935 -0.75493,-0.243326 -0.38059,-0.06863 -1.15424,-0.06863 h -0.60519 v 5.814852 h 0.60519 q 0.85476,0 1.25406,-0.07487 0.39931,-0.08111 0.77989,-0.287 0.65511,-0.374346 0.96083,-0.998257 0.30571,-0.630151 0.30571,-1.553538 z"
         style="font-style:normal;font-variant:normal;font-weight:bold;font-stretch:normal;font-family:sans-serif;-inkscape-font-specification:'sans-serif Bold';stroke:#000000;stroke-width:2;stroke-linecap:round;stroke-linejoin:round;stroke-miterlimit:4;stroke-dasharray:none;stroke-opacity:1;paint-order:stroke fill markers"
         id="path1297" />
      <path
         d="m 149.12975,87.972331 q -0.62391,0.243325 -1.65336,0.48665 -1.02945,0.237086 -2.05267,0.237086 -2.37086,0 -3.71227,-1.285256 -1.34141,-1.291497 -1.34141,-3.562533 0,-2.164972 1.35389,-3.487664 1.35389,-1.32893 3.77466,-1.32893 0.91715,0 1.74695,0.168456 0.8298,0.162217 1.84678,0.655106 v 2.17745 h -0.26828 q -0.1747,-0.131021 -0.51161,-0.368107 -0.33691,-0.243326 -0.64887,-0.411782 -0.36187,-0.199651 -0.84852,-0.343151 -0.48041,-0.143499 -1.02321,-0.143499 -0.63639,0 -1.15424,0.187173 -0.51784,0.187173 -0.92962,0.573998 -0.39307,0.374347 -0.62391,0.954584 -0.22461,0.573999 -0.22461,1.328931 0,1.541061 0.81732,2.358384 0.81732,0.817324 2.41454,0.817324 0.13726,0 0.29947,-0.0062 0.16846,-0.0062 0.30572,-0.01872 v -1.82182 h -1.85302 v -1.75319 h 4.28627 z"
         style="font-style:normal;font-variant:normal;font-weight:bold;font-stretch:normal;font-family:sans-serif;-inkscape-font-specification:'sans-serif Bold';stroke:#000000;stroke-width:2;stroke-linecap:round;stroke-linejoin:round;stroke-miterlimit:4;stroke-dasharray:none;stroke-opacity:1;paint-order:stroke fill markers"
         id="path1299" />
      <path
         d="m 159.32562,88.502655 h -2.47693 l -0.64263,-1.877973 h -3.44398 l -0.64263,1.877973 h -2.41454 l 3.43151,-9.290037 h 2.75769 z m -3.69979,-3.58125 -1.14176,-3.331686 -1.14176,3.331686 z"
         style="font-style:normal;font-variant:normal;font-weight:bold;font-stretch:normal;font-family:sans-serif;-inkscape-font-specification:'sans-serif Bold';stroke:#000000;stroke-width:2;stroke-linecap:round;stroke-linejoin:round;stroke-miterlimit:4;stroke-dasharray:none;stroke-opacity:1;paint-order:stroke fill markers"
         id="path1301" />
      <path
         d="m 169.88335,88.502655 h -2.38334 v -6.220394 l -1.72199,4.036705 h -1.65337 l -1.72199,-4.036705 v 6.220394 h -2.25856 v -9.290037 h 2.78264 l 2.09011,4.660616 2.08386,-4.660616 h 2.78264 z"
         style="font-style:normal;font-variant:normal;font-weight:bold;font-stretch:normal;font-family:sans-serif;-inkscape-font-specification:'sans-serif Bold';stroke:#000000;stroke-width:2;stroke-linecap:round;stroke-linejoin:round;stroke-miterlimit:4;stroke-dasharray:none;stroke-opacity:1;paint-order:stroke fill markers"
         id="path1303" />
      <path
         d="m 178.43833,88.502655 h -6.71952 v -9.290037 h 6.71952 v 1.796864 h -4.33618 v 1.603452 h 4.02422 v 1.796864 h -4.02422 v 2.295993 h 4.33618 z"
         style="font-style:normal;font-variant:normal;font-weight:bold;font-stretch:normal;font-family:sans-serif;-inkscape-font-specification:'sans-serif Bold';stroke:#000000;stroke-width:2;stroke-linecap:round;stroke-linejoin:round;stroke-miterlimit:4;stroke-dasharray:none;stroke-opacity:1;paint-order:stroke fill markers"
         id="path1305" />
    </g>
    <g
       aria-label="TRADING CARD GAME"
       id="text954"
       style="font-size:12.7777px;line-height:1.25;font-family:sans-serif;letter-spacing:-0.529167px;fill:#ffffff;fill-opacity:1;stroke:none;stroke-width:2;stroke-linecap:round;stroke-linejoin:round;stroke-miterlimit:4;stroke-dasharray:none;stroke-opacity:1;paint-order:stroke fill markers">
      <path
         d="m 39.087972,81.009482 h -2.901187 v 7.493173 H 33.790966 V 81.009482 H 30.88978 v -1.796864 h 8.198192 z"
         style="font-style:normal;font-variant:normal;font-weight:bold;font-stretch:normal;font-family:sans-serif;-inkscape-font-specification:'sans-serif Bold';fill:#ffffff;fill-opacity:1;stroke:none;stroke-width:2;stroke-linecap:round;stroke-linejoin:round;stroke-miterlimit:4;stroke-dasharray:none;stroke-opacity:1;paint-order:stroke fill markers"
         id="path1246" />
      <path
         d="m 45.209698,82.057653 q 0,-0.34939 -0.1435,-0.598955 -0.143499,-0.249564 -0.492889,-0.393064 -0.243326,-0.09983 -0.56776,-0.118543 -0.324433,-0.02496 -0.754932,-0.02496 H 42.38338 v 2.501883 h 0.736216 q 0.573998,0 0.960823,-0.05615 0.386825,-0.05615 0.648867,-0.255803 0.249565,-0.193413 0.361869,-0.42426 0.118543,-0.237086 0.118543,-0.63015 z m 3.737228,6.445002 H 46.020782 L 43.487703,85.0961 H 42.38338 v 3.406555 h -2.38334 v -9.290037 h 4.017988 q 0.823562,0 1.416278,0.09359 0.592716,0.09359 1.110562,0.405542 0.524085,0.311955 0.829802,0.811084 0.311955,0.49289 0.311955,1.241584 0,1.029453 -0.480411,1.678321 -0.474173,0.648867 -1.360127,1.079366 z"
         style="font-style:normal;font-variant:normal;font-weight:bold;font-stretch:normal;font-family:sans-serif;-inkscape-font-specification:'sans-serif Bold';fill:#ffffff;fill-opacity:1;stroke:none;stroke-width:2;stroke-linecap:round;stroke-linejoin:round;stroke-miterlimit:4;stroke-dasharray:none;stroke-opacity:1;paint-order:stroke fill markers"
         id="path1248" />
      <path
         d="M 58.063425,88.502655 H 55.586498 L 54.943869,86.624682 H 51.49988 l -0.642629,1.877973 h -2.414536 l 3.431511,-9.290037 h 2.757688 z m -3.699793,-3.58125 -1.141758,-3.331686 -1.141757,3.331686 z"
         style="font-style:normal;font-variant:normal;font-weight:bold;font-stretch:normal;font-family:sans-serif;-inkscape-font-specification:'sans-serif Bold';fill:#ffffff;fill-opacity:1;stroke:none;stroke-width:2;stroke-linecap:round;stroke-linejoin:round;stroke-miterlimit:4;stroke-dasharray:none;stroke-opacity:1;paint-order:stroke fill markers"
         id="path1250" />
      <path
         d="m 67.660337,83.866995 q 0,1.297735 -0.592715,2.327189 -0.592716,1.023214 -1.497387,1.572256 -0.680063,0.411781 -1.491148,0.573998 -0.811084,0.162217 -1.921646,0.162217 h -3.275534 v -9.290037 h 3.36912 q 1.135519,0 1.959081,0.193412 0.823563,0.187174 1.385083,0.536564 0.960823,0.586476 1.509865,1.584734 0.555281,0.992019 0.555281,2.339667 z m -2.476927,-0.01872 q 0,-0.91715 -0.336912,-1.566017 -0.330673,-0.655107 -1.05441,-1.023214 -0.368108,-0.180935 -0.754933,-0.243326 -0.380585,-0.06863 -1.154235,-0.06863 h -0.605194 v 5.814852 h 0.605194 q 0.854758,0 1.254061,-0.07487 0.399303,-0.08111 0.779889,-0.287 0.655107,-0.374346 0.960823,-0.998257 0.305717,-0.630151 0.305717,-1.553538 z"
         style="font-style:normal;font-variant:normal;font-weight:bold;font-stretch:normal;font-family:sans-serif;-inkscape-font-specification:'sans-serif Bold';fill:#ffffff;fill-opacity:1;stroke:none;stroke-width:2;stroke-linecap:round;stroke-linejoin:round;stroke-miterlimit:4;stroke-dasharray:none;stroke-opacity:1;paint-order:stroke fill markers"
         id="path1252" />
      <path
         d="M 73.981712,88.502655 H 68.541207 V 86.85553 h 1.522343 v -5.995787 h -1.522343 v -1.647125 h 5.440505 v 1.647125 h -1.522343 v 5.995787 h 1.522343 z"
         style="font-style:normal;font-variant:normal;font-weight:bold;font-stretch:normal;font-family:sans-serif;-inkscape-font-specification:'sans-serif Bold';fill:#ffffff;fill-opacity:1;stroke:none;stroke-width:2;stroke-linecap:round;stroke-linejoin:round;stroke-miterlimit:4;stroke-dasharray:none;stroke-opacity:1;paint-order:stroke fill markers"
         id="path1254" />
      <path
         d="m 83.865625,88.502655 h -2.308471 l -3.943118,-6.376372 v 6.376372 h -2.196168 v -9.290037 h 2.863753 l 3.387837,5.321962 v -5.321962 h 2.196167 z"
         style="font-style:normal;font-variant:normal;font-weight:bold;font-stretch:normal;font-family:sans-serif;-inkscape-font-specification:'sans-serif Bold';fill:#ffffff;fill-opacity:1;stroke:none;stroke-width:2;stroke-linecap:round;stroke-linejoin:round;stroke-miterlimit:4;stroke-dasharray:none;stroke-opacity:1;paint-order:stroke fill markers"
         id="path1256" />
      <path
         d="m 93.936708,87.972331 q -0.623911,0.243325 -1.653365,0.48665 -1.029453,0.237086 -2.052668,0.237086 -2.370862,0 -3.712271,-1.285256 -1.341409,-1.291497 -1.341409,-3.562533 0,-2.164972 1.353887,-3.487664 1.353888,-1.32893 3.774663,-1.32893 0.917149,0 1.746951,0.168456 0.829802,0.162217 1.846777,0.655106 v 2.17745 h -0.268282 q -0.174695,-0.131021 -0.511607,-0.368107 -0.336912,-0.243326 -0.648868,-0.411782 -0.361868,-0.199651 -0.848519,-0.343151 -0.480411,-0.143499 -1.023214,-0.143499 -0.636389,0 -1.154236,0.187173 -0.517846,0.187173 -0.929627,0.573998 -0.393064,0.374347 -0.623911,0.954584 -0.224608,0.573999 -0.224608,1.328931 0,1.541061 0.817323,2.358384 0.817324,0.817324 2.414536,0.817324 0.137261,0 0.299478,-0.0062 0.168456,-0.0062 0.305716,-0.01872 v -1.82182 h -1.853016 v -1.75319 h 4.28627 z"
         style="font-style:normal;font-variant:normal;font-weight:bold;font-stretch:normal;font-family:sans-serif;-inkscape-font-specification:'sans-serif Bold';fill:#ffffff;fill-opacity:1;stroke:none;stroke-width:2;stroke-linecap:round;stroke-linejoin:round;stroke-miterlimit:4;stroke-dasharray:none;stroke-opacity:1;paint-order:stroke fill markers"
         id="path1258" />
      <path
         d="m 103.58469,88.683589 q -1.03569,0 -1.91541,-0.305716 -0.87347,-0.305717 -1.50362,-0.91091 -0.630154,-0.605194 -0.979544,-1.509865 -0.343151,-0.904672 -0.343151,-2.090103 0,-1.104323 0.330673,-2.002755 0.330673,-0.898432 0.960822,-1.54106 0.60519,-0.617672 1.49739,-0.954584 0.89843,-0.336912 1.95908,-0.336912 0.58648,0 1.05441,0.06863 0.47417,0.06239 0.87347,0.168456 0.41802,0.118543 0.75494,0.268282 0.34315,0.143499 0.59895,0.268282 v 2.252319 h -0.27452 q -0.17469,-0.149739 -0.44298,-0.35563 -0.26204,-0.20589 -0.59895,-0.405542 -0.34315,-0.199651 -0.74246,-0.336912 -0.3993,-0.13726 -0.85475,-0.13726 -0.50537,0 -0.96083,0.162217 -0.45545,0.155977 -0.84228,0.524085 -0.3681,0.355629 -0.59895,0.942106 -0.22461,0.586476 -0.22461,1.422517 0,0.873476 0.24333,1.459952 0.24956,0.586477 0.62391,0.923389 0.38058,0.343151 0.84852,0.49289 0.46793,0.143499 0.92338,0.143499 0.43674,0 0.861,-0.131021 0.4305,-0.131021 0.79237,-0.355629 0.30572,-0.180935 0.56776,-0.386825 0.26204,-0.205891 0.4305,-0.35563 h 0.24956 v 2.221124 q -0.34939,0.155978 -0.66758,0.293238 -0.3182,0.137261 -0.66759,0.237086 -0.45545,0.131022 -0.85476,0.199652 -0.3993,0.06863 -1.09808,0.06863 z"
         style="font-style:normal;font-variant:normal;font-weight:bold;font-stretch:normal;font-family:sans-serif;-inkscape-font-specification:'sans-serif Bold';fill:#ffffff;fill-opacity:1;stroke:none;stroke-width:2;stroke-linecap:round;stroke-linejoin:round;stroke-miterlimit:4;stroke-dasharray:none;stroke-opacity:1;paint-order:stroke fill markers"
         id="path1260" />
      <path
         d="m 116.70046,88.502655 h -2.47693 l -0.64263,-1.877973 h -3.44398 l -0.64263,1.877973 h -2.41454 l 3.43151,-9.290037 h 2.75769 z m -3.69979,-3.58125 -1.14176,-3.331686 -1.14176,3.331686 z"
         style="font-style:normal;font-variant:normal;font-weight:bold;font-stretch:normal;font-family:sans-serif;-inkscape-font-specification:'sans-serif Bold';fill:#ffffff;fill-opacity:1;stroke:none;stroke-width:2;stroke-linecap:round;stroke-linejoin:round;stroke-miterlimit:4;stroke-dasharray:none;stroke-opacity:1;paint-order:stroke fill markers"
         id="path1262" />
      <path
         d="m 122.7286,82.057653 q 0,-0.34939 -0.1435,-0.598955 -0.1435,-0.249564 -0.49289,-0.393064 -0.24333,-0.09983 -0.56776,-0.118543 -0.32444,-0.02496 -0.75493,-0.02496 h -0.86724 v 2.501883 h 0.73621 q 0.574,0 0.96083,-0.05615 0.38682,-0.05615 0.64887,-0.255803 0.24956,-0.193413 0.36186,-0.42426 0.11855,-0.237086 0.11855,-0.63015 z m 3.73722,6.445002 h -2.92614 L 121.0066,85.0961 h -1.10432 v 3.406555 h -2.38334 v -9.290037 h 4.01799 q 0.82356,0 1.41627,0.09359 0.59272,0.09359 1.11057,0.405542 0.52408,0.311955 0.8298,0.811084 0.31195,0.49289 0.31195,1.241584 0,1.029453 -0.48041,1.678321 -0.47417,0.648867 -1.36012,1.079366 z"
         style="font-style:normal;font-variant:normal;font-weight:bold;font-stretch:normal;font-family:sans-serif;-inkscape-font-specification:'sans-serif Bold';fill:#ffffff;fill-opacity:1;stroke:none;stroke-width:2;stroke-linecap:round;stroke-linejoin:round;stroke-miterlimit:4;stroke-dasharray:none;stroke-opacity:1;paint-order:stroke fill markers"
         id="path1264" />
      <path
         d="m 135.77574,83.866995 q 0,1.297735 -0.59272,2.327189 -0.59271,1.023214 -1.49738,1.572256 -0.68007,0.411781 -1.49115,0.573998 -0.81109,0.162217 -1.92165,0.162217 h -3.27553 v -9.290037 h 3.36912 q 1.13552,0 1.95908,0.193412 0.82356,0.187174 1.38508,0.536564 0.96083,0.586476 1.50987,1.584734 0.55528,0.992019 0.55528,2.339667 z m -2.47693,-0.01872 q 0,-0.91715 -0.33691,-1.566017 -0.33067,-0.655107 -1.05441,-1.023214 -0.36811,-0.180935 -0.75493,-0.243326 -0.38059,-0.06863 -1.15424,-0.06863 h -0.60519 v 5.814852 h 0.60519 q 0.85476,0 1.25406,-0.07487 0.39931,-0.08111 0.77989,-0.287 0.65511,-0.374346 0.96083,-0.998257 0.30571,-0.630151 0.30571,-1.553538 z"
         style="font-style:normal;font-variant:normal;font-weight:bold;font-stretch:normal;font-family:sans-serif;-inkscape-font-specification:'sans-serif Bold';fill:#ffffff;fill-opacity:1;stroke:none;stroke-width:2;stroke-linecap:round;stroke-linejoin:round;stroke-miterlimit:4;stroke-dasharray:none;stroke-opacity:1;paint-order:stroke fill markers"
         id="path1266" />
      <path
         d="m 149.12975,87.972331 q -0.62391,0.243325 -1.65336,0.48665 -1.02945,0.237086 -2.05267,0.237086 -2.37086,0 -3.71227,-1.285256 -1.34141,-1.291497 -1.34141,-3.562533 0,-2.164972 1.35389,-3.487664 1.35389,-1.32893 3.77466,-1.32893 0.91715,0 1.74695,0.168456 0.8298,0.162217 1.84678,0.655106 v 2.17745 h -0.26828 q -0.1747,-0.131021 -0.51161,-0.368107 -0.33691,-0.243326 -0.64887,-0.411782 -0.36187,-0.199651 -0.84852,-0.343151 -0.48041,-0.143499 -1.02321,-0.143499 -0.63639,0 -1.15424,0.187173 -0.51784,0.187173 -0.92962,0.573998 -0.39307,0.374347 -0.62391,0.954584 -0.22461,0.573999 -0.22461,1.328931 0,1.541061 0.81732,2.358384 0.81732,0.817324 2.41454,0.817324 0.13726,0 0.29947,-0.0062 0.16846,-0.0062 0.30572,-0.01872 v -1.82182 h -1.85302 v -1.75319 h 4.28627 z"
         style="font-style:normal;font-variant:normal;font-weight:bold;font-stretch:normal;font-family:sans-serif;-inkscape-font-specification:'sans-serif Bold';fill:#ffffff;fill-opacity:1;stroke:none;stroke-width:2;stroke-linecap:round;stroke-linejoin:round;stroke-miterlimit:4;stroke-dasharray:none;stroke-opacity:1;paint-order:stroke fill markers"
         id="path1268" />
      <path
         d="m 159.32562,88.502655 h -2.47693 l -0.64263,-1.877973 h -3.44398 l -0.64263,1.877973 h -2.41454 l 3.43151,-9.290037 h 2.75769 z m -3.69979,-3.58125 -1.14176,-3.331686 -1.14176,3.331686 z"
         style="font-style:normal;font-variant:normal;font-weight:bold;font-stretch:normal;font-family:sans-serif;-inkscape-font-specification:'sans-serif Bold';fill:#ffffff;fill-opacity:1;stroke:none;stroke-width:2;stroke-linecap:round;stroke-linejoin:round;stroke-miterlimit:4;stroke-dasharray:none;stroke-opacity:1;paint-order:stroke fill markers"
         id="path1270" />
      <path
         d="m 169.88335,88.502655 h -2.38334 v -6.220394 l -1.72199,4.036705 h -1.65337 l -1.72199,-4.036705 v 6.220394 h -2.25856 v -9.290037 h 2.78264 l 2.09011,4.660616 2.08386,-4.660616 h 2.78264 z"
         style="font-style:normal;font-variant:normal;font-weight:bold;font-stretch:normal;font-family:sans-serif;-inkscape-font-specification:'sans-serif Bold';fill:#ffffff;fill-opacity:1;stroke:none;stroke-width:2;stroke-linecap:round;stroke-linejoin:round;stroke-miterlimit:4;stroke-dasharray:none;stroke-opacity:1;paint-order:stroke fill markers"
         id="path1272" />
      <path
         d="m 178.43833,88.502655 h -6.71952 v -9.290037 h 6.71952 v 1.796864 h -4.33618 v 1.603452 h 4.02422 v 1.796864 h -4.02422 v 2.295993 h 4.33618 z"
         style="font-style:normal;font-variant:normal;font-weight:bold;font-stretch:normal;font-family:sans-serif;-inkscape-font-specification:'sans-serif Bold';fill:#ffffff;fill-opacity:1;stroke:none;stroke-width:2;stroke-linecap:round;stroke-linejoin:round;stroke-miterlimit:4;stroke-dasharray:none;stroke-opacity:1;paint-order:stroke fill markers"
         id="path1274" />
    </g>
  </g>
</svg>
