<?xml version="1.0" encoding="UTF-8" standalone="no"?>
<svg
   xmlns:dc="http://purl.org/dc/elements/1.1/"
   xmlns:cc="http://creativecommons.org/ns#"
   xmlns:rdf="http://www.w3.org/1999/02/22-rdf-syntax-ns#"
   xmlns:svg="http://www.w3.org/2000/svg"
   xmlns="http://www.w3.org/2000/svg"
   xmlns:sodipodi="http://sodipodi.sourceforge.net/DTD/sodipodi-0.dtd"
   xmlns:inkscape="http://www.inkscape.org/namespaces/inkscape"
   version="1.1"
   id="svg885"
   width="3018"
   height="1640"
   viewBox="0 0 3018 1640"
   sodipodi:docname="swccgpc2_bw.svg"
   inkscape:version="1.0.1 (c497b03c, 2020-09-10)"
   inkscape:export-filename="/Users/devon/code/playerscommittee.org/assets/images/new_pc_logo.png"
   inkscape:export-xdpi="300"
   inkscape:export-ydpi="300">
  <metadata
     id="metadata891">
    <rdf:RDF>
      <cc:Work
         rdf:about="">
        <dc:format>image/svg+xml</dc:format>
        <dc:type
           rdf:resource="http://purl.org/dc/dcmitype/StillImage" />
        <dc:title></dc:title>
      </cc:Work>
    </rdf:RDF>
  </metadata>
  <defs
     id="defs889" />
  <sodipodi:namedview
     pagecolor="#ffffff"
     bordercolor="#666666"
     borderopacity="1"
     objecttolerance="10"
     gridtolerance="10"
     guidetolerance="10"
     inkscape:pageopacity="0"
     inkscape:pageshadow="2"
     inkscape:window-width="1440"
     inkscape:window-height="847"
     id="namedview887"
     showgrid="false"
     fit-margin-top="0"
     fit-margin-left="0"
     fit-margin-right="0"
     fit-margin-bottom="0"
     inkscape:zoom="0.18580908"
     inkscape:cx="1509.5"
     inkscape:cy="831"
     inkscape:window-x="0"
     inkscape:window-y="25"
     inkscape:window-maximized="0"
     inkscape:current-layer="g893" />
  <g
     inkscape:groupmode="layer"
     inkscape:label="Image"
     id="g893"
     transform="translate(-203,-350)">
    <rect
       style="fill:#ffffff;stroke:#000000;stroke-width:0;stroke-linecap:round;stroke-linejoin:round"
       id="rect899"
       width="3018"
       height="1640"
       x="203"
       y="350" />
    <path
       style="fill:#000000"
       d="M 203,1170 V 350 h 1509 1509 v 820 820 H 1712 203 Z m 2971,0.5 V 395 H 1712 250 v 775.5 775.5 h 1462 1462 z m -2410.63837,700 c -0.40976,-1.0678 -2.07715,-1.5 -5.78712,-1.5 -2.86633,0 -7.43068,-0.6375 -10.14301,-1.4166 -2.71232,-0.7792 -7.2935,-1.7213 -10.18038,-2.0937 -2.88689,-0.3724 -5.50095,-1.0849 -5.80902,-1.5834 -0.30807,-0.4985 -1.371,-0.9063 -2.36207,-0.9063 -1.87498,0 -14.36358,-3.8266 -19.58003,-5.9994 -1.65,-0.6873 -3.9,-1.599 -5,-2.026 -3.67132,-1.4251 -18.96046,-9.0949 -22,-11.0364 -1.65,-1.0539 -3.675,-2.2223 -4.5,-2.5965 -2.57935,-1.1697 -15.17318,-11.1676 -20.453,-16.237 -7.783,-7.4727 -11.75058,-12.0339 -16.59506,-19.0779 -2.44857,-3.5603 -4.90194,-6.9715 -5.45194,-7.5806 -1.00097,-1.1085 -9.62082,-18.2975 -12.00842,-23.9462 -2.05451,-4.8607 -4.28819,-11.7427 -5.03078,-15.5 -0.38046,-1.925 -1.04253,-3.95 -1.47126,-4.5 -0.42873,-0.55 -1.25653,-3.925 -1.83954,-7.5 -0.58302,-3.575 -1.59514,-9.425 -2.24917,-13 -1.46979,-8.0341 -1.53962,-58.373 -0.0909,-65.5 0.55901,-2.75 1.52292,-7.925 2.14201,-11.5 0.61909,-3.575 1.7449,-8.3 2.5018,-10.5 0.7569,-2.2 2.37421,-7.2729 3.59402,-11.2731 1.21982,-4.0002 2.60808,-7.5142 3.08503,-7.809 0.47695,-0.2948 0.86718,-1.1272 0.86718,-1.8498 0,-3.4266 8.40328,-18.6313 16.25639,-29.4138 13.26311,-18.2107 32.33551,-33.9485 53.36048,-44.0311 4.88572,-2.343 10.1571,-4.9042 11.71417,-5.6916 1.55707,-0.7874 3.60856,-1.4316 4.55887,-1.4316 0.95031,0 2.60134,-0.6607 3.66896,-1.4682 1.06762,-0.8075 2.98321,-1.4825 4.25687,-1.5 1.27366,-0.017 3.2667,-0.5407 4.42897,-1.1628 2.12745,-1.1385 8.33605,-2.7029 21.25529,-5.3557 6.51298,-1.3374 11.0964,-1.9875 32,-4.5393 24.73066,-3.0189 62.60607,-0.083 95.07103,7.3703 3.33907,0.7666 7.02198,1.9027 8.18426,2.5247 1.16227,0.6221 3.15531,1.1453 4.42897,1.1628 1.27366,0.017 3.18925,0.6925 4.25687,1.5 1.06762,0.8075 2.79819,1.4682 3.84571,1.4682 1.04752,0 3.09901,0.615 4.55887,1.3666 1.45986,0.7517 6.92929,3.4506 12.15429,5.9976 8.15786,3.9767 24.45928,13.7228 26,15.5446 0.275,0.3252 3.41693,3.0662 6.98206,6.0912 3.56514,3.025 7.67977,6.85 9.14363,8.5 1.46386,1.65 3.72193,4.1662 5.01794,5.5914 12.08412,13.2897 23.29033,33.5149 28.78178,51.9461 1.22287,4.1044 2.62946,8.5875 3.12576,9.9625 0.49629,1.375 1.38372,5.6143 1.97205,9.4207 0.58832,3.8063 1.32407,7.3322 1.63499,7.8353 2.31758,3.7499 1.94126,60.3202 -0.47062,70.744 -0.57266,2.475 -1.80213,7.875 -2.73214,12 -4.8271,21.4103 -13.58065,40.2446 -27.22639,58.5808 -6.31621,8.4873 -20.03783,22.0215 -27.28905,26.9164 -2.44201,1.6484 -4.66501,3.246 -4.94001,3.5501 -0.76711,0.8484 -11.01885,6.9943 -13.39459,8.03 -1.15798,0.5049 -2.89291,1.369 -3.85541,1.9203 -0.9625,0.5513 -2.5375,1.4553 -3.5,2.0088 -0.9625,0.5535 -2.425,1.2714 -3.25,1.5954 -0.825,0.324 -3.75,1.4702 -6.5,2.5472 -2.75,1.077 -5.9,2.3497 -7,2.8282 -3.50287,1.5239 -15.76971,5.0228 -17.60939,5.0228 -0.97492,0 -2.02464,0.4078 -2.33271,0.9063 -0.30807,0.4985 -2.92213,1.211 -5.80902,1.5834 -2.88688,0.3724 -7.46806,1.3145 -10.18038,2.0937 -2.71233,0.7791 -7.27668,1.4166 -10.14301,1.4166 -3.70997,0 -5.37736,0.4322 -5.78712,1.5 -0.49751,1.2965 -5.67173,1.5 -38.13837,1.5 -32.46664,0 -37.64086,-0.2035 -38.13837,-1.5 z M 825.5,1777.5722 c 3.85,-0.8955 7.9,-1.9971 9,-2.4479 15.41311,-6.3164 26.06686,-15.9519 31.167,-28.188 4.9173,-11.7974 6.75528,-23.7105 6.77861,-43.9363 0.0203,-17.5772 -1.30362,-27.0892 -4.94093,-35.5 -0.71356,-1.65 -2.29888,-5.8125 -3.52295,-9.25 -1.22407,-3.4375 -2.57193,-6.25 -2.99525,-6.25 -0.42331,0 -1.05777,-1.1479 -1.4099,-2.5509 -0.8878,-3.5373 -11.13893,-13.7022 -16.57658,-16.4372 -2.475,-1.2448 -5.29499,-2.6653 -6.26664,-3.1565 -0.97165,-0.4912 -4.79665,-1.6485 -8.5,-2.5718 -9.31118,-2.3213 -42.98015,-2.3554 -51.73336,-0.052 -9.37375,2.4663 -17.72542,7.1127 -24.97599,13.8952 -5.40236,5.0537 -7.49976,7.9775 -11.09299,15.4642 -2.43706,5.0777 -4.43102,10.1171 -4.43102,11.1986 0,1.0816 -0.76783,3.709 -1.7063,5.8387 -2.55536,5.7989 -2.56949,50.0135 -0.0178,55.7442 0.94826,2.1297 1.72411,4.7019 1.72411,5.7161 0,5.1524 9.78502,23.5906 15.57952,29.357 8.17019,8.1304 15.47224,11.2307 34.42048,14.614 7.08133,1.2644 31.64748,0.3396 39.5,-1.487 z M 448,1865.0581 c -3.025,-0.4374 -9.325,-1.3169 -14,-1.9544 -4.675,-0.6376 -9.80465,-1.5967 -11.39922,-2.1314 -1.59458,-0.5348 -3.90881,-0.9723 -5.14276,-0.9723 -2.95547,0 -25.25121,-7.3932 -26.71743,-8.8594 -0.62733,-0.6273 -1.65481,-1.1406 -2.28331,-1.1406 -0.62849,0 -3.12599,-1.1192 -5.55,-2.4871 -2.424,-1.3679 -5.08228,-2.8015 -5.90728,-3.1858 -7.06785,-3.2926 -30.34906,-18.4731 -36.01761,-23.4852 -0.83468,-0.7381 -3.53468,-2.8949 -6,-4.7931 -11.612,-8.9405 -22.82801,-22.4421 -33.68474,-40.5488 -1.78575,-2.9783 -5.99304,-12.0508 -9.27477,-20 -5.48208,-13.279 -10.0087,-40.7768 -9.95936,-60.5 0.0386,-15.4435 3.4756,-40.5322 6.54603,-47.7839 0.76475,-1.8062 1.39322,-4.0562 1.39661,-5 0.003,-0.9439 0.67839,-3.005 1.5,-4.5804 0.82161,-1.5754 1.49384,-3.4202 1.49384,-4.0996 0,-1.2565 7.43866,-16.1668 11.2431,-22.5361 4.23092,-7.0833 15.80981,-21.6727 21.94472,-27.6504 5.30524,-5.1693 19.48432,-16.4868 26.43183,-21.0975 1.03419,-0.6863 4.98077,-3.3089 8.77017,-5.8279 3.78939,-2.519 7.83939,-5.0146 9,-5.5457 1.1606,-0.5311 4.81018,-2.5116 8.11018,-4.4012 3.3,-1.8896 6.675,-3.7242 7.5,-4.0769 0.825,-0.3528 3.525,-1.5277 6,-2.611 7.04263,-3.0824 8.15553,-3.5046 13.82052,-5.2432 6.30718,-1.9358 12.48033,-3.3223 20.67948,-4.6448 3.3,-0.5322 9.15,-1.5153 13,-2.1846 9.32238,-1.6205 50.45526,-1.5933 61.5,0.041 15.76203,2.332 20.47394,3.1179 27.5,4.5868 9.62792,2.0129 15.43246,3.6062 19.15113,5.2569 1.73312,0.7694 3.68869,1.3988 4.34571,1.3988 0.65702,0 2.38901,0.6402 3.84887,1.4227 1.45986,0.7825 4.67929,2.3869 7.15429,3.5655 2.475,1.1786 5.85,3.0084 7.5,4.0663 1.65,1.0579 3.675,2.238 4.5,2.6225 5.29298,2.4665 31.86023,23.1887 31.94582,24.9174 0.0567,1.1452 -4.96101,7.1412 -17.91296,21.4056 -4.24486,4.675 -11.92257,13.225 -17.06159,19 -5.13901,5.775 -13.1409,14.6424 -17.78196,19.7052 -4.64107,5.0629 -9.0828,10.1254 -9.87051,11.25 -1.81072,2.5852 -5.4804,2.6287 -7.77588,0.092 -2.38606,-2.6365 -14.74796,-11.1112 -21.63273,-14.8302 -6.65199,-3.5932 -15.80367,-6.2071 -25.41019,-7.2575 -3.85,-0.4209 -9.80705,-1.2779 -13.23788,-1.9043 -4.70513,-0.8591 -7.28516,-0.8529 -10.5,0.025 -2.34417,0.6405 -6.73712,1.5266 -9.76212,1.9691 -6.1407,0.8984 -14.2722,3.013 -20.89395,5.4334 -10.8767,3.9756 -28.15435,18.5372 -32.98142,27.7967 -1.20998,2.321 -2.58851,4.895 -3.0634,5.72 -2.09993,3.6481 -7.06123,25.6702 -7.06123,31.3433 0,4.1767 2.89604,19.3096 5.02949,26.281 4.43452,14.4906 17.03015,28.704 32.97051,37.2052 6.30526,3.3626 20.17488,7.1592 33,9.0331 5.8529,0.8552 10.24516,0.7786 20,-0.3489 23.7516,-2.7453 32.391,-6.4296 53.38725,-22.7671 4.22603,-3.2883 4.33114,-3.2765 8.38849,0.9398 4.3842,4.5559 19.20142,20.8808 24.79108,27.3136 2.15062,2.475 8.64039,9.696 14.4217,16.0467 18.851,20.7076 21.93835,24.4248 21.97517,26.4586 0.0241,1.3335 -2.85131,4.3491 -8.58161,9 -4.73985,3.8471 -9.12735,7.4656 -9.75,8.0411 -2.51795,2.3273 -17.12794,11.4536 -18.33578,11.4536 -0.71297,0 -1.2963,0.3401 -1.2963,0.7559 0,0.4157 -2.3625,1.7875 -5.25,3.0485 -2.8875,1.261 -6.0351,2.7232 -6.99467,3.2493 -0.95956,0.5261 -4.78456,1.8963 -8.5,3.0449 -3.71543,1.1485 -8.55533,2.7059 -10.75533,3.4608 -4.4743,1.5353 -11.87663,2.8881 -24.5,4.4774 -4.675,0.5887 -10.75,1.5234 -13.5,2.0773 -6.42722,1.2945 -43.308,1.9839 -50.5,0.944 z m 555.607,-0.6399 c -0.9318,-2.4282 -0.6901,-328.739 0.2446,-330.2124 0.6555,-1.0332 11.6772,-1.2889 54.6664,-1.2683 29.615,0.014 54.1853,0.3716 54.6007,0.7942 0.4154,0.4226 3.2034,5.4933 6.1956,11.2683 6.3297,12.2167 12.1494,23.2323 16.3778,31 1.6466,3.025 6.7389,12.7 11.3162,21.5 4.5772,8.8 10.4295,19.8792 13.0051,24.6205 2.5755,4.7413 5.6827,10.5913 6.9047,13 11.0161,21.7131 16.8479,32.3445 17.6404,32.1586 0.5178,-0.1214 4.1418,-6.4214 8.0533,-14 3.9116,-7.5785 9.3601,-18.0541 12.1079,-23.2791 9.6685,-18.3849 17.6445,-33.6072 23.0544,-44 9.9389,-19.093 18.5488,-35.4161 21.89,-41.5 1.8123,-3.3 3.7266,-6.9688 4.2538,-8.1529 0.5273,-1.184 1.4121,-2.433 1.9662,-2.7754 1.0733,-0.6634 108.0565,-0.9644 108.715,-0.3059 0.6272,0.6272 0.4815,330.7948 -0.1464,331.8108 -0.6288,1.0174 -105.2445,1.3243 -107.8709,0.3164 -1.4197,-0.5448 -1.5818,-7.2045 -1.5818,-65 0,-35.4161 -0.3393,-64.393 -0.754,-64.393 -0.4147,0 -4.7175,7.9875 -9.5618,17.75 -4.8443,9.7625 -19.4904,38.9 -32.5469,64.75 l -23.7391,47 -3.4491,0.261 c -1.897,0.1435 -3.917,-0.082 -4.489,-0.5 -0.8743,-0.6399 -39.1913,-76.028 -46.2274,-90.9519 -1.2471,-2.645 -2.6786,-5.4841 -3.1813,-6.3091 -0.5026,-0.825 -4.3496,-8.4077 -8.5488,-16.8505 -4.1992,-8.4427 -7.8903,-15.0951 -8.2024,-14.783 -0.3121,0.3121 -0.4795,28.6849 -0.372,63.0507 0.1369,43.7757 -0.133,63.097 -0.9016,64.5331 -1.085,2.0273 -1.6849,2.0497 -54.9548,2.0497 -48.1888,0 -53.9217,-0.1665 -54.4648,-1.5818 z m 379.0597,0.9151 c -1.0952,-1.0951 -0.7983,-331.134 0.2985,-331.8118 1.456,-0.8999 108.2584,-0.7093 109.076,0.1946 0.39,0.4311 4.4357,7.9839 8.9905,16.7839 4.5548,8.8 10.3817,19.825 12.9486,24.5 2.567,4.675 5.6811,10.525 6.9202,13 1.2392,2.475 3.9257,7.65 5.9702,11.5 2.0444,3.85 7.5026,14.2 12.1293,23 4.6267,8.8 10.0883,19.15 12.1369,23 2.0486,3.85 5.0674,9.7 6.7084,13 1.641,3.3 3.6672,6.9 4.5027,8 1.4558,1.9168 1.6257,1.7711 4.0833,-3.5 1.4103,-3.025 5.4437,-10.9 8.9631,-17.5 3.5194,-6.6 8.2432,-15.6 10.4975,-20 2.2542,-4.4 7.9012,-15.2 12.5488,-24 4.6477,-8.8 10.3241,-19.6 12.6143,-24 2.2902,-4.4 7.5843,-14.525 11.7647,-22.5 4.1804,-7.975 8.4531,-16.1875 9.495,-18.25 1.3021,-2.5776 2.565,-3.7507 4.0398,-3.7521 1.18,0 25.4999,-0.024 54.0442,-0.051 28.5443,-0.027 52.2831,0.3352 52.753,0.8051 0.4698,0.4698 0.7404,75.3054 0.6013,166.3013 l -0.253,165.447 h -54.5 -54.5 l -0.2573,-64.75 c -0.1498,-37.6996 -0.6347,-64.75 -1.1608,-64.75 -0.4969,0 -1.8755,2.1375 -3.0635,4.75 -1.1879,2.6125 -2.5406,5.425 -3.006,6.25 -0.4653,0.825 -11.2633,22.2 -23.9954,47.5 -12.7322,25.3 -23.5378,46.675 -24.0124,47.5 -0.4747,0.825 -1.8171,3.525 -2.9831,6 -1.166,2.475 -2.5041,5.175 -2.9737,6 -0.4695,0.825 -1.9338,3.75 -3.2538,6.5 -2.2543,4.6964 -2.6528,5.0186 -6.5628,5.3058 l -4.1628,0.3059 -9.2842,-18.5815 C 1513.4556,1774.8221 1493.6429,1736 1492.8653,1736 c -0.5328,0 -0.8803,26.3793 -0.8433,64.0268 0.035,35.2148 -0.2078,64.4648 -0.5386,65 -0.6802,1.1007 -107.721,1.4022 -108.8167,0.3065 z m 379.0085,0.01 c -1.1101,-1.1101 -0.8115,-331.1396 0.3002,-331.8267 1.5012,-0.9278 107.2745,-0.6653 108.2084,0.2686 0.4522,0.4522 0.7083,75.2733 0.5692,166.2692 l -0.253,165.447 -54.0748,0.2585 c -29.7411,0.1422 -54.3786,-0.045 -54.75,-0.4166 z m 218.7905,-0.5919 c -0.2593,-0.6875 -0.5826,-52.775 -0.7186,-115.75 l -0.2471,-114.5 -51.4086,-0.2592 c -35.9364,-0.1811 -51.8123,-0.5942 -52.75,-1.3724 -1.0883,-0.9032 -1.3385,-10.1952 -1.3261,-49.2408 0.01,-26.4702 0.3738,-48.6923 0.812,-49.3825 0.6363,-1.0021 64.3123,-1.2557 316.1755,-1.2592 173.4583,0 315.7472,0.3641 316.1975,0.8144 0.4503,0.4503 0.702,23.067 0.5592,50.2592 l -0.2595,49.4405 -52.2752,0.5 -52.2752,0.5 0.037,114.6174 c 0.031,96.0787 -0.185,114.802 -1.3379,115.7588 -1.0014,0.8311 -15.8908,1.0711 -54.7622,0.8826 L 2293.5,1865.5 2293,1750 l -0.5,-115.5 h -101.2751 -101.2751 l 0.037,114.3826 c 0.028,83.8938 -0.265,114.7471 -1.0974,115.75 -1.602,1.9303 -107.697,2.0452 -108.4242,0.1174 z m 536.7843,0.5894 c -0.9929,-0.402 -1.25,-34.5142 -1.25,-165.8637 0,-99.7625 0.3655,-165.5836 0.9215,-165.9272 1.2156,-0.7513 283.9248,-0.7615 285.1404,-0.01 1.0308,0.6371 1.3509,96.2224 0.3311,98.88 -0.5471,1.4257 -9.2335,1.5818 -88.0231,1.5818 h -87.416 l 0.273,17.75 0.2731,17.75 55.9462,0.2585 c 43.2322,0.1997 56.1254,0.5406 56.7347,1.5 1.1463,1.8049 1.0036,53.1259 -0.1561,56.1764 l -0.9753,2.5651 h -56.0484 -56.0483 l 0.2736,17.25 0.2736,17.25 99.5,0.5 99.5,0.5 v 50 50 l -154,0.1727 c -84.7,0.095 -154.5625,-0.055 -155.25,-0.3333 z m 313.2646,-0.3158 c -0.9961,-1.6117 -1.7651,-329.3928 -0.776,-330.7872 0.7149,-1.008 29.5732,-1.2637 142.6514,-1.2642 77.9653,-3e-4 142.1725,0.2574 142.6826,0.5726 1.0208,0.631 1.3307,96.2407 0.3204,98.8734 -0.5471,1.4257 -9.2335,1.5818 -88.0231,1.5818 h -87.416 l 0.273,17.75 0.2731,17.75 55.9262,0.2261 c 44.0137,0.178 56.0985,0.4975 56.7347,1.5 1.2201,1.9224 1.0385,54.5327 -0.1961,56.8396 -1.0045,1.877 -2.6929,1.9343 -57.0236,1.9343 h -55.9884 l 0.2736,17.25 0.2736,17.25 100.75,0.2548 100.75,0.2548 v 50.4952 50.4952 h -155.441 c -100.0452,0 -155.656,-0.348 -156.0444,-0.9764 z M 2446.326,1492.359 c -2.1043,-2.1749 -9.4053,-9.7826 -16.2244,-16.906 -6.8191,-7.1234 -18.2941,-19.0405 -25.5,-26.4824 -7.2059,-7.442 -18.5016,-19.1597 -25.1016,-26.0393 -22.5385,-23.4934 -30.7641,-31.9299 -31.1321,-31.9299 -0.2023,0 -0.3679,23.4 -0.3679,52 v 52 h -218 -218 v -101.941 c 0,-56.0675 0.3375,-102.1488 0.75,-102.4028 0.4125,-0.254 0.3566,-6.2431 -0.1243,-13.309 -0.4809,-7.066 -0.9309,-27.5847 -1,-45.5972 -0.069,-18.0126 -0.3507,-32.7492 -0.6257,-32.7481 -0.275,0 -2.075,2.3465 -4,5.212 -3.4485,5.1334 -11.7912,16.6091 -14.5743,20.0475 -0.7841,0.9688 -1.4257,1.9995 -1.4257,2.2905 0,0.5499 -4.084,6.5712 -5.0518,7.4481 -0.3034,0.275 -1.9041,2.525 -3.5571,5 -1.6529,2.475 -4.6607,6.8488 -6.684,9.7195 -8.3469,11.8431 -12.7071,18.456 -12.7071,19.2723 0,0.4759 -0.6698,1.5352 -1.4885,2.3539 -0.8187,0.8186 -3.2852,4.1133 -5.4812,7.3214 -2.196,3.2081 -6.1386,8.9166 -8.7615,12.6856 -2.6228,3.769 -5.4438,7.8975 -6.2688,9.1745 -3.0992,4.797 -21.5407,31.6849 -22.5,32.8051 -0.55,0.6422 -2.3487,3.1927 -3.9972,5.6677 -1.6484,2.475 -3.2408,4.725 -3.5386,5 -0.2979,0.275 -2.9568,4.1 -5.9087,8.5 -2.952,4.4 -6.6471,9.6398 -8.2114,11.6439 -1.5642,2.0042 -2.8441,3.8967 -2.8441,4.2056 0,0.3089 -1.125,2.2195 -2.5,4.2456 l -2.5,3.684 v 59.8604 59.8605 h -55.5 -55.5 v -60.25 -60.25 l -4.1891,-6 c -2.304,-3.3 -6.0526,-8.7 -8.3302,-12 -2.2776,-3.3 -6.5002,-9.375 -9.3834,-13.5 -2.8832,-4.125 -7.7965,-11.2581 -10.9185,-15.8513 -3.1219,-4.5932 -7.731,-11.1407 -10.2424,-14.5498 -2.5114,-3.4092 -4.8692,-6.8511 -5.2395,-7.6487 -0.3703,-0.7976 -2.9619,-4.6002 -5.7589,-8.4502 -2.7971,-3.85 -6.2481,-8.8 -7.669,-11 -1.4209,-2.2 -3.9746,-5.8609 -5.6749,-8.1352 -1.7003,-2.2744 -3.7665,-5.1478 -4.5915,-6.3853 -0.825,-1.2374 -3.6335,-4.7766 -6.2411,-7.8647 -2.6076,-3.0881 -4.7451,-5.9844 -4.75,-6.4362 0,-0.4518 -0.5714,-1.4452 -1.2589,-2.2076 -0.6875,-0.7624 -3.95,-5.7135 -7.25,-11.0024 -3.3,-5.2889 -9.7125,-15.2709 -14.25,-22.1822 -4.5375,-6.9113 -8.25,-12.6962 -8.25,-12.8553 0,-0.1592 -2.7,-4.3667 -6,-9.3501 -3.3,-4.9834 -6,-9.2511 -6,-9.4837 0,-0.2327 -3.375,-5.4514 -7.5,-11.5973 -4.125,-6.1459 -7.5,-11.8101 -7.5,-12.5871 0,-1.2028 9.7307,-1.4129 65.4326,-1.4129 h 65.4326 l 0.7009,2.25 c 0.3855,1.2375 1.8783,3.8268 3.3174,5.7539 1.4391,1.9272 3.0665,4.2466 3.6165,5.1543 0.55,0.9076 10.45,15.7393 22,32.9594 11.55,17.22 21.45,32.0438 22,32.9418 3.7961,6.1979 14.0242,20.9406 14.5281,20.9406 0.3386,0 3.9222,-5.0625 7.9635,-11.25 4.0414,-6.1875 14.4854,-22.05 23.209,-35.25 8.7236,-13.2 16.3069,-24.675 16.8518,-25.5 0.5449,-0.825 4.5727,-6.9 8.9507,-13.5 4.3779,-6.6 7.9682,-12.5636 7.9784,-13.2525 0.015,-0.9998 40.2997,-1.2015 199.7685,-1 l 199.75,0.2525 0.2596,48.2977 c 0.1729,32.1568 -0.09,48.9502 -0.7852,50.25 -1.024,1.9134 -2.7773,1.9523 -88.0327,1.9523 h -86.9878 l 0.273,17.567 0.2731,17.567 54.5161,-0.098 c 43.5229,-0.078 54.8777,0.1662 56.3098,1.2133 1.6547,1.2099 1.787,3.4759 1.7059,29.2127 -0.059,18.8164 -0.4486,28.3356 -1.1956,29.2357 -0.9001,1.0845 -11.4396,1.3254 -56.222,1.2854 l -55.1142,-0.049 v 17.0572 17.0572 l 100,-0.019 c 55,-0.01 100.3375,-0.021 100.75,-0.024 0.4125,0 0.75,-51.9802 0.75,-115.5052 v -115.5 h 115.8 c 66.178,0 116.2071,0.3809 116.75,0.889 0.5225,0.4889 3.425,1.3623 6.45,1.9409 5.8371,1.1164 12.8044,3.0973 19.7017,5.6015 4.9928,1.8127 17.5864,7.6536 18.2983,8.4867 0.275,0.3218 1.7364,1.2223 3.2476,2.0012 4.8628,2.5063 18.2294,13.7513 22.8771,19.246 12.4496,14.7186 18.7609,27.4621 20.8424,42.0845 0.4894,3.4376 1.4119,9.8502 2.0501,14.2502 1.9654,13.5502 0.1644,33.779 -3.9173,44 -9.0219,22.5912 -26.5348,40.8441 -49.0999,51.1747 -9.6685,4.4264 -11.8406,5.3253 -12.8672,5.3253 -0.5857,0 -2.5427,0.6219 -4.3489,1.3819 -5.4189,2.2804 -13.1524,4.6273 -15.2839,4.6384 -1.1,0.01 -2.6416,0.4164 -3.4258,0.9127 -1.4453,0.9146 -0.959,1.6031 16.4699,23.317 l 4.6153,5.75 90.6703,-0.01 90.6703,-0.01 4.3994,-2.2396 c 6.7613,-3.4421 7.5177,-5.2461 4.7259,-11.2718 -1.6693,-3.6031 -4.9307,-7.3431 -11.7192,-13.4391 -11.3225,-10.1676 -29.7243,-28.6714 -37.0704,-37.2761 -13.6686,-16.0103 -26.7486,-36.9153 -32.068,-51.2527 -3.1969,-8.6164 -3.9823,-11.3322 -5.929,-20.5 -5.1804,-24.3967 2.3344,-54.3498 18.2524,-72.7516 3.9028,-4.5117 13.7531,-11.9891 18.9089,-14.3535 8.0535,-3.6935 10.9878,-4.802 14.4103,-5.4441 1.9865,-0.3726 3.8584,-1.0765 4.1598,-1.5642 0.3133,-0.507 48.9005,-0.8866 113.4889,-0.8866 h 112.941 v 49.3 c 0,37.0111 -0.2991,49.5991 -1.2,50.5 -0.907,0.907 -16.021,1.2 -61.8947,1.2 -57.7229,0 -61.0094,0.097 -67.1233,1.9856 -12.1068,3.7394 -11.4682,9.7933 2.3823,22.5835 16.0072,14.7818 41.3503,41.1491 47.5108,49.4309 7.1982,9.6768 17.3249,26.005 17.3249,27.9345 0,0.586 0.45,1.0655 1,1.0655 0.55,0 1,0.4945 1,1.0989 0,0.6043 0.6469,2.5168 1.4375,4.25 4.5907,10.063 7.2154,18.1073 8.5326,26.1511 0.4503,2.75 1.3574,7.925 2.0158,11.5 1.2332,6.6963 0.8453,15.7827 -1.0748,25.1729 -1.3904,6.8003 -4.845,18.1393 -5.7311,18.8113 -0.374,0.2837 -1.7618,2.5915 -3.0841,5.1284 -3.3706,6.4671 -12.0077,15.4335 -20.6479,21.4351 -5.2747,3.664 -20.4157,10.4093 -27.948,12.451 -2.7444,0.7438 -52.2396,1.2771 -157.674,1.6987 l -153.6739,0.6146 -3.8261,-3.9544 z m -8.2031,-187.357 c 10.2411,-4.6781 11.9343,-8.2098 11.9861,-25.0006 0.032,-10.4203 -0.2961,-13.2492 -1.9728,-17.0031 -2.3459,-5.2521 -6.0094,-8.9796 -11.7138,-11.9184 -3.9778,-2.0493 -5.1041,-2.0943 -46,-1.8396 l -41.9224,0.2611 -0.2653,28.75 -0.2654,28.75 h 42.8882 c 40.7582,0 43.1057,-0.099 47.2654,-1.9994 z M 586,1329.5 V 1164 h 114.94098 c 63.91515,0 115.17919,0.3854 115.47756,0.8682 0.29511,0.4775 2.90917,1.1713 5.80902,1.5418 2.89984,0.3705 7.07244,1.2824 9.27244,2.0264 2.2,0.744 6.7,2.1676 10,3.1636 3.3,0.9959 6.4275,2.1684 6.95,2.6054 0.5225,0.437 2.18344,0.7946 3.69098,0.7946 1.50754,0 3.00767,0.4315 3.33362,0.9589 0.32595,0.5274 4.29001,3.385 8.80902,6.3501 15.94562,10.4629 35.12609,31.9864 41.20803,46.242 4.34195,10.1772 7.50835,25.8702 7.50835,37.2122 0,5.3285 0.49603,10.0582 1.16765,11.1336 2.02212,3.238 -0.39841,21.4774 -5.3884,40.6032 -2.80966,10.7689 -10.41726,21.9914 -23.45483,34.5997 -15.46011,14.9512 -32.25839,24.7936 -51.82442,30.3649 -3.3,0.9396 -8.025,2.4373 -10.5,3.3281 -3.86614,1.3915 -12.28732,1.6962 -59.78507,2.1634 l -55.28508,0.5439 0.0518,53.25 0.0518,53.25 h -61.0167 -61.0167 v -165.5 z m 210.71607,-24.1213 c 2.08116,-0.8918 4.45893,-1.9462 5.28393,-2.3433 0.825,-0.397 2.85,-2.7049 4.5,-5.1286 2.97719,-4.3733 2.99954,-4.5094 2.9401,-17.9068 -0.0756,-17.0322 -1.74567,-21.2607 -10.9401,-27.699 l -4,-2.801 -43.25,-0.2901 c -23.7875,-0.1595 -43.25477,0.065 -43.2606,0.5 -0.0278,2.0717 -0.0469,55.885 -0.0201,56.5401 0.0169,0.4125 19.14044,0.75 42.49678,0.75 36.93753,0 42.9587,-0.2111 46.25,-1.6213 z M 929,1404.6652 c 0,-49.6842 -0.29901,-124.1592 -0.66447,-165.5 L 927.67107,1164 h 56.16028 56.16025 l 0.2542,115.5428 0.2542,115.5429 87.7133,-0.064 87.7133,-0.064 1.6311,2.4894 c 1.3643,2.0821 1.5748,4.867 1.2867,17.0215 -0.1894,7.9927 -0.2431,14.5319 -0.1194,14.5314 0.4944,0 4.2764,-8.9773 4.2961,-10.1958 0.012,-0.7177 1.1722,-4.4549 2.579,-8.3049 1.4069,-3.85 2.9253,-8.35 3.3742,-10 1.6253,-5.9732 10.2578,-32.0764 11.6248,-35.1511 0.7705,-1.7332 1.4104,-3.7582 1.422,-4.5 0.012,-0.7419 1.1722,-4.4989 2.579,-8.3489 1.4069,-3.85 2.9403,-8.35 3.4077,-10 1.5606,-5.5097 3.98,-12.978 4.8594,-15 0.4784,-1.1 3.2232,-9.425 6.0995,-18.5 2.8764,-9.075 5.5999,-17.4 6.0522,-18.5 0.4524,-1.1 1.8328,-5.15 3.0675,-9 1.2348,-3.85 2.7972,-8.35 3.4721,-10 1.261,-3.0831 3.1733,-9.9102 4.1225,-14.7178 0.2951,-1.4948 1.1626,-3.2374 1.9278,-3.8725 0.7652,-0.635 1.3912,-1.9423 1.3912,-2.905 0,-0.9628 0.9291,-3.9452 2.0646,-6.6276 2.7261,-6.4397 3.2667,-7.8014 5.9058,-14.8771 1.2308,-3.3 2.8313,-7.35 3.5566,-9 0.7253,-1.65 1.6283,-4.2418 2.0067,-5.7594 0.3783,-1.5177 1.088,-3.0068 1.5771,-3.3091 0.4891,-0.3022 0.8892,-1.3865 0.8892,-2.4095 0,-1.0229 0.6392,-3.1339 1.4204,-4.691 0.7812,-1.557 2.1312,-4.7435 3,-7.081 0.8688,-2.3375 2.2904,-6.1625 3.1592,-8.5 0.8688,-2.3375 2.2188,-5.524 3,-7.081 0.7812,-1.5571 1.4232,-3.3571 1.4266,-4 0,-0.643 0.6359,-2.3762 1.4057,-3.8516 0.7698,-1.4755 1.7028,-4.063 2.0733,-5.75 l 0.6737,-3.0674 h 81.4015 81.4015 l 0.5916,2.75 c 0.3253,1.5125 1.1701,4.325 1.8772,6.25 2.3973,6.526 3.7424,10.4911 4.5801,13.5 0.7861,2.8237 4.67,14.3552 7.0731,21 0.5967,1.65 1.6956,5.025 2.442,7.5 0.7464,2.475 2.9978,9 5.0032,14.5 2.0054,5.5 3.8728,11.125 4.1497,12.5 0.277,1.375 1.1375,3.918 1.9124,5.6511 0.7748,1.7332 1.4088,3.6901 1.4088,4.3489 0,0.6588 0.6011,2.6157 1.3357,4.3489 0.7346,1.7331 3.6787,10.3511 6.5425,19.1511 2.8638,8.8 5.8135,17.575 6.5548,19.5 0.7414,1.925 2.1379,6.2 3.1035,9.5 0.9656,3.3 2.3342,7.35 3.0414,9 0.7072,1.65 2.2975,6.375 3.534,10.5 1.2365,4.125 2.5824,8.175 2.9908,9 0.4084,0.825 1.7485,4.875 2.978,9 1.2295,4.125 2.5298,7.95 2.8897,8.5 0.3598,0.55 1.7231,4.6 3.0296,9 1.3065,4.4 2.6698,8.45 3.0296,9 0.3599,0.55 1.6653,4.375 2.901,8.5 1.2356,4.125 2.8461,9.075 3.5788,11 0.7327,1.925 2.101,5.975 3.0407,9 0.9397,3.025 2.2897,7.075 3,9 0.7103,1.925 2.0603,5.975 3,9 0.9397,3.025 2.2878,7.075 2.9958,9 0.708,1.925 2.2757,6.65 3.4839,10.5 1.2082,3.85 2.5147,7.675 2.9034,8.5 0.3887,0.825 1.7225,4.875 2.9641,9 1.2416,4.125 2.5916,8.175 3,9 0.4084,0.825 1.7543,4.875 2.9908,9 1.2365,4.125 2.8496,8.85 3.5846,10.5 1.3203,2.9637 4.5273,12.8421 4.5273,13.9452 0,0.3132 -28.8604,0.4537 -64.1342,0.3121 l -64.1341,-0.2573 -3.2122,-9.5 c -1.7667,-5.225 -3.9872,-11.525 -4.9343,-14 -0.9472,-2.475 -2.1018,-5.85 -2.5658,-7.5 -0.8617,-3.0636 -2.2933,-7.2681 -4.5967,-13.5 -0.7115,-1.925 -1.8179,-5.2187 -2.4586,-7.3194 -0.6408,-2.1006 -1.992,-4.1256 -3.0027,-4.5 -1.0107,-0.3743 -22.9463,-0.5595 -48.7458,-0.4115 l -46.9081,0.2691 -1.2512,4.2309 c -0.6882,2.327 -1.7294,5.1276 -2.3138,6.2236 -0.5844,1.096 -1.4011,3.346 -1.8147,5 -0.8612,3.4433 -2.62,8.6485 -4.395,13.0073 -1.4184,3.4831 -2.5,6.5799 -6.7235,19.25 l -3.0834,9.25 H 1124.3629 929 v -90.3348 z M 1432,1366.2 c 0,-0.99 -0.3857,-2.2275 -0.857,-2.75 -0.4714,-0.5225 -1.8807,-4.325 -3.1317,-8.45 -1.2511,-4.125 -2.8501,-8.85 -3.5533,-10.5 -0.7033,-1.65 -2.0452,-5.7 -2.982,-9 -0.9367,-3.3 -2.2614,-7.35 -2.9436,-9 -0.6822,-1.65 -2.0547,-5.7 -3.05,-9 -0.9954,-3.3 -2.3326,-7.35 -2.9717,-9 -0.639,-1.65 -2.1761,-6.15 -3.4156,-10 -1.2396,-3.85 -2.6268,-7.9 -3.0828,-9 -0.9885,-2.3845 -3.7811,-10.7947 -4.9808,-15 -0.4707,-1.65 -1.4092,-4.575 -2.0855,-6.5 -0.6763,-1.925 -1.777,-5.075 -2.446,-7 -0.669,-1.925 -1.7866,-5.075 -2.4836,-7 -0.6969,-1.925 -1.4874,-4.9828 -1.7565,-6.7951 -0.274,-1.8453 -0.9888,-3.1323 -1.6246,-2.925 -1.0937,0.3566 -5.2226,10.5712 -6.3542,15.7201 -0.3022,1.375 -0.9836,3.0497 -1.5142,3.7217 -0.5306,0.6719 -1.3313,2.6969 -1.7794,4.5 -0.4481,1.803 -1.7873,5.7533 -2.976,8.7783 -1.1887,3.025 -2.5708,6.85 -3.0714,8.5 -0.5005,1.65 -1.3219,3.9 -1.8254,5 -0.5034,1.1 -2.58,6.725 -4.6147,12.5 -2.0347,5.775 -4.0923,11.4 -4.5726,12.5 -1.4888,3.4098 -4.0637,10.8774 -4.6549,13.5 -0.3099,1.375 -1.173,3.3876 -1.918,4.4725 -0.745,1.0849 -1.3545,2.7571 -1.3545,3.7161 0,0.9589 -0.6296,3.2213 -1.3991,5.0275 -0.7694,1.8061 -2.0626,5.0839 -2.8735,7.2839 -0.811,2.2 -2.4771,6.5939 -3.7025,9.7643 -1.2254,3.1703 -1.9714,6.4328 -1.6578,7.25 0.492,1.2821 6.3997,1.4857 43.1015,1.4857 40.2895,0 42.5314,-0.095 42.5314,-1.8 z M 278,1070.5 V 1024 h 211.5 c 116.325,0 211.5,-0.3401 211.5,-0.7559 0,-1.1415 4.8439,-2.9437 11,-4.0927 9.81677,-1.8323 20.90965,-5.1024 26.33104,-7.7624 1.55707,-0.7639 3.2347,-1.389 3.72807,-1.389 1.44546,0 15.65599,-6.8475 21.2752,-10.25168 24.97601,-15.13078 39.3132,-34.99256 47.46032,-65.74832 2.34231,-8.84235 2.51851,-11.12682 2.54525,-33 0.0226,-18.50877 -0.30717,-24.66816 -1.55279,-29 -0.86983,-3.025 -1.88758,-7.3 -2.26165,-9.5 -0.97634,-5.74196 -5.35602,-19.81573 -8.16432,-26.2354 -0.77843,-1.77947 -2.0197,-4.70447 -2.75837,-6.5 -4.49356,-10.92279 -15.62952,-31.17411 -23.89843,-43.46054 -3.23766,-4.81071 -15.59505,-21.36328 -16.65118,-22.30406 -0.30872,-0.275 -3.24085,-3.875 -6.51583,-8 C 743.98175,746.48341 710.21947,712.68378 694.5,698.8996 676.52832,683.14047 669,673.01547 669,664.60407 c 0,-6.88354 3.6239,-10.39777 15.5,-15.03093 4.73313,-1.84652 8.38109,-1.96949 68.34675,-2.30404 45.21357,-0.25224 63.7275,-0.0374 64.67687,0.75051 0.73157,0.60715 3.21425,7.03861 5.51707,14.29215 2.30281,7.25353 4.77345,14.53824 5.4903,16.18824 0.71685,1.65 1.61664,4.69247 1.99955,6.76105 0.3829,2.06857 1.09517,4.00763 1.58282,4.30901 0.48765,0.30139 0.88664,1.40615 0.88664,2.45503 0,1.04888 0.6348,3.38482 1.41067,5.19098 0.77587,1.80616 3.07187,8.68393 5.10223,15.28393 2.03036,6.6 4.03834,12.68977 4.46218,13.53282 0.42383,0.84306 1.10479,3.09306 1.51324,5 0.40844,1.90695 1.1171,3.9349 1.57479,4.50655 0.45769,0.57165 1.26602,2.82165 1.79629,5 1.07543,4.41784 2.71632,9.31677 4.7712,14.24456 0.75317,1.80616 1.3694,4.21173 1.3694,5.3457 0,1.13398 0.62084,3.25622 1.37964,4.71608 0.7588,1.45986 3.728,10.07929 6.59822,19.15429 2.87023,9.075 5.58317,17.4 6.02876,18.5 1.17308,2.89586 3.97721,11.50513 4.89333,15.02353 0.433,1.66293 1.30765,3.99585 1.94366,5.18425 0.63601,1.18841 1.15639,3.22532 1.15639,4.52648 0,1.30116 0.42419,2.79324 0.94265,3.31574 0.51846,0.5225 1.38787,2.75 1.93202,4.95 1.00385,4.05855 5.26505,17.11379 7.67036,23.5 0.72503,1.925 3.65721,10.925 6.51595,20 2.85875,9.075 5.76339,17.85 6.45477,19.5 0.69137,1.65 2.03246,5.7 2.9802,9 0.94774,3.3 2.31943,7.575 3.0482,9.5 0.72877,1.925 2.32417,6.875 3.54534,11 1.22117,4.125 2.56789,8.175 2.99271,9 0.42483,0.825 3.10029,8.925 5.94548,18 2.84519,9.075 5.73909,18.075 6.43089,20 2.76607,7.69688 3.75281,10.63007 4.54143,13.5 0.4534,1.65 1.31487,4.35 1.91438,6 2.03177,5.592 7.87747,23.9844 8.50375,26.7555 l 0.62276,2.7556 86.18861,-0.2556 86.1886,-0.2555 0.8489,-3.5 c 0.4669,-1.925 1.2294,-5.525 1.6945,-8 0.4651,-2.475 1.2975,-5.625 1.8498,-7 0.5522,-1.375 1.9655,-6.775 3.1407,-12 2.0297,-9.025 2.8037,-12.0231 6.4769,-25.08789 0.8641,-3.07334 1.587,-6.89834 1.6065,-8.5 0.02,-1.60166 0.6786,-4.03711 1.4646,-5.41211 0.786,-1.375 1.4451,-3.58545 1.4646,-4.91211 0.019,-1.32666 0.7424,-4.92666 1.6065,-8 3.4413,-12.23995 4.4061,-15.94194 6.4084,-24.58789 1.1464,-4.95 2.6857,-11.25 3.4207,-14 2.6839,-10.04192 3.8855,-15.06454 4.3062,-18 0.2364,-1.65 0.8522,-3.9 1.3683,-5 0.5161,-1.1 1.3313,-4.025 1.8114,-6.5 1.3371,-6.89178 3.9376,-17.26486 7.5428,-30.08789 0.8641,-3.07334 1.5711,-6.55174 1.5711,-7.72977 0,-1.17802 0.6192,-3.83847 1.376,-5.9121 0.7569,-2.07363 2.6165,-9.08158 4.1326,-15.57323 3.8021,-16.27955 7.4809,-20.37213 8.8738,-9.8719 0.3553,2.6785 0.9768,5.20079 1.3811,5.6051 0.4044,0.40431 1.2581,2.83541 1.8974,5.40245 1.0676,4.28754 2.009,7.4986 5.9127,20.16734 1.3401,4.34875 1.9548,6.39862 6.4475,21.5 1.1453,3.85 2.4859,8.35 2.9789,10 0.493,1.65 1.8336,6.15 2.9789,10 1.1454,3.85 2.6895,9.025 3.4312,11.5 0.7418,2.475 2.5593,8.775 4.0389,14 1.4795,5.225 3.1266,10.30984 3.66,11.29965 0.5335,0.9898 1.3591,3.6898 1.8347,6 0.8211,3.98847 1.2547,5.45299 4.0567,13.70035 0.654,1.925 1.6438,5.525 2.1997,8 0.5558,2.475 1.4132,4.9275 1.9053,5.45 0.492,0.5225 0.8946,2.00735 0.8946,3.29966 0,1.29231 0.6149,3.56481 1.3664,5.05 0.7514,1.48519 1.6822,4.44324 2.0684,6.57345 0.3861,2.13021 1.0905,4.60521 1.5654,5.5 0.4749,0.89479 1.3242,3.42689 1.8873,5.62689 0.5632,2.2 1.7379,6.35758 2.6104,9.23907 3.3988,11.22444 4.784,15.96693 6.2101,21.26093 0.8149,3.025 1.8889,5.9275 2.3868,6.45 0.4979,0.5225 0.9052,1.7879 0.9052,2.8121 0,1.0242 0.7268,4.0842 1.6151,6.8 l 1.6151,4.9379 h 85.8464 85.8463 l 0.887,-3.75 c 0.4878,-2.0625 1.4642,-6 2.1698,-8.75 0.7056,-2.75 1.6445,-6.8 2.0864,-9 0.8989,-4.47545 2.4975,-10.6811 4.5564,-17.6879 0.7576,-2.57834 1.3775,-5.60673 1.3775,-6.72976 0,-1.12303 0.6179,-3.73847 1.373,-5.8121 0.7552,-2.07363 1.8458,-6.02024 2.4236,-8.77024 0.5778,-2.75 1.7314,-7.7 2.5636,-11 0.8322,-3.3 1.9874,-8.025 2.5671,-10.5 0.5797,-2.475 1.773,-7.2 2.6517,-10.5 3.6641,-13.76002 6.5384,-25.27712 7.4871,-30 0.801,-3.98764 1.9116,-8.51922 4.4116,-18 1.2514,-4.74577 1.9794,-7.69954 5.0525,-20.5 0.7263,-3.025 2.0527,-8.425 2.9477,-12 0.8949,-3.575 2.0551,-8.525 2.5782,-11 0.5231,-2.475 1.5947,-6.525 2.3813,-9 0.7866,-2.475 2.1949,-8.1 3.1294,-12.5 0.9345,-4.4 2.3143,-9.69661 3.0662,-11.77024 0.7518,-2.07363 1.367,-4.71323 1.367,-5.86578 0,-1.15256 0.644,-4.18095 1.4311,-6.72977 1.4249,-4.6143 2.2381,-7.7676 5.1923,-20.13421 1.6152,-6.76094 3.4642,-14.27085 6.0323,-24.5 0.8284,-3.3 2.0978,-8.7 2.8207,-12 0.7229,-3.3 1.7607,-7.35 2.3062,-9 0.5455,-1.65 1.7775,-6.6 2.7376,-11 0.9601,-4.4 2.3609,-9.69661 3.1128,-11.77024 0.7518,-2.07363 1.3648,-4.77363 1.3621,-6 0,-1.22637 0.6327,-4.25476 1.4121,-6.72976 1.4522,-4.61159 2.4979,-8.62076 5.2162,-20 1.6492,-6.90332 3.6436,-14.99931 5.9123,-24 0.7625,-3.025 1.8682,-7.75 2.4572,-10.5 0.5889,-2.75 1.7056,-7.25 2.4813,-10 2.7176,-9.63311 3.8463,-14.03317 4.6176,-18 0.4278,-2.2 1.3162,-6.025 1.9742,-8.5 0.6581,-2.475 1.7631,-6.75 2.4556,-9.5 0.6925,-2.75 1.7743,-7.025 2.4041,-9.5 0.6297,-2.475 1.8538,-7.425 2.7202,-11 0.8664,-3.575 2.1943,-8.975 2.9509,-12 0.7565,-3.025 2.0096,-8.2 2.7845,-11.5 3.2788,-13.96266 3.8308,-16.14661 4.8029,-19 0.5621,-1.65 1.4,-5.14738 1.8621,-7.77194 0.4621,-2.62457 1.2767,-6.22457 1.8103,-8 1.2099,-4.02572 2.9788,-10.98237 4.1263,-16.22806 0.4813,-2.2 1.1801,-4.7875 1.553,-5.75 0.6425,-1.65825 -3.7754,-1.75 -84.2689,-1.75 h -84.9469 l -1.1505,3.75 c -0.6327,2.0625 -1.6266,6.225 -2.2085,9.25 -3.1359,16.30078 -3.8888,19.7452 -4.8778,22.3151 -0.5958,1.5483 -1.0833,4.16375 -1.0833,5.8121 0,1.64835 -0.6246,5.10656 -1.3881,7.6849 -1.4167,4.78497 -3.064,12.14308 -4.5195,20.1879 -0.4478,2.475 -1.3068,6.525 -1.909,9 -1.7715,7.2805 -3.2634,14.18582 -4.105,19 -0.4327,2.475 -1.2591,6.525 -1.8365,9 -0.5774,2.475 -2.0324,9 -3.2334,14.5 -1.2009,5.5 -2.8191,12.72875 -3.596,16.06389 -0.7769,3.33514 -1.4125,7.07722 -1.4125,8.31574 0,1.23852 -0.5084,3.20188 -1.1299,4.36303 -0.6214,1.16115 -1.5048,4.61907 -1.9631,7.68426 -1.5123,10.11463 -3.8334,21.06704 -4.8784,23.01973 -0.5658,1.05703 -1.0286,3.15943 -1.0286,4.672 0,1.51258 -0.6241,5.25466 -1.3869,8.31575 -1.9415,7.79171 -4.3498,18.84194 -5.1195,23.49072 -1.0712,6.46937 -3.5487,11.71048 -5.3717,11.36333 -0.892,-0.16989 -1.7636,-1.42928 -1.9367,-2.79867 -0.3672,-2.90332 -3.9648,-14.74312 -5.201,-17.11667 -0.4661,-0.89479 -1.1542,-3.26226 -1.5292,-5.26105 -0.3749,-1.99878 -1.0416,-3.85654 -1.4814,-4.12835 -0.4397,-0.2718 -1.1146,-2.40433 -1.4997,-4.73895 -0.385,-2.33462 -1.0311,-4.69476 -1.4358,-5.24476 -0.4047,-0.55 -1.7574,-4.375 -3.0059,-8.5 -1.2485,-4.125 -2.8422,-9.075 -3.5415,-11 -0.6994,-1.925 -2.0506,-6.2 -3.0027,-9.5 -0.9522,-3.3 -2.3515,-7.47777 -3.1096,-9.28393 C 1295.6203,638.40991 1295,636.28768 1295,635.5 c 0,-0.78768 -0.6246,-2.90991 -1.388,-4.71607 -0.7634,-1.80616 -3.0538,-8.68393 -5.0897,-15.28393 -2.0359,-6.6 -4.287,-13.575 -5.0024,-15.5 -0.7155,-1.925 -2.0709,-6.2 -3.0122,-9.5 -0.9413,-3.3 -2.3406,-7.27397 -3.1096,-8.83104 -0.7689,-1.55707 -1.3981,-3.48377 -1.3981,-4.28154 0,-1.37305 -3.1309,-11.56941 -4.8784,-15.88742 -1.5204,-3.75663 -4.1216,-12.26622 -4.1216,-13.48308 0,-0.66807 -0.6359,-2.63267 -1.413,-4.36579 -0.7772,-1.73312 -2.3758,-6.52613 -3.5526,-10.65113 -1.1768,-4.125 -2.5602,-8.27229 -3.0744,-9.21621 -0.5141,-0.94391 -1.3507,-3.41891 -1.8591,-5.5 -0.8644,-3.53798 -1.4409,-5.31701 -4.6289,-14.28379 -0.6844,-1.925 -1.8803,-5.75 -2.6577,-8.5 l -1.4133,-5 -79.5689,-0.25596 -79.5688,-0.25595 -1.2254,4.75595 c -0.674,2.61578 -1.8477,7.00596 -2.6082,9.75596 -0.7605,2.75 -2.3155,8.375 -3.4555,12.5 -1.14,4.125 -2.704,9.75 -3.4755,12.5 -0.7715,2.75 -2.1112,7.7 -2.977,11 -0.8659,3.3 -2.0607,7.35 -2.6552,9 -0.5945,1.65 -1.4575,4.8 -1.9178,7 -1.1516,5.50355 -3.8744,15.57874 -4.8645,18 -1.0018,2.44966 -2.8711,9.46245 -4.1316,15.5 -0.5167,2.475 -1.3573,5.4 -1.8679,6.5 -0.5106,1.1 -2.0792,6.5 -3.4857,12 -1.4066,5.5 -3.471,13.15 -4.5877,17 -1.1167,3.85 -2.4329,8.8 -2.925,11 -0.4921,2.2 -1.3491,5.35 -1.9044,7 -0.5554,1.65 -1.7145,5.59056 -2.5758,8.7568 -0.8613,3.16625 -2.2284,8.11625 -3.038,11 -0.8096,2.88376 -2.1455,7.7182 -2.9687,10.7432 -0.8232,3.025 -2.4429,8.875 -3.5994,13 -1.1565,4.125 -2.7773,9.975 -3.6019,13 -0.8246,3.025 -2.1515,7.68918 -2.9487,10.36483 -0.7972,2.67566 -1.4494,5.48816 -1.4494,6.25 0,2.32708 -3.8072,1.59384 -4.4905,-0.86483 -0.344,-1.2375 -1.225,-3.825 -1.9579,-5.75 -0.7329,-1.925 -2.1165,-6.2 -3.0748,-9.5 -0.9582,-3.3 -2.3082,-7.575 -3,-9.5 -0.6917,-1.925 -2.0417,-6.2 -3,-9.5 -0.9582,-3.3 -2.2978,-7.575 -2.9768,-9.5 -0.679,-1.925 -2.0186,-6.2 -2.9768,-9.5 -0.9583,-3.3 -2.3309,-7.575 -3.0503,-9.5 -0.7193,-1.925 -2.3085,-6.875 -3.53146,-11 -1.22297,-4.125 -2.83509,-8.91801 -3.5825,-10.65113 C 994.61152,629.61575 994,627.65115 994,626.98308 c 0,-1.438 -2.78465,-10.16263 -4.67082,-14.63421 C 988.59813,610.61575 988,608.68905 988,608.06733 c 0,-1.55739 -3.80639,-13.17268 -5.01511,-15.30376 C 982.4432,591.80853 982,590.4087 982,589.65283 c 0,-0.75587 -1.58255,-6.27448 -3.51677,-12.26357 C 976.54901,571.40017 973.56471,562 971.85146,556.5 c -2.92757,-9.39831 -3.71593,-11.77229 -6.80772,-20.5 -0.68193,-1.925 -1.56696,-5.075 -1.96672,-7 -0.39977,-1.925 -1.25564,-4.48292 -1.90193,-5.68426 C 960.52879,522.1144 960,520.38241 960,519.46687 c 0,-0.91554 -0.61152,-3.08262 -1.35894,-4.81574 -0.74741,-1.73312 -2.35426,-6.52613 -3.57078,-10.65113 -1.21652,-4.125 -2.63,-8.28139 -3.14107,-9.23643 -0.51107,-0.95504 -0.92921,-2.41754 -0.92921,-3.25 0,-1.34637 -22.17675,-1.51467 -200.75,-1.52354 -179.27726,-0.009 -201.92659,0.1621 -211.75,1.59865 -6.05,0.88473 -11.76785,2.00576 -12.70633,2.49116 -0.93847,0.48541 -3.63847,1.18246 -6,1.54902 -2.36152,0.36655 -5.1813,1.27501 -6.26618,2.0188 -1.08487,0.74379 -2.63443,1.35234 -3.44344,1.35234 -1.35474,0 -12.91304,5.44551 -17.58405,8.28445 -8.4817,5.15498 -22.16987,18.49805 -28.02361,27.31709 -4.48579,6.75812 -13.42069,24.28107 -13.46051,26.39846 -0.0155,0.825 -0.70043,2.78894 -1.52204,4.36431 -0.82161,1.57537 -1.49384,3.74245 -1.49384,4.81574 0,1.07329 -0.46285,2.81627 -1.02855,3.8733 -2.60339,4.86447 -4.27029,18.20705 -4.67825,37.44665 -0.42322,19.95891 0.0138,24.4656 3.78206,39 0.57038,2.2 1.42635,5.575 1.90214,7.5 1.12305,4.54365 3.76722,12.02755 5.02995,14.23643 0.54596,0.95504 0.99265,2.25145 0.99265,2.88092 0,3.97089 18.76104,37.76924 29,52.24401 16.89147,23.87939 53.62193,63.72962 77.07891,83.62575 10.01024,8.49065 20.53006,19.8804 23.56794,25.51687 2.33372,4.32999 3.26533,10.2302 2.21558,14.03209 -1.40728,5.09676 -9.45043,9.92195 -20.72529,12.43338 C 556.21545,864.95673 553.05866,865 417.01059,865 H 278 V 645.5 426 H 1710.5 3143 v 24.5 24.5 h -191.132 c -189.4455,0 -191.1605,0.0177 -194.371,2.00185 -1.9509,1.2057 -5.776,2.21006 -9.618,2.52537 -3.5085,0.28793 -10.429,1.1711 -15.379,1.9626 -9.4598,1.5126 -20.1851,3.12912 -29.65,4.46885 -3.1076,0.43986 -6.119,1.08956 -6.6922,1.44379 -0.5731,0.35423 -3.6556,1.11949 -6.8499,1.70057 -5.6131,1.02109 -9.4562,2.09745 -21.4669,6.01234 -36.0853,11.76204 -93.6906,48.38875 -123.1738,78.31659 -11.9908,12.17172 -23.89,27.77011 -34.3801,45.06804 -1.0364,1.70908 -10.5413,20.93324 -13.3494,27 -2.1519,4.64899 -7.9284,21.13164 -7.9328,22.63569 0,0.89963 -0.6771,2.92463 -1.4987,4.5 -0.8217,1.57537 -1.4967,4.11626 -1.5,5.64643 0,1.53016 -0.6812,4.39762 -1.5062,6.37212 -0.825,1.97451 -1.5,5.30576 -1.5,7.40278 0,2.09703 -0.4923,5.07958 -1.0939,6.62788 -1.6161,4.15891 -3.8461,33.60826 -3.8479,50.8151 0,15.12229 2.2957,49.64553 3.4251,51.47296 0.335,0.54214 1.0222,4.25751 1.5269,8.25637 0.5047,3.99887 1.4197,9.29567 2.0334,11.77067 6.1694,24.88437 11.0974,38.7953 20.6449,58.27746 5.7783,11.79087 6.5516,13.19472 7.4668,13.55587 0.4646,0.18334 0.8447,0.75276 0.8447,1.26539 0,1.7033 15.6519,24.29639 20.4602,29.53382 0.5719,0.6229 2.6148,3.07265 4.5398,5.44389 10.1685,12.52569 28.8952,29.19355 45.2748,40.29726 5.3761,3.64447 10.0358,6.62631 10.3549,6.62631 0.3192,0 2.4455,1.24812 4.7253,2.77361 4.2426,2.83891 28.7877,15.19912 30.3042,15.26032 0.4625,0.0187 2.6408,0.90339 4.8408,1.96607 2.2,1.06268 4.5686,1.94741 5.2636,1.96607 0.6949,0.0187 2.0449,0.48062 3,1.02658 2.0377,1.16495 9.4452,3.81315 13.7599,4.91945 1.663,0.4263 3.9959,1.2955 5.1843,1.9315 1.1884,0.636 3.2028,1.1592 4.4765,1.1626 1.2736,0 3.6046,0.6783 5.18,1.5 1.5754,0.8216 3.7858,1.4938 4.9121,1.4938 1.1263,0 4.3374,0.6379 7.1357,1.4175 12.1444,3.3834 34.4607,7.2517 46.5879,8.0754 9.9786,0.6778 21.101,2.4998 22.45,3.6776 0.5225,0.4562 57.7787,0.8295 127.236,0.8295 h 126.286 l 0.021,-132.43685 c 0.013,-81.664 -0.3399,-132.65972 -0.92,-133.01819 -1.0436,-0.64499 -158.1294,-0.82164 -158.7724,-0.17855 -0.2223,0.22225 -0.3696,23.79133 -0.3273,52.37572 0.07,47.49786 -0.068,52.09156 -1.6022,53.36475 -1.3714,1.13779 -8.6614,1.38983 -39.775,1.37514 -32.5923,-0.0154 -39.5404,-0.28293 -48.0958,-1.85208 -21.3339,-3.91286 -37.583,-9.72097 -55.9045,-19.98268 -1.9912,-1.11527 -7.9981,-5.33445 -14.0955,-9.90064 -5.3833,-4.03144 -17.1335,-16.14288 -20.1278,-20.74662 -5.621,-8.64235 -9.9623,-20.25898 -12.8931,-34.5 -0.7923,-3.85 -1.8796,-9.025 -2.4163,-11.5 -1.2634,-5.82666 -1.2849,-17.88944 -0.046,-25.5 2.3527,-14.44657 5.3326,-27.07932 7.5839,-32.15113 0.7694,-1.73312 1.3988,-3.60915 1.3988,-4.16896 0,-0.91224 1.9018,-5.09786 4.1709,-9.17991 0.4586,-0.825 1.2321,-2.4 1.7188,-3.5 0.8573,-1.93745 9.3751,-13.84212 11.5408,-16.12968 22.5979,-23.86915 35.5006,-32.97829 54.5695,-38.52533 18.9008,-5.49812 33.6246,-7.28268 31.4819,-3.81567 -0.33,0.53387 0.3266,0.97068 1.4591,0.97068 1.1324,0 2.059,0.45 2.059,1 0,0.66312 63.3333,1 188,1 h 188 v 240 240 h -1432.5 -1432.5 v -46.5 z m 1537.55,-47.3976 c 1.1492,-1.0858 5.2831,-1.6642 25.45,-3.5611 23.4201,-2.2028 46.661,-5.4019 56,-7.7083 2.475,-0.6112 6.525,-1.4657 9,-1.8988 5.1596,-0.9031 12.1377,-2.6381 16.5,-4.1026 1.65,-0.554 4.35,-1.3869 6,-1.851 3.3049,-0.9295 10.8724,-3.5628 14,-4.87175 4.798,-2.00799 12.1984,-5.3492 14.5,-6.54669 7.5719,-3.93948 15.0013,-8.16694 18.8001,-10.69756 2.3651,-1.57553 4.5441,-2.8646 4.8423,-2.8646 0.2982,0 1.5735,-0.7875 2.8341,-1.75 1.2606,-0.9625 3.3141,-2.425 4.5633,-3.25 11.4181,-7.54081 36.1609,-28.12615 36.7681,-30.59011 0.1693,-0.68711 -2.3511,-4.09793 -5.6009,-7.57959 -3.2498,-3.48167 -8.0605,-8.8053 -10.6904,-11.8303 -4.8095,-5.53208 -19.7225,-22.06995 -22.5166,-24.97002 -0.825,-0.85627 -4.8415,-5.37581 -8.9254,-10.04342 -4.084,-4.66761 -7.684,-8.712 -8,-8.98753 -1.0908,-0.95102 -11.5961,-12.52328 -18.5747,-20.46109 -9.1898,-10.45294 -17.7001,-19.81286 -23.8618,-26.24395 -4.8755,-5.08874 -5.0378,-5.16758 -7.2059,-3.5 -26.4151,20.3171 -40.5024,28.89809 -54.2126,33.02232 -13.8041,4.15247 -17.9757,5.18369 -20.9695,5.18369 -1.6908,0 -6.6012,0.68135 -10.9121,1.51412 -10.8507,2.0961 -35.9556,2.12586 -43.6368,0.0517 -3.1893,-0.8612 -7.0143,-1.5636 -8.5,-1.56088 -1.4857,0.003 -4.7262,-0.62358 -7.2012,-1.39177 -2.475,-0.76819 -6.8104,-2.12042 -9.6342,-3.00494 -2.8238,-0.88453 -5.661,-1.60824 -6.3049,-1.60824 -1.5082,0 -8.6359,-3.10873 -17.8542,-7.78716 -18.3381,-9.30674 -39.7713,-30.0226 -47.8132,-46.21284 -7.6428,-15.38677 -10.7812,-26.46093 -12.4695,-44 -0.5029,-5.225 -1.1553,-10.13509 -1.4497,-10.9113 -0.7312,-1.92765 1.2908,-20.1844 3.0737,-27.75283 0.7986,-3.39028 1.4548,-7.21528 1.4582,-8.5 0,-1.28473 0.6783,-3.62481 1.5,-5.20018 0.8216,-1.57537 1.4938,-3.75593 1.4938,-4.8457 0,-1.08978 0.6067,-3.17584 1.3481,-4.6357 0.7415,-1.45986 2.204,-4.45337 3.25,-6.65225 6.5659,-13.80222 23.9187,-33.21342 38.4599,-43.02186 C 1738.9319,645.81999 1755.102,638 1759,638 c 1.0627,0 3.4099,-0.62545 5.2161,-1.38988 1.8061,-0.76443 6.8839,-2.13093 11.2839,-3.03667 4.4,-0.90573 11.15,-2.40582 15,-3.33352 12.5319,-3.01971 36.4394,-1.68005 61.5,3.44616 4.125,0.84378 8.9778,2.1596 10.7839,2.92403 1.8062,0.76443 3.8865,1.38988 4.6229,1.38988 1.2403,0 7.7642,2.77117 11.8432,5.03063 0.9625,0.53315 2.5375,1.39606 3.5,1.91758 7.254,3.93042 17.2641,10.56256 25.623,16.9763 5.4301,4.16652 10.7349,8.20433 11.7883,8.97291 2.1181,1.54536 1.3609,2.11118 9.2576,-6.91703 2.1554,-2.46421 7.8169,-8.75539 12.5811,-13.98039 4.7642,-5.225 10.4088,-11.525 12.5434,-14 2.1346,-2.475 6.8291,-7.65 10.4321,-11.5 3.603,-3.85 9.695,-10.5959 13.5377,-14.99088 3.8428,-4.39498 9.487,-10.69498 12.5428,-14 10.6656,-11.53556 14.7263,-16.06512 21.5239,-24.00912 3.765,-4.4 8.0998,-9.07777 9.6328,-10.39503 2.5492,-2.19041 3.836,-6.06466 2.0373,-6.1338 -0.4125,-0.0159 -3.0394,-2.15336 -5.8376,-4.75 -9.4247,-8.74602 -19.3487,-16.59768 -32.5098,-25.72117 -10.5004,-7.27902 -32.6791,-19.5 -35.3887,-19.5 -0.8327,0 -1.5139,-0.42885 -1.5139,-0.953 0,-0.52414 -1.4625,-1.38847 -3.25,-1.92072 -1.7875,-0.53226 -5.725,-1.93267 -8.75,-3.11203 -10.6184,-4.13979 -25.2592,-7.9173 -46,-11.8685 -12.1288,-2.31059 -18.155,-3.2078 -27.6097,-4.1107 -5.4397,-0.51947 -12.1403,-1.38295 -14.8903,-1.91883 -2.75,-0.53589 -11.3,-1.21981 -19,-1.51982 -11.3511,-0.44228 -14.7495,-0.92872 -17.9614,-2.57094 -4.9902,-2.55145 -8.078,-2.55454 -13.0629,-0.0131 -3.0701,1.56523 -7.2835,2.2302 -18.9615,2.99259 -8.2578,0.53911 -18.1642,1.4465 -22.0142,2.01643 -13.1029,1.93967 -25.9905,4.14158 -30,5.12567 -2.2,0.53996 -6.7,1.58867 -10,2.33047 -12.5139,2.81295 -21.6021,5.5679 -26.831,8.13343 -1.5571,0.76396 -3.4052,1.38902 -4.107,1.38902 -1.8791,0 -36.2493,17.576 -43.062,22.02072 -1.65,1.07649 -3.675,2.26932 -4.5,2.65074 -2.3024,1.06443 -7.4593,4.73696 -7.8333,5.57854 -0.1834,0.4125 -0.7325,0.75 -1.2202,0.75 -0.8004,0 -14.2652,8.7709 -17.9461,11.6899 -0.8252,0.65445 -5.1004,3.9059 -9.5004,7.22546 -31.355,23.65559 -52.9574,49.23919 -68.9039,81.60263 -3.2472,6.5901 -6.3396,12.85123 -6.8719,13.91362 -0.5324,1.06238 -1.3328,3.08738 -1.7786,4.5 -0.4458,1.41261 -1.9565,5.71839 -3.357,9.56839 -1.4005,3.85 -2.5559,7.53321 -2.5675,8.1849 -0.012,0.6517 -0.5546,2.4517 -1.2067,4 -1.3665,3.24472 -3.4802,12.14957 -4.9407,20.8151 -0.5563,3.3 -1.4367,7.39936 -1.9565,9.10968 -0.9963,3.27787 -2.4967,19.91621 -3.5825,39.72746 -0.6639,12.11366 0.944,42.30691 2.8312,53.16286 0.5736,3.3 1.4046,8.475 1.8465,11.5 1.5057,10.30801 6.0029,26.46064 12.5286,45 1.8342,5.2109 12.3256,26.62557 15.9223,32.5 1.347,2.2 3.0313,4.98607 3.7429,6.19126 10.4069,17.62545 28.876,38.59782 47.2938,53.70406 12.0644,9.89515 22.1228,17.60468 22.9683,17.60468 0.3412,0 3.476,2.1375 6.9664,4.75 3.4904,2.6125 8.533,6.09608 11.2057,7.74129 10.6144,6.53366 13.9222,8.51166 15.3596,9.18486 0.825,0.38637 3.75,2.02559 6.5,3.64269 4.8416,2.84708 21.8905,11.45777 28,14.14171 8.3608,3.67298 10.7152,4.53948 12.3339,4.53948 0.9714,0 2.1936,0.4073 2.7161,0.9052 1.0153,0.9675 10.3612,3.71 16.95,4.9738 2.2,0.422 5.575,1.2683 7.5,1.8805 6.5804,2.0929 27.4161,5.3402 50,7.7926 18.8492,2.0469 21.9344,2.5327 22.5653,3.5535 0.7221,1.1684 19.7478,1.1655 20.9847,0 z m 472.868,0.03 c 0.6496,-1.0509 5.3641,-1.7226 25.582,-3.6449 25.18,-2.3939 49.7943,-5.8552 57.3648,-8.0666 2.6757,-0.7816 5.8816,-1.4211 7.1243,-1.4211 1.2427,0 4.1726,-0.675 6.5109,-1.5 2.3383,-0.825 5.1394,-1.5 6.2246,-1.5 1.0852,0 3.3911,-0.634 5.1243,-1.4088 1.7331,-0.7749 4.2761,-1.638 5.6511,-1.9181 4.5806,-0.933 15.7042,-5.25929 21.1543,-8.22752 1.4599,-0.79507 3.3724,-1.44558 4.25,-1.44558 0.8776,0 1.5957,-0.35636 1.5957,-0.79191 0,-0.43556 2.5875,-2.02342 5.75,-3.52859 6.5978,-3.14019 6.4404,-3.04756 19.75,-11.62116 5.5,-3.54291 13.375,-8.99617 17.5,-12.11836 8.6808,-6.57043 26.0022,-21.7273 25.9952,-22.7467 0,-0.38131 -1.4651,-2.28976 -3.25,-4.24101 -1.7848,-1.95126 -6.6202,-7.34491 -10.7452,-11.9859 -4.125,-4.64098 -9.5603,-10.6945 -12.0785,-13.45226 -12.7429,-13.95543 -18.0213,-19.81 -24.4068,-27.07106 -3.8419,-4.36868 -9.4849,-10.64305 -12.5399,-13.94305 -3.055,-3.3 -8.9085,-9.825 -13.0077,-14.5 -4.0992,-4.675 -9.7597,-10.975 -12.5788,-14 -2.8191,-3.025 -7.3222,-7.86448 -10.007,-10.75441 l -4.8813,-5.25441 -10.4631,8.07565 c -20.3024,15.6699 -40.1388,26.42816 -53.5369,29.03578 -2.2,0.42818 -6.025,1.23532 -8.5,1.79365 -19.4048,4.37749 -49.0861,5.69182 -60,2.6569 -3.025,-0.84118 -6.625,-1.53254 -8,-1.53635 -1.375,-0.004 -4.525,-0.65752 -7,-1.4527 -2.475,-0.79518 -8.1,-2.42983 -12.5,-3.63256 -4.4,-1.20273 -8.45,-2.48726 -9,-2.85452 -0.55,-0.36726 -3.6942,-1.7471 -6.9872,-3.06632 -3.293,-1.31921 -7.793,-3.60062 -10,-5.0698 -2.207,-1.46917 -5.9966,-3.90755 -8.4212,-5.41861 -4.8742,-3.03767 -23.0787,-20.7459 -27.7796,-27.0223 -3.5786,-4.77801 -9.7011,-15.198 -10.5763,-18 -0.3435,-1.1 -1.5889,-4.7 -2.7675,-8 -5.8388,-16.34865 -8.3581,-38.02395 -6.4974,-55.90263 0.71,-6.82144 1.552,-12.82532 1.8713,-13.34196 0.3193,-0.51664 1.0012,-3.37295 1.5152,-6.34737 0.5141,-2.97442 1.4953,-6.98304 2.1805,-8.90804 3.101,-8.7118 4.2277,-11.60293 5.0665,-13 0.4952,-0.825 1.3454,-2.53134 1.8893,-3.79186 4.0867,-9.4725 24.6671,-31.851 36.5064,-39.69601 17.8244,-11.81087 39.5663,-19.03211 71,-23.58165 11.1076,-1.60765 28.5261,0.2127 58,6.06138 7.8513,1.55798 24.8532,9.22542 34.3373,15.48532 2.9355,1.93755 5.7105,3.52282 6.1667,3.52282 0.4561,0 0.9793,0.3375 1.1627,0.75 0.1833,0.4125 2.1333,1.97419 4.3333,3.47043 2.2,1.49623 7.1273,5.2163 10.9495,8.26682 3.8223,3.05051 7.2277,5.42632 7.5677,5.27957 0.34,-0.14675 3.9625,-4.09182 8.0501,-8.76682 4.0876,-4.675 8.3534,-9.4 9.4797,-10.5 1.1262,-1.1 5.5912,-6.05 9.9222,-11 4.3309,-4.95 11.9933,-13.5 17.0274,-19 5.0341,-5.5 15.1735,-16.75 22.5319,-25 7.3583,-8.25 13.6247,-15.225 13.9252,-15.5 0.3005,-0.275 3.9139,-4.325 8.0299,-9 4.1159,-4.675 8.9534,-10.06188 10.75,-11.97084 1.7965,-1.90897 3.2664,-3.76032 3.2664,-4.11413 0,-0.84987 -13.831,-13.2536 -19.7994,-17.75624 -2.5853,-1.95042 -4.9256,-3.81823 -5.2006,-4.15069 -0.275,-0.33245 -2.075,-1.6861 -4,-3.0081 -1.925,-1.322 -3.725,-2.67531 -4,-3.00735 -1.3132,-1.58563 -21.4717,-14.2159 -29.1388,-18.25685 C 2425.2698,505.15351 2411.2098,499 2409.0464,499 c -0.8807,0 -2.489,-0.61115 -3.5739,-1.35812 -1.0849,-0.74696 -3.7691,-1.68781 -5.9649,-2.09078 -2.1958,-0.40297 -4.4458,-1.02761 -5,-1.38809 -1.0342,-0.67274 -7.0651,-2.16034 -18.5076,-4.56516 -18.5939,-3.90779 -27.8269,-5.43758 -39.6097,-6.5628 -5.4397,-0.51947 -12.1403,-1.38295 -14.8903,-1.91883 -2.75,-0.53589 -11.4157,-1.22299 -19.2571,-1.52691 -10.0684,-0.39022 -14.9162,-0.98382 -16.5,-2.0204 -4.064,-2.65962 -9.818,-2.90414 -14.2429,-0.60525 -3.1561,1.6397 -6.5317,2.19102 -16,2.6132 -11.0292,0.49178 -15.8771,1.0736 -37.5,4.50056 -4.125,0.65376 -9.75,1.5174 -12.5,1.91919 -12.2078,1.78365 -37.8156,9.24346 -50,14.56554 -1.65,0.72071 -3.675,1.56119 -4.5,1.86775 -0.825,0.30655 -2.175,0.96657 -3,1.46669 -0.825,0.50013 -3.75,2.04628 -6.5,3.4359 -11.677,5.90057 -17.1186,8.74722 -18.9621,9.91965 -1.0792,0.68632 -3.7792,2.36367 -6,3.72743 -2.2209,1.36376 -4.9379,3.03361 -6.0379,3.71078 -1.1,0.67716 -2.6578,1.55857 -3.4618,1.95868 -2.7888,1.38789 -21.9304,14.69044 -30.5382,21.22259 -23.4592,17.80246 -39.4946,34.12038 -53.6824,54.62838 -5.9653,8.62253 -14.0396,22.2496 -17.4794,29.5 -5.2451,11.05539 -7.3382,15.74628 -7.3382,16.44536 0,0.41381 -0.6202,2.17039 -1.3782,3.90351 -2.5004,5.71706 -7.1608,20.29197 -8.6242,26.97165 -1.0017,4.5718 -2.305,11.13616 -4.5029,22.67948 -5.05,26.52161 -3.7467,81.42891 2.6109,110 0.5508,2.475 1.2306,5.625 1.5108,7 1.383,6.78644 8.7388,29.2893 11.9312,36.5 1.9886,4.49146 5.4405,11.79963 6.3767,13.5 0.4542,0.825 1.7834,3.36376 2.9539,5.64169 3.931,7.65067 4.6174,8.83163 9.3959,16.16675 18.527,28.43913 44.1044,53.13337 78.5381,75.82613 5.3283,3.51148 10.4559,6.91557 11.3947,7.56463 1.9776,1.36735 10.3651,6.28803 13.2931,7.79864 1.1,0.56752 3.35,1.88636 5,2.93075 2.9238,1.85064 22.4983,11.67734 29.5,14.80945 1.925,0.86116 4.6944,2.17236 6.1543,2.91386 1.4599,0.7414 3.5609,1.3481 4.669,1.3481 1.108,0 3.2886,0.6319 4.8457,1.4043 2.6762,1.3276 8.7827,3.1184 14.331,4.2029 1.375,0.2687 4.75,1.1164 7.5,1.8838 9.18,2.5615 29.4958,5.7675 51,8.0482 19.5044,2.0686 22.5,2.5434 22.5,3.5658 0,1.1517 20.7068,1.1784 21.418,0.028 z"
       id="path897" />
  </g>
</svg>
