<?xml version="1.0" encoding="UTF-8" standalone="no"?>
<!-- Created with Inkscape (http://www.inkscape.org/) -->

<svg
   xmlns:dc="http://purl.org/dc/elements/1.1/"
   xmlns:cc="http://creativecommons.org/ns#"
   xmlns:rdf="http://www.w3.org/1999/02/22-rdf-syntax-ns#"
   xmlns:svg="http://www.w3.org/2000/svg"
   xmlns="http://www.w3.org/2000/svg"
   xmlns:sodipodi="http://sodipodi.sourceforge.net/DTD/sodipodi-0.dtd"
   xmlns:inkscape="http://www.inkscape.org/namespaces/inkscape"
   width="184.41602mm"
   height="137.12256mm"
   viewBox="0 0 183.62566 137.12256"
   version="1.1"
   id="svg8"
   inkscape:version="0.92.2 5c3e80d, 2017-08-06"
   sodipodi:docname="swccgpc_bw.svg"
   inkscape:export-filename="/Users/devon/code/swccgpc/website/swccgpc_bw.png"
   inkscape:export-xdpi="150"
   inkscape:export-ydpi="150">
  <defs
     id="defs2" />
  <sodipodi:namedview
     id="base"
     pagecolor="#ffffff"
     bordercolor="#666666"
     borderopacity="1.0"
     inkscape:pageopacity="0.0"
     inkscape:pageshadow="2"
     inkscape:zoom="0.9899495"
     inkscape:cx="349.81562"
     inkscape:cy="107.71353"
     inkscape:document-units="mm"
     inkscape:current-layer="layer1"
     showgrid="false"
     viewbox-width="209.1"
     fit-margin-top="0"
     fit-margin-left="0"
     fit-margin-right="0"
     fit-margin-bottom="0"
     inkscape:window-width="1440"
     inkscape:window-height="855"
     inkscape:window-x="0"
     inkscape:window-y="1"
     inkscape:window-maximized="1" />
  <metadata
     id="metadata5">
    <rdf:RDF>
      <cc:Work
         rdf:about="">
        <dc:format>image/svg+xml</dc:format>
        <dc:type
           rdf:resource="http://purl.org/dc/dcmitype/StillImage" />
        <dc:title></dc:title>
      </cc:Work>
    </rdf:RDF>
  </metadata>
  <g
     inkscape:label="Layer 1"
     inkscape:groupmode="layer"
     id="layer1"
     transform="translate(-14.298246,-11.823414)">
    <rect
       style="fill:#000000;fill-opacity:1;stroke:none;stroke-width:0.80000001;stroke-linecap:square;stroke-linejoin:miter;stroke-miterlimit:4;stroke-dasharray:none;stroke-opacity:1;paint-order:markers fill stroke"
       id="rect1670"
       width="184.41597"
       height="122.40945"
       x="13.898015"
       y="11.823414" />
    <g
       id="g19822"
       transform="matrix(1.0052811,0,0,1,-0.68428009,0)">
      <path
         id="path849"
         transform="matrix(0.26458333,0,0,0.26458333,12.172966,11.823414)"
         d="m 8.8164062,474.17773 v 43.33008 H 24.478516 v -14.3125 h 13.5625 c 3.600859,-0.54012 6.482061,-1.73181 8.642578,-3.57226 2.160514,-1.84043 3.480821,-3.45904 3.960937,-4.85938 0.480126,-1.40034 0.798959,-2.90157 0.958985,-4.50195 0.16004,-1.60038 -0.199867,-4.00042 -1.080078,-7.20117 -0.96023,-2.64063 -2.580784,-4.70128 -4.861329,-6.18164 -2.280544,-1.48034 -5.159796,-2.3811 -8.640625,-2.70118 z m 15.6621098,10.80274 h 10.892578 c 0.480113,0 1.069363,0.27043 1.769531,0.81055 0.720164,0.52013 1.130437,1.60913 1.230469,3.26953 -0.04001,1.74039 -0.399915,2.83137 -1.080078,3.27148 -0.680162,0.42011 -1.310486,0.63086 -1.890625,0.63086 H 24.478516 Z"
         style="font-style:normal;font-variant:normal;font-weight:normal;font-stretch:normal;font-size:medium;line-height:1.25;font-family:'Star Jedi';-inkscape-font-specification:'Star Jedi';letter-spacing:0px;word-spacing:0px;fill:#000000;fill-opacity:1;stroke:none;stroke-width:1.53636646"
         inkscape:connector-curvature="0" />
      <path
         d="M 26.414151,148.74748 V 137.283 h 3.731515 v 8.05054 h 6.208607 v 3.41394 z"
         style="font-style:normal;font-variant:normal;font-weight:normal;font-stretch:normal;font-size:medium;line-height:1.25;font-family:'Star Jedi';-inkscape-font-specification:'Star Jedi';letter-spacing:0px;word-spacing:0px;fill:#000000;fill-opacity:1;stroke:none;stroke-width:0.40649697"
         id="path851"
         inkscape:connector-curvature="0" />
      <path
         d="M 35.71912,148.74748 39.490333,137.283 h 5.692546 l 3.834727,11.46448 h -4.334909 l -0.722485,-2.06424 h -3.406 l -0.722485,2.06424 z m 6.629395,-8.92388 -1.643455,4.54134 h 3.159879 z"
         style="font-style:normal;font-variant:normal;font-weight:normal;font-stretch:normal;font-size:medium;line-height:1.25;font-family:'Star Jedi';-inkscape-font-specification:'Star Jedi';letter-spacing:0px;word-spacing:0px;fill:#000000;fill-opacity:1;stroke:none;stroke-width:0.40649697"
         id="path853"
         inkscape:connector-curvature="0" />
      <path
         d="m 61.109307,137.283 -5.001818,7.2566 v 4.20788 h -3.747395 v -4.20788 l -5.001818,-7.2566 h 4.525455 l 2.334182,3.54097 2.365939,-3.54097 z"
         style="font-style:normal;font-variant:normal;font-weight:normal;font-stretch:normal;font-size:medium;line-height:1.25;font-family:'Star Jedi';-inkscape-font-specification:'Star Jedi';letter-spacing:0px;word-spacing:0px;fill:#000000;fill-opacity:1;stroke:none;stroke-width:0.40649697"
         id="path855"
         inkscape:connector-curvature="0" />
      <path
         d="M 60.553547,148.74748 V 137.283 h 9.828971 v 3.41394 h -6.097455 v 1.31794 h 3.93794 v 2.00072 h -3.93794 v 1.31794 h 7.066061 v 3.41394 z"
         style="font-style:normal;font-variant:normal;font-weight:normal;font-stretch:normal;font-size:medium;line-height:1.25;font-family:'Star Jedi';-inkscape-font-specification:'Star Jedi';letter-spacing:0px;word-spacing:0px;fill:#000000;fill-opacity:1;stroke:none;stroke-width:0.40649697"
         id="path857"
         inkscape:connector-curvature="0" />
      <path
         d="M 71.351124,148.74748 V 137.283 h 7.463031 q 1.381455,0.12703 2.270667,0.73042 0.889212,0.60339 1.302061,1.61964 0.317576,1.52436 0.03176,2.35006 -0.285818,0.8257 -1.000363,1.38145 -0.714546,0.55576 -2.048364,0.87334 l 0.857454,1.09563 h 3.429819 v 3.41394 h -4.525455 l -3.636243,-3.78709 v 3.78709 z m 4.144364,-8.6063 v 2.11188 h 2.88994 q 0.230242,0 0.500182,-0.16673 0.269939,-0.17467 0.285818,-0.86539 -0.0397,-0.65897 -0.325515,-0.8654 -0.277879,-0.21436 -0.468425,-0.21436 z"
         style="font-style:normal;font-variant:normal;font-weight:normal;font-stretch:normal;font-size:medium;line-height:1.25;font-family:'Star Jedi';-inkscape-font-specification:'Star Jedi';letter-spacing:0px;word-spacing:0px;fill:#000000;fill-opacity:1;stroke:none;stroke-width:0.40649697"
         id="path859"
         inkscape:connector-curvature="0" />
      <path
         d="m 92.692218,140.69694 h -2.794667 q -2.040424,-0.0635 -0.603394,1.12739 2.572364,2.25479 2.524727,4.38255 -0.04764,2.12775 -2.524727,2.5406 h -6.097455 v -3.41394 h 2.413576 q 2.246849,0.0635 0.571636,-1.25442 -2.762909,-2.54061 -2.35006,-4.66837 0.412848,-2.12775 2.604121,-2.12775 h 6.256243 z"
         style="font-style:normal;font-variant:normal;font-weight:normal;font-stretch:normal;font-size:medium;line-height:1.25;font-family:'Star Jedi';-inkscape-font-specification:'Star Jedi';letter-spacing:0px;word-spacing:0px;fill:#000000;fill-opacity:1;stroke:none;stroke-width:0.40649697"
         id="path861"
         inkscape:connector-curvature="0" />
      <path
         d="m 103.56919,142.88821 q 0.0635,0.95273 0.41284,1.42909 0.34934,0.47636 0.83364,0.75424 0.4843,0.27788 1.46879,0.40491 1.01624,-0.0635 1.46085,-0.26994 0.4446,-0.20642 1.01624,-0.68279 l 2.25479,2.50885 q -0.98449,0.92097 -1.95309,1.27031 -0.96861,0.34933 -2.81055,0.4446 -1.77842,-0.0953 -2.69145,-0.51606 -0.91303,-0.42873 -1.81019,-1.12739 -0.88921,-0.70661 -1.39733,-1.76255 -0.50018,-1.06388 -0.50018,-2.46121 0,-1.38145 0.50018,-2.43739 0.50812,-1.06388 1.39733,-1.76255 0.89716,-0.70661 1.81019,-1.12739 0.91303,-0.42873 2.69145,-0.524 1.84194,0.0953 2.81055,0.4446 0.9686,0.34934 1.95309,1.27031 l -2.25479,2.50884 q -0.57164,-0.47636 -1.01624,-0.68278 -0.44461,-0.20643 -1.46085,-0.26994 -0.98449,0.12703 -1.46879,0.40491 -0.4843,0.27787 -0.83364,0.75424 -0.34933,0.47636 -0.41284,1.42909 z"
         style="font-style:normal;font-variant:normal;font-weight:normal;font-stretch:normal;font-size:medium;line-height:1.25;font-family:'Star Jedi';-inkscape-font-specification:'Star Jedi';letter-spacing:0px;word-spacing:0px;fill:#000000;fill-opacity:1;stroke:none;stroke-width:0.40649697"
         id="path863"
         inkscape:connector-curvature="0" />
      <path
         d="m 124.4498,143.07875 q 0,1.88164 -0.786,3.20752 -0.786,1.32588 -2.27861,1.99279 -1.48467,0.66691 -3.54891,0.66691 -2.06424,0 -3.54891,-0.66691 -1.47673,-0.67485 -2.23891,-1.98485 -0.76218,-1.31794 -0.76218,-3.21546 0,-1.43703 0.43667,-2.52472 0.43666,-1.09564 1.27824,-1.84194 0.84158,-0.74631 2.06424,-1.1274 1.22267,-0.38903 2.77085,-0.38903 2.0563,0 3.54891,0.68279 1.49261,0.67485 2.27861,2.00073 0.786,1.31794 0.786,3.19957 z m -9.09061,0.0318 q 0,1.10358 0.49224,1.92134 0.50018,0.81775 1.96103,0.81775 1.1274,0 1.68316,-0.42872 0.56369,-0.42873 0.69866,-0.97655 0.14291,-0.55576 0.19055,-1.33382 -0.0476,-1.10357 -0.53194,-1.92133 -0.48431,-0.8257 -2.04043,-0.8257 -2.45327,0 -2.45327,2.74703 z"
         style="font-style:normal;font-variant:normal;font-weight:normal;font-stretch:normal;font-size:medium;line-height:1.25;font-family:'Star Jedi';-inkscape-font-specification:'Star Jedi';letter-spacing:0px;word-spacing:0px;fill:#000000;fill-opacity:1;stroke:none;stroke-width:0.40649697"
         id="path865"
         inkscape:connector-curvature="0" />
      <path
         d="M 124.83089,148.74748 V 137.283 h 3.73152 l 2.50884,4.76363 2.49297,-4.76363 h 3.73152 v 11.46448 h -3.73152 v -4.76363 l -2.39769,4.76363 h -0.20643 l -2.39769,-4.76363 v 4.76363 z"
         style="font-style:normal;font-variant:normal;font-weight:normal;font-stretch:normal;font-size:medium;line-height:1.25;font-family:'Star Jedi';-inkscape-font-specification:'Star Jedi';letter-spacing:0px;word-spacing:0px;fill:#000000;fill-opacity:1;stroke:none;stroke-width:0.40649697"
         id="path867"
         inkscape:connector-curvature="0" />
      <path
         d="M 137.94677,148.74748 V 137.283 h 3.73151 l 2.50885,4.76363 2.49297,-4.76363 h 3.73151 v 11.46448 h -3.73151 v -4.76363 l -2.3977,4.76363 h -0.20642 l -2.3977,-4.76363 v 4.76363 z"
         style="font-style:normal;font-variant:normal;font-weight:normal;font-stretch:normal;font-size:medium;line-height:1.25;font-family:'Star Jedi';-inkscape-font-specification:'Star Jedi';letter-spacing:0px;word-spacing:0px;fill:#000000;fill-opacity:1;stroke:none;stroke-width:0.40649697"
         id="path869"
         inkscape:connector-curvature="0" />
      <path
         d="m 151.06264,137.283 h 3.73152 v 11.46448 h -3.73152 z"
         style="font-style:normal;font-variant:normal;font-weight:normal;font-stretch:normal;font-size:medium;line-height:1.25;font-family:'Star Jedi';-inkscape-font-specification:'Star Jedi';letter-spacing:0px;word-spacing:0px;fill:#000000;fill-opacity:1;stroke:none;stroke-width:0.40649697"
         id="path871"
         inkscape:connector-curvature="0" />
      <path
         d="m 166.05222,137.283 v 3.41394 h -3.63624 v 8.05054 h -3.73151 v -8.05054 h -3.63625 V 137.283 Z"
         style="font-style:normal;font-variant:normal;font-weight:normal;font-stretch:normal;font-size:medium;line-height:1.25;font-family:'Star Jedi';-inkscape-font-specification:'Star Jedi';letter-spacing:0px;word-spacing:0px;fill:#000000;fill-opacity:1;stroke:none;stroke-width:0.40649697"
         id="path873"
         inkscape:connector-curvature="0" />
      <path
         d="m 176.91331,137.283 v 3.41394 h -3.63624 v 8.05054 h -3.73152 v -8.05054 h -3.63624 V 137.283 Z"
         style="font-style:normal;font-variant:normal;font-weight:normal;font-stretch:normal;font-size:medium;line-height:1.25;font-family:'Star Jedi';-inkscape-font-specification:'Star Jedi';letter-spacing:0px;word-spacing:0px;fill:#000000;fill-opacity:1;stroke:none;stroke-width:0.40649697"
         id="path875"
         inkscape:connector-curvature="0" />
      <path
         d="M 177.32616,148.74748 V 137.283 h 9.82898 v 3.41394 h -6.09746 v 1.31794 h 3.93794 v 2.00072 h -3.93794 v 1.31794 h 7.06606 v 3.41394 z"
         style="font-style:normal;font-variant:normal;font-weight:normal;font-stretch:normal;font-size:medium;line-height:1.25;font-family:'Star Jedi';-inkscape-font-specification:'Star Jedi';letter-spacing:0px;word-spacing:0px;fill:#000000;fill-opacity:1;stroke:none;stroke-width:0.40649697"
         id="path877"
         inkscape:connector-curvature="0" />
      <path
         id="path879"
         transform="matrix(0.26458333,0,0,0.26458333,12.172966,11.823414)"
         d="m 665.01172,474.17773 v 43.33008 h 37.14844 v -12.90234 h -23.04688 v -4.98242 h 14.88477 v -7.56055 h -14.88477 v -4.98242 h 23.04688 v -12.90235 z"
         style="font-style:normal;font-variant:normal;font-weight:normal;font-stretch:normal;font-size:medium;line-height:1.25;font-family:'Star Jedi';-inkscape-font-specification:'Star Jedi';letter-spacing:0px;word-spacing:0px;fill:#000000;fill-opacity:1;stroke:none;stroke-width:1.53636646"
         inkscape:connector-curvature="0" />
    </g>
    <rect
       y="14.998412"
       x="18.174328"
       height="97.553375"
       width="176.4355"
       id="rect1672"
       style="fill:#ffffff;fill-opacity:1;stroke:none;stroke-width:0.69854981;stroke-linecap:square;stroke-linejoin:miter;stroke-miterlimit:4;stroke-dasharray:none;stroke-opacity:1;paint-order:markers fill stroke" />
    <g
       aria-label="/"
       style="font-style:normal;font-variant:normal;font-weight:normal;font-stretch:normal;font-size:112.08106232px;line-height:1.25;font-family:'Star Jedi Logo DoubleLine1';-inkscape-font-specification:'Star Jedi Logo DoubleLine1';letter-spacing:0px;word-spacing:0px;fill:#000000;fill-opacity:1;stroke:none;stroke-width:2.80202651"
       id="text1417">
      <path
         d="m 195.86887,65.749495 v 11.000144 h -9.96033 q -7.2787,-0.492544 -2.18908,3.611987 9.24887,7.278702 9.08469,14.06486 -0.16418,6.786154 -9.08469,8.154334 H 145.30104 L 132.22127,90.376682 V 102.58082 H 117.28078 V 65.749495 h 26.98045 q 4.92544,0.38309 8.09961,2.353265 3.2289,1.970175 4.6518,5.199073 1.14927,4.87071 0.10945,7.607064 -1.03981,2.681627 -3.61198,4.487621 -2.57218,1.751266 -7.33343,2.681627 l 3.11944,3.611987 h 21.17938 q 8.15434,0.328362 2.07963,-4.049804 -10.01505,-8.263789 -8.53742,-15.049947 1.53236,-6.840886 9.41305,-6.840886 z M 98.454663,24.211641 V 34.992876 H 85.374891 V 60.878785 H 71.912029 V 34.992876 H 55.712813 q -7.388156,-0.437817 -2.24381,3.666714 9.303604,7.278702 9.084695,14.119587 -0.164181,6.786158 -9.084695,8.099608 H 14.174958 V 49.933369 h 26.050091 q 8.099608,0.328362 2.024902,-3.995077 -9.905602,-8.154335 -8.42797,-14.940493 1.532358,-6.786158 9.35833,-6.786158 z M 68.792585,102.58082 82.419629,65.749495 h 20.522651 l 13.7365,36.831325 H 101.08156 L 98.454663,95.904117 H 86.250524 l -2.6269,6.676703 z M 92.872501,74.232193 86.852522,88.899051 h 11.43796 z m 39.348769,0.492544 v 6.676704 h 10.45288 q 0.76617,0 1.75126,-0.492544 0.98509,-0.547271 1.03982,-2.791081 -0.16419,-2.079629 -1.14927,-2.736354 -0.98509,-0.656725 -1.69654,-0.656725 z M 28.732362,65.749495 36.011064,81.620349 39.841959,65.749495 h 13.51759 L 42.906676,102.58082 H 29.498541 L 14.120231,65.749495 Z m 24.627187,0 5.746343,15.870854 5.965252,-15.870854 H 79.628548 L 66.001504,102.58082 H 52.593369 L 47.394297,86.983603 51.717736,71.441112 Z m 39.129863,-4.87071 13.627038,-36.667144 h 20.52266 l 13.79122,36.667144 h -15.65194 l -2.57217,-6.621977 h -12.25887 l -2.6269,6.621977 z m 23.806278,-28.184447 -5.96525,14.612131 h 11.38323 z m 26.59736,28.184447 V 24.211641 h 26.871 q 5.03489,0.437816 8.20906,2.298537 3.17417,1.860721 4.6518,5.089619 1.204,4.980164 0.16419,7.607064 -1.03982,2.6269 -3.61199,4.432894 -2.57217,1.805993 -7.33343,2.791081 l 3.06472,3.502533 h 20.96047 V 60.878785 H 170.96805 L 157.88827,48.7841 v 12.094685 z m 14.72159,-27.801357 v 6.731431 h 10.45287 q 0.76618,0 1.69654,-0.492544 0.98509,-0.547271 1.09454,-2.736354 -0.10945,-2.189083 -1.14927,-2.845808 -0.98508,-0.656725 -1.69654,-0.656725 z"
         style="fill:#000000;stroke-width:2.80202651"
         id="path923"
         inkscape:connector-curvature="0" />
    </g>
    <g
       aria-label="CUSTOMIZABLE CARD GAME"
       transform="scale(1.0290606,0.97176006)"
       style="font-style:normal;font-variant:normal;font-weight:normal;font-stretch:normal;font-size:18.83829308px;line-height:1.25;font-family:'Star Jedi Logo DoubleLine1';-inkscape-font-specification:'Star Jedi Logo DoubleLine1';letter-spacing:0px;word-spacing:0px;fill:#ffffff;fill-opacity:1;stroke:none;stroke-width:0.47095734"
       id="text1676">
      <path
         d="m 25.842463,120.36032 v 1.7201 q -0.735871,-0.35873 -1.232584,-0.35873 -0.68068,0 -1.168195,0.34034 -0.487514,0.33114 -0.809458,1.03022 -0.312745,0.69907 -0.469117,1.77528 -0.147174,1.06702 -0.147174,2.52956 0,5.26148 2.695127,5.26148 0.469117,0 1.131401,-0.29435 v 1.75689 q -0.689879,0.38633 -1.545329,0.38633 -4.314043,0 -4.314043,-7.04596 0,-3.80813 1.048616,-5.66621 1.057815,-1.85807 3.228634,-1.85807 0.800259,0 1.582122,0.42312 z"
         style="font-style:normal;font-variant:normal;font-weight:500;font-stretch:condensed;font-family:Futura;-inkscape-font-specification:'Futura Medium Condensed';fill:#ffffff;fill-opacity:1;stroke-width:0.47095734"
         id="path882"
         inkscape:connector-curvature="0" />
      <path
         d="m 27.442982,120.13037 h 1.87647 v 10.03543 q 0,1.53613 0.275952,2.04205 0.28515,0.50591 1.122203,0.50591 0.837053,0 1.103806,-0.44153 0.275952,-0.45072 0.275952,-1.83047 v -10.31139 h 1.87647 v 10.31139 q 0,2.31799 -0.708275,3.13664 -0.846252,0.92904 -2.584747,0.92904 -1.913264,0 -2.695127,-1.19579 -0.542704,-0.81865 -0.542704,-3.14585 z"
         style="font-style:normal;font-variant:normal;font-weight:500;font-stretch:condensed;font-family:Futura;-inkscape-font-specification:'Futura Medium Condensed';fill:#ffffff;fill-opacity:1;stroke-width:0.47095734"
         id="path884"
         inkscape:connector-curvature="0" />
      <path
         d="m 40.90022,120.42471 v 1.86728 q -0.873847,-0.62549 -1.572924,-0.62549 -0.754268,0 -1.232584,0.5335 -0.478316,0.50591 -0.478316,1.35216 0,0.74507 0.34034,1.27858 0.17477,0.28515 0.5703,0.73587 0.404729,0.45072 1.039418,1.08541 1.168195,1.18659 1.59132,2.05124 0.423126,0.83705 0.423126,2.05124 0,1.64651 -0.929037,2.71352 -0.929037,1.03942 -2.382382,1.03942 -1.223385,0 -2.088033,-0.67148 v -1.89487 q 1.021021,0.74507 1.858074,0.74507 0.781862,0 1.223385,-0.51511 0.441522,-0.52431 0.441522,-1.41655 0,-0.77266 -0.34034,-1.38896 -0.174769,-0.29434 -0.487514,-0.67148 -0.312745,-0.38633 -0.781863,-0.85545 -0.726672,-0.71747 -1.204988,-1.26938 -0.478316,-0.5519 -0.708276,-0.96583 -0.441523,-0.80945 -0.441523,-2.04204 0,-1.6649 0.864649,-2.63993 0.873846,-0.98423 2.345588,-0.98423 1.021021,0 1.950058,0.48751 z"
         style="font-style:normal;font-variant:normal;font-weight:500;font-stretch:condensed;font-family:Futura;-inkscape-font-specification:'Futura Medium Condensed';fill:#ffffff;fill-opacity:1;stroke-width:0.47095734"
         id="path886"
         inkscape:connector-curvature="0" />
      <path
         d="m 42.279977,120.13037 h 6.227307 v 1.6741 H 46.36406 v 12.5282 h -1.876471 v -12.5282 h -2.207612 z"
         style="font-style:normal;font-variant:normal;font-weight:500;font-stretch:condensed;font-family:Futura;-inkscape-font-specification:'Futura Medium Condensed';fill:#ffffff;fill-opacity:1;stroke-width:0.47095734"
         id="path888"
         inkscape:connector-curvature="0" />
      <path
         d="m 56.813427,127.58106 q 0,3.76214 -0.837053,5.34426 -0.837053,1.58212 -2.805508,1.58212 -2.069636,0 -2.915888,-1.7017 -0.837053,-1.66491 -0.837053,-5.91456 0,-3.78974 0.827855,-5.36266 0.837053,-1.58212 2.833102,-1.58212 1.784487,0 2.649135,1.22338 0.5703,0.81866 0.827855,2.32719 0.257555,1.39816 0.257555,4.08409 z m -2.005248,0.20236 q 0,-3.68855 -0.331142,-4.89354 -0.331142,-1.21419 -1.352163,-1.21419 -1.02102,0 -1.361361,1.11301 -0.331142,1.1222 -0.331142,4.50721 0,3.11825 0.349539,4.32324 0.358737,1.1406 1.342964,1.1406 0.965831,0 1.324568,-1.06701 0.358737,-1.05782 0.358737,-3.90932 z"
         style="font-style:normal;font-variant:normal;font-weight:500;font-stretch:condensed;font-family:Futura;-inkscape-font-specification:'Futura Medium Condensed';fill:#ffffff;fill-opacity:1;stroke-width:0.47095734"
         id="path890"
         inkscape:connector-curvature="0" />
      <path
         d="m 59.388973,120.13037 h 1.637312 l 1.250981,5.79498 q 0.229959,1.08541 0.413927,2.18002 0.193166,1.0854 0.349539,2.28119 0.0184,-0.15637 0.02759,-0.23915 0.0092,-0.092 0.0184,-0.12878 l 0.266753,-1.62811 0.239158,-1.54533 0.211563,-1.02102 1.113004,-5.6938 h 1.65571 l 1.30617,14.2023 h -1.830478 l -0.321944,-4.81995 q -0.0184,-0.36794 -0.03679,-0.63469 -0.0092,-0.26675 -0.0092,-0.44152 l -0.08279,-1.90407 -0.04599,-1.74769 q 0,-0.0184 -0.0092,-0.0736 0,-0.0644 -0.0092,-0.16557 l -0.04599,0.28515 q -0.07359,0.50591 -0.137976,0.88305 -0.05519,0.37713 -0.101182,0.63468 l -0.239158,1.29698 -0.09198,0.48751 -1.19579,6.19971 h -1.287774 l -1.122203,-5.35346 q -0.229959,-1.05781 -0.413927,-2.14322 -0.174769,-1.09461 -0.321943,-2.2904 l -0.551904,9.78708 h -1.802883 z"
         style="font-style:normal;font-variant:normal;font-weight:500;font-stretch:condensed;font-family:Futura;-inkscape-font-specification:'Futura Medium Condensed';fill:#ffffff;fill-opacity:1;stroke-width:0.47095734"
         id="path892"
         inkscape:connector-curvature="0" />
      <path
         d="m 69.461204,120.13037 h 1.913264 v 14.2023 h -1.913264 z"
         style="font-style:normal;font-variant:normal;font-weight:500;font-stretch:condensed;font-family:Futura;-inkscape-font-specification:'Futura Medium Condensed';fill:#ffffff;fill-opacity:1;stroke-width:0.47095734"
         id="path894"
         inkscape:connector-curvature="0" />
      <path
         d="m 73.232546,120.13037 h 6.254902 l -4.268051,12.5282 h 4.038091 v 1.6741 h -6.530854 l 4.304845,-12.58339 h -3.798933 z"
         style="font-style:normal;font-variant:normal;font-weight:500;font-stretch:condensed;font-family:Futura;-inkscape-font-specification:'Futura Medium Condensed';fill:#ffffff;fill-opacity:1;stroke-width:0.47095734"
         id="path896"
         inkscape:connector-curvature="0" />
      <path
         d="m 82.706879,120.13037 h 1.490139 l 3.044665,14.2023 h -1.894867 l -0.533506,-2.76871 h -2.814706 l -0.542705,2.76871 h -1.839677 z m 1.830479,9.95265 -0.423126,-2.2628 q -0.423125,-2.3088 -0.689878,-4.93034 -0.128778,1.27858 -0.331142,2.59395 -0.202365,1.30617 -0.478316,2.77791 l -0.349539,1.82128 z"
         style="font-style:normal;font-variant:normal;font-weight:500;font-stretch:condensed;font-family:Futura;-inkscape-font-specification:'Futura Medium Condensed';fill:#ffffff;fill-opacity:1;stroke-width:0.47095734"
         id="path898"
         inkscape:connector-curvature="0" />
      <path
         d="m 88.373085,120.13037 h 2.593944 q 3.044666,0 3.044666,3.78053 0,1.44415 -0.395531,2.14323 -0.39553,0.69907 -1.398154,1.05781 1.149798,0.45992 1.572924,1.17739 0.432324,0.70828 0.432324,2.13403 0,3.90931 -3.348213,3.90931 h -2.50196 z m 1.802883,6.2549 q 1.113005,0 1.545329,-0.51511 0.432324,-0.54271 0.432324,-1.90407 0,-2.29959 -1.655709,-2.29959 h -0.147175 -0.08279 q -0.07359,0 -0.09198,0.009 z m 0,6.31009 q 1.177393,0 1.628114,-0.50591 0.450721,-0.50591 0.450721,-1.83048 0,-1.36136 -0.469117,-1.90407 -0.45992,-0.5519 -1.609718,-0.5519 z"
         style="font-style:normal;font-variant:normal;font-weight:500;font-stretch:condensed;font-family:Futura;-inkscape-font-specification:'Futura Medium Condensed';fill:#ffffff;fill-opacity:1;stroke-width:0.47095734"
         id="path900"
         inkscape:connector-curvature="0" />
      <path
         d="m 96.136528,120.13037 h 1.913264 v 12.58339 h 3.127448 v 1.61891 h -5.040712 z"
         style="font-style:normal;font-variant:normal;font-weight:500;font-stretch:condensed;font-family:Futura;-inkscape-font-specification:'Futura Medium Condensed';fill:#ffffff;fill-opacity:1;stroke-width:0.47095734"
         id="path902"
         inkscape:connector-curvature="0" />
      <path
         d="m 102.39143,120.13037 h 5.0867 v 1.61891 h -3.17344 v 4.49801 h 2.81471 v 1.61892 h -2.81471 v 4.84755 h 3.17344 v 1.61891 h -5.0867 z"
         style="font-style:normal;font-variant:normal;font-weight:500;font-stretch:condensed;font-family:Futura;-inkscape-font-specification:'Futura Medium Condensed';fill:#ffffff;fill-opacity:1;stroke-width:0.47095734"
         id="path904"
         inkscape:connector-curvature="0" />
      <path
         d="m 118.70936,120.36032 v 1.7201 q -0.73587,-0.35873 -1.23258,-0.35873 -0.68068,0 -1.1682,0.34034 -0.48751,0.33114 -0.80946,1.03022 -0.31274,0.69907 -0.46911,1.77528 -0.14718,1.06702 -0.14718,2.52956 0,5.26148 2.69513,5.26148 0.46912,0 1.1314,-0.29435 v 1.75689 q -0.68988,0.38633 -1.54533,0.38633 -4.31404,0 -4.31404,-7.04596 0,-3.80813 1.04861,-5.66621 1.05782,-1.85807 3.22864,-1.85807 0.80026,0 1.58212,0.42312 z"
         style="font-style:normal;font-variant:normal;font-weight:500;font-stretch:condensed;font-family:Futura;-inkscape-font-specification:'Futura Medium Condensed';fill:#ffffff;fill-opacity:1;stroke-width:0.47095734"
         id="path906"
         inkscape:connector-curvature="0" />
      <path
         d="m 122.84863,120.13037 h 1.49014 l 3.04467,14.2023 h -1.89487 l -0.53351,-2.76871 h -2.8147 l -0.54271,2.76871 h -1.83967 z m 1.83048,9.95265 -0.42312,-2.2628 q -0.42313,-2.3088 -0.68988,-4.93034 -0.12878,1.27858 -0.33114,2.59395 -0.20237,1.30617 -0.47832,2.77791 l -0.34954,1.82128 z"
         style="font-style:normal;font-variant:normal;font-weight:500;font-stretch:condensed;font-family:Futura;-inkscape-font-specification:'Futura Medium Condensed';fill:#ffffff;fill-opacity:1;stroke-width:0.47095734"
         id="path908"
         inkscape:connector-curvature="0" />
      <path
         d="m 128.51484,120.13037 h 2.52036 q 1.56372,0 2.32719,0.74506 0.96583,0.96583 0.96583,2.95269 0,1.52693 -0.51511,2.45596 -0.50591,0.91984 -1.45335,1.1406 l 2.61235,6.90799 h -1.94086 l -2.60315,-6.95398 v 6.95398 h -1.91326 z m 1.91326,6.29169 q 1.11301,0 1.57293,-0.51511 0.45992,-0.51511 0.45992,-1.73849 0,-0.66229 -0.10119,-1.13141 -0.092,-0.46911 -0.30354,-0.76346 -0.20237,-0.29435 -0.53351,-0.43233 -0.32194,-0.13797 -0.77266,-0.13797 h -0.32195 z"
         style="font-style:normal;font-variant:normal;font-weight:500;font-stretch:condensed;font-family:Futura;-inkscape-font-specification:'Futura Medium Condensed';fill:#ffffff;fill-opacity:1;stroke-width:0.47095734"
         id="path910"
         inkscape:connector-curvature="0" />
      <path
         d="m 136.46224,120.13037 h 2.35479 q 1.07621,0 1.81208,0.23915 0.68068,0.22996 1.21419,0.81866 0.80026,0.88304 1.1406,2.2996 0.34034,1.37056 0.34034,3.92771 0,2.34558 -0.37714,3.82652 -0.36793,1.41656 -1.21418,2.16163 -1.03942,0.92903 -3.72535,0.92903 h -1.54533 z m 1.91327,12.5282 q 1.74769,0 2.33639,-1.05782 0.60709,-1.05781 0.60709,-4.11168 0,-3.28382 -0.5795,-4.5164 -0.5795,-1.23259 -2.12483,-1.23259 h -0.23915 z"
         style="font-style:normal;font-variant:normal;font-weight:500;font-stretch:condensed;font-family:Futura;-inkscape-font-specification:'Futura Medium Condensed';fill:#ffffff;fill-opacity:1;stroke-width:0.47095734"
         id="path912"
         inkscape:connector-curvature="0" />
      <path
         d="m 152.52263,126.86358 h 3.47699 v 0.55191 q 0,4.14847 -0.72668,5.60181 -0.71747,1.49014 -2.68592,1.49014 -2.03285,0 -2.8975,-1.65571 -0.85545,-1.65571 -0.85545,-5.56502 0,-4.47042 0.93824,-5.95136 0.88304,-1.38895 2.71352,-1.38895 1.39816,0 2.18002,0.67148 0.79106,0.68068 1.23258,2.23521 l -1.78448,0.74507 q -0.11958,-0.56111 -0.26676,-0.93824 -0.14717,-0.38633 -0.32194,-0.59789 -0.34954,-0.43233 -1.04862,-0.43233 -0.95663,0 -1.30617,1.1774 -0.34953,1.23258 -0.34953,4.42442 0,3.22863 0.35873,4.36923 0.35874,1.1406 1.35217,1.1406 0.91064,0 1.27857,-0.80946 0.37713,-0.86464 0.37713,-2.77791 v -0.38633 -0.28515 h -1.6649 z"
         style="font-style:normal;font-variant:normal;font-weight:500;font-stretch:condensed;font-family:Futura;-inkscape-font-specification:'Futura Medium Condensed';fill:#ffffff;fill-opacity:1;stroke-width:0.47095734"
         id="path914"
         inkscape:connector-curvature="0" />
      <path
         d="m 159.93652,120.13037 h 1.49014 l 3.04467,14.2023 h -1.89487 l -0.53351,-2.76871 h -2.8147 l -0.54271,2.76871 h -1.83967 z m 1.83048,9.95265 -0.42312,-2.2628 q -0.42313,-2.3088 -0.68988,-4.93034 -0.12878,1.27858 -0.33114,2.59395 -0.20237,1.30617 -0.47832,2.77791 l -0.34954,1.82128 z"
         style="font-style:normal;font-variant:normal;font-weight:500;font-stretch:condensed;font-family:Futura;-inkscape-font-specification:'Futura Medium Condensed';fill:#ffffff;fill-opacity:1;stroke-width:0.47095734"
         id="path916"
         inkscape:connector-curvature="0" />
      <path
         d="m 166.27421,120.13037 h 1.63731 l 1.25098,5.79498 q 0.22996,1.08541 0.41393,2.18002 0.19317,1.0854 0.34954,2.28119 0.0184,-0.15637 0.0276,-0.23915 0.009,-0.092 0.0184,-0.12878 l 0.26676,-1.62811 0.23915,-1.54533 0.21157,-1.02102 1.113,-5.6938 h 1.65571 l 1.30617,14.2023 h -1.83048 l -0.32194,-4.81995 q -0.0184,-0.36794 -0.0368,-0.63469 -0.009,-0.26675 -0.009,-0.44152 l -0.0828,-1.90407 -0.046,-1.74769 q 0,-0.0184 -0.009,-0.0736 0,-0.0644 -0.009,-0.16557 l -0.046,0.28515 q -0.0736,0.50591 -0.13797,0.88305 -0.0552,0.37713 -0.10119,0.63468 l -0.23916,1.29698 -0.092,0.48751 -1.19579,6.19971 h -1.28777 l -1.12221,-5.35346 q -0.22996,-1.05781 -0.41392,-2.14322 -0.17477,-1.09461 -0.32195,-2.2904 l -0.5519,9.78708 h -1.80288 z"
         style="font-style:normal;font-variant:normal;font-weight:500;font-stretch:condensed;font-family:Futura;-inkscape-font-specification:'Futura Medium Condensed';fill:#ffffff;fill-opacity:1;stroke-width:0.47095734"
         id="path918"
         inkscape:connector-curvature="0" />
      <path
         d="m 176.34644,120.13037 h 5.08671 v 1.61891 h -3.17344 v 4.49801 h 2.8147 v 1.61892 h -2.8147 v 4.84755 h 3.17344 v 1.61891 h -5.08671 z"
         style="font-style:normal;font-variant:normal;font-weight:500;font-stretch:condensed;font-family:Futura;-inkscape-font-specification:'Futura Medium Condensed';fill:#ffffff;fill-opacity:1;stroke-width:0.47095734"
         id="path920"
         inkscape:connector-curvature="0" />
    </g>
    <g
       aria-label="™"
       style="font-style:normal;font-variant:normal;font-weight:normal;font-stretch:normal;font-size:10.58333302px;line-height:1.25;font-family:'Star Jedi Logo DoubleLine1';-inkscape-font-specification:'Star Jedi Logo DoubleLine1';letter-spacing:0px;word-spacing:0px;fill:#ffffff;fill-opacity:1;stroke:none;stroke-width:0.26458332"
       id="text1703">
      <path
         d="m 189.60958,115.55502 v 3.76721 h -0.82682 v -3.76721 h -1.00252 v -0.78031 h 2.83187 v 0.78031 z m 1.28158,3.76721 0.97668,-4.96093 1.51412,3.35896 1.51412,-3.35896 0.97669,4.96093 h -0.8475 l -0.42374,-2.4753 -1.21957,2.55798 -1.21956,-2.55798 -0.42892,2.4753 z"
         style="font-style:normal;font-variant:normal;font-weight:normal;font-stretch:normal;font-family:Futura;-inkscape-font-specification:Futura;fill:#ffffff;stroke-width:0.26458332"
         id="path926"
         inkscape:connector-curvature="0" />
    </g>
  </g>
</svg>
