<?xml version="1.0" encoding="UTF-8" standalone="no"?>
<svg
   xmlns:dc="http://purl.org/dc/elements/1.1/"
   xmlns:cc="http://creativecommons.org/ns#"
   xmlns:rdf="http://www.w3.org/1999/02/22-rdf-syntax-ns#"
   xmlns:svg="http://www.w3.org/2000/svg"
   xmlns="http://www.w3.org/2000/svg"
   xmlns:sodipodi="http://sodipodi.sourceforge.net/DTD/sodipodi-0.dtd"
   xmlns:inkscape="http://www.inkscape.org/namespaces/inkscape"
   width="267.95117mm"
   height="46.351303mm"
   viewBox="0 0 266.80279 46.351304"
   version="1.1"
   id="svg8"
   inkscape:version="1.0.1 (c497b03c, 2020-09-10)"
   sodipodi:docname="swccg_playerscommittee.svg"
   inkscape:export-filename="/Users/devon/code/playerscommittee.org/assets/images/swccg_playerscommittee.png"
   inkscape:export-xdpi="150"
   inkscape:export-ydpi="150">
  <defs
     id="defs2" />
  <sodipodi:namedview
     id="base"
     pagecolor="#ffffff"
     bordercolor="#666666"
     borderopacity="1.0"
     inkscape:pageopacity="0.0"
     inkscape:pageshadow="2"
     inkscape:zoom="0.7"
     inkscape:cx="501.36982"
     inkscape:cy="92.719994"
     inkscape:document-units="mm"
     inkscape:current-layer="layer1"
     showgrid="false"
     viewbox-width="209.1"
     fit-margin-top="0"
     fit-margin-left="0"
     fit-margin-right="0"
     fit-margin-bottom="0"
     inkscape:window-width="1440"
     inkscape:window-height="847"
     inkscape:window-x="0"
     inkscape:window-y="25"
     inkscape:window-maximized="1"
     showguides="false"
     inkscape:document-rotation="0"
     inkscape:snap-global="false" />
  <metadata
     id="metadata5">
    <rdf:RDF>
      <cc:Work
         rdf:about="">
        <dc:format>image/svg+xml</dc:format>
        <dc:type
           rdf:resource="http://purl.org/dc/dcmitype/StillImage" />
        <dc:title></dc:title>
      </cc:Work>
    </rdf:RDF>
  </metadata>
  <g
     inkscape:label="Layer 1"
     inkscape:groupmode="layer"
     id="layer1"
     transform="translate(-56.048876,-48.528217)">
    <g
       aria-label="Swccg"
       id="text1343"
       style="font-style:normal;font-weight:normal;font-size:46.2815px;line-height:1.25;font-family:sans-serif;opacity:1;fill:#ffffff;fill-opacity:1;stroke:none;stroke-width:1.15704"
       transform="translate(45.563775,37.810148)">
      <path
         d="M 54.616781,27.471975 H 44.357112 q -5.807786,-0.180787 -1.717478,3.208971 7.321878,6.417943 7.186288,12.474311 -0.13559,6.056368 -7.186288,7.231485 H 14.165663 v -9.717308 h 17.988318 q 6.395345,0.180787 1.627084,-3.570545 -7.864239,-7.231485 -6.689123,-13.287853 1.175116,-6.056369 7.412272,-6.056369 h 20.112567 z"
         style="font-style:normal;font-variant:normal;font-weight:normal;font-stretch:normal;font-family:'Star Jedi';-inkscape-font-specification:'Star Jedi';fill:#ffffff;stroke-width:1.15704"
         id="path1349" />
      <path
         d="M 71.791556,36.556527 68.356601,50.386742 H 57.735358 L 47.792067,17.754667 H 58.41331 l 4.474481,14.101395 3.886923,-14.101395 h 9.762504 l 4.542276,14.101395 3.028185,-14.101395 H 94.728922 L 86.548305,50.386742 H 75.927062 Z"
         style="font-style:normal;font-variant:normal;font-weight:normal;font-stretch:normal;font-family:'Star Jedi';-inkscape-font-specification:'Star Jedi';fill:#ffffff;stroke-width:1.15704"
         id="path1351" />
      <path
         d="m 114.95448,40.669434 h 10.21447 v 9.717308 h -14.46297 q -5.31062,0 -9.60431,-1.875667 -4.293699,-1.898264 -6.779521,-5.672195 -2.463225,-3.773932 -2.463225,-9.242742 0,-3.841726 1.468896,-6.847312 1.491493,-3.028184 4.112906,-5.016842 2.621414,-2.011257 6.011174,-2.982988 3.41235,-0.994329 7.25408,-0.994329 h 8.94896 5.51401 v 9.717308 h -10.21447 q -3.43496,0 -5.08464,0.203385 -1.64968,0.203386 -2.93779,0.677952 -1.28811,0.474566 -2.28244,1.649682 -0.99433,1.175117 -1.15252,4.158104 0.113,2.892594 1.15252,4.135505 1.03953,1.242912 2.53102,1.649683 1.4915,0.406771 3.07338,0.564959 1.58189,0.158189 4.70047,0.158189 z"
         style="font-style:normal;font-variant:normal;font-weight:normal;font-stretch:normal;font-family:'Star Jedi';-inkscape-font-specification:'Star Jedi';fill:#ffffff;stroke-width:1.15704"
         id="path1353" />
      <path
         d="m 148.49049,40.669434 h 10.21447 v 9.717308 h -14.46297 q -5.31062,0 -9.60431,-1.875667 -4.2937,-1.898264 -6.77952,-5.672195 -2.46323,-3.773932 -2.46323,-9.242742 0,-3.841726 1.4689,-6.847312 1.49149,-3.028184 4.11291,-5.016842 2.62141,-2.011257 6.01117,-2.982988 3.41236,-0.994329 7.25408,-0.994329 h 8.94896 5.51401 v 9.717308 h -10.21447 q -3.43496,0 -5.08464,0.203385 -1.64968,0.203386 -2.93779,0.677952 -1.28811,0.474566 -2.28244,1.649682 -0.99433,1.175117 -1.15251,4.158104 0.11299,2.892594 1.15251,4.135505 1.03953,1.242912 2.53102,1.649683 1.4915,0.406771 3.07338,0.564959 1.58189,0.158189 4.70047,0.158189 z"
         style="font-style:normal;font-variant:normal;font-weight:normal;font-stretch:normal;font-family:'Star Jedi';-inkscape-font-specification:'Star Jedi';fill:#ffffff;stroke-width:1.15704"
         id="path1355" />
      <path
         d="m 182.02651,40.669434 v -6.59873 h 10.21447 v 16.316038 h -14.46297 c -3.54041,0 -6.74185,-0.625222 -9.60432,-1.875667 -2.86246,-1.265509 -5.1223,-3.156241 -6.77951,-5.672195 -1.64215,-2.515955 -2.46323,-5.596869 -2.46323,-9.242742 0,-2.561151 0.48963,-4.843588 1.4689,-6.847312 0.99433,-2.018789 2.3653,-3.69107 4.11291,-5.016842 1.74761,-1.340838 3.75133,-2.335167 6.01117,-2.982988 2.2749,-0.662886 4.69293,-0.994329 7.25408,-0.994329 h 8.94896 l 8.34887,-2.53e-4 -0.0945,9.718001 -12.9548,-4.4e-4 c -2.28997,-7.8e-5 -3.98485,0.0678 -5.08464,0.203385 -1.09979,0.135591 -2.07905,0.361575 -2.93779,0.677952 -0.85874,0.316377 -1.61955,0.866271 -2.28244,1.649682 -0.66289,0.783411 -1.04706,2.169446 -1.15252,4.158104 0.0753,1.928396 0.45951,3.306898 1.15252,4.135505 0.69302,0.828608 1.53669,1.378502 2.53102,1.649683 0.99433,0.271181 2.01879,0.4595 3.07338,0.564959 1.05459,0.105459 2.62142,0.158189 4.70047,0.158189 z"
         style="font-style:normal;font-variant:normal;font-weight:normal;font-stretch:normal;font-family:'Star Jedi';-inkscape-font-specification:'Star Jedi';fill:#ffffff;stroke-width:1.15704"
         id="path1357"
         sodipodi:nodetypes="ccccsccscccscccsssscsssc" />
    </g>
    <g
       aria-label="Players
Committee"
       id="text1210"
       style="font-style:normal;font-weight:normal;font-size:21.83170000000000144px;line-height:1.25;font-family:sans-serif;fill:#ffffff;fill-opacity:1;stroke:none;stroke-width:0.545793">
      <path
         d="m 254.17963,60.149211 c 0,-1.266238 0.0873,-2.554308 -0.80777,-3.645893 -0.4803,-0.589456 -1.09158,-1.02609 -2.59797,-1.02609 h -3.9952 v 15.41318 h 1.92119 v -6.331193 h 1.61554 c 1.02609,0 2.336,-0.08733 3.05644,-0.960595 0.93876,-1.135248 0.80777,-3.318418 0.80777,-3.449409 z m -1.87752,0.109159 c 0,0.873268 0,1.353565 -0.17466,1.724704 -0.4148,0.938763 -1.28807,0.8951 -2.1395,0.8951 h -1.28807 v -5.65441 h 1.00426 c 1.2444,0 2.37965,0.02183 2.5543,1.55005 0.0437,0.502129 0.0437,0.982427 0.0437,1.484556 z"
         style="font-style:normal;font-variant:normal;font-weight:normal;font-stretch:normal;font-family:'Akzidenz-Grotesk BQ Condensed';-inkscape-font-specification:'Akzidenz-Grotesk BQ Condensed, ';stroke-width:0.545793;fill:#ffffff"
         id="path1279" />
      <path
         d="m 257.5192,70.890408 v -15.41318 h -1.76837 v 15.41318 z"
         style="font-style:normal;font-variant:normal;font-weight:normal;font-stretch:normal;font-family:'Akzidenz-Grotesk BQ Condensed';-inkscape-font-specification:'Akzidenz-Grotesk BQ Condensed, ';stroke-width:0.545793;fill:#ffffff"
         id="path1281" />
      <path
         d="m 265.74907,70.890408 c -0.0437,-0.04366 -0.21832,-0.174654 -0.32748,-0.371139 -0.17465,-0.349308 -0.19648,-1.02609 -0.19648,-1.943022 V 63.33664 c 0,-0.938763 0,-1.419061 -0.13099,-1.855695 -0.0655,-0.174653 -0.19649,-0.545792 -0.54579,-0.916931 -0.61129,-0.63312 -1.35357,-0.785941 -2.205,-0.785941 -0.93877,0 -1.81204,0.152821 -2.46699,0.916931 -0.52396,0.611288 -0.52396,1.15708 -0.54579,1.92119 -0.0218,0.305643 -0.0218,0.633119 -0.0218,0.938763 h 1.59371 c -0.0218,-0.283813 -0.0437,-0.545793 -0.0437,-0.829605 0,-0.436634 -0.0873,-1.550051 1.3099,-1.550051 1.33174,0 1.33174,1.135249 1.33174,1.528219 v 0.371139 c -0.34931,0.327476 -0.74228,0.720446 -1.59372,1.309902 -1.11342,0.785941 -1.63738,1.02609 -2.13951,1.550051 -0.67678,0.676782 -0.87326,1.397229 -0.87326,2.31416 0,1.02609 0.19648,1.921189 1.13525,2.488814 0.54579,0.327475 1.06975,0.349307 1.3099,0.349307 1.52822,0 2.03035,-1.004258 2.27049,-1.506387 v 1.309902 z m -2.24866,-3.536736 c 0,0.63312 -0.0218,1.288071 -0.41481,1.812031 -0.15282,0.196486 -0.52396,0.63312 -1.20074,0.63312 -1.26624,0.02183 -1.20074,-1.440893 -1.20074,-1.615546 0,-0.851436 0.30564,-1.309902 0.52396,-1.593714 0.26198,-0.305644 0.50213,-0.480298 1.13525,-0.960595 0.19648,-0.13099 0.37113,-0.26198 0.54579,-0.392971 0.19648,-0.174653 0.4148,-0.371138 0.61129,-0.567624 z"
         style="font-style:normal;font-variant:normal;font-weight:normal;font-stretch:normal;font-family:'Akzidenz-Grotesk BQ Condensed';-inkscape-font-specification:'Akzidenz-Grotesk BQ Condensed, ';stroke-width:0.545793;fill:#ffffff"
         id="path1283" />
      <path
         d="m 273.18311,59.974558 h -1.8557 l -1.39723,8.776343 -1.7247,-8.776343 h -1.87753 l 2.46698,10.370057 c 0.10916,0.458466 0.21832,0.873268 0.21832,1.331734 0,1.135248 -0.8296,1.222575 -1.22257,1.266238 -0.39297,0.02183 -0.76411,0.02183 -1.15708,0 v 1.506388 h 1.13524 c 0.80778,0 1.46273,-0.0655 2.07402,-0.654951 0.80777,-0.807773 1.02609,-2.074012 1.22257,-3.121933 0.0873,-0.392971 0.15282,-0.785942 0.24015,-1.178912 z"
         style="font-style:normal;font-variant:normal;font-weight:normal;font-stretch:normal;font-family:'Akzidenz-Grotesk BQ Condensed';-inkscape-font-specification:'Akzidenz-Grotesk BQ Condensed, ';stroke-width:0.545793;fill:#ffffff"
         id="path1285" />
      <path
         d="m 280.43089,67.506494 h -1.63738 c 0.0218,1.047922 -0.0873,1.593714 -0.52396,1.92119 -0.32747,0.26198 -0.63312,0.240148 -0.80777,0.240148 -0.34931,0 -1.04792,-0.04366 -1.3099,-0.960594 -0.0655,-0.240149 -0.0873,-0.502129 -0.10916,-1.02609 -0.0218,-0.63312 -0.0218,-1.288071 0,-1.92119 h 4.38817 v -1.615546 c 0,-0.895099 0.0655,-2.139506 -0.37114,-2.990942 -0.19648,-0.392971 -0.50213,-0.654951 -0.65495,-0.76411 -0.63312,-0.502129 -1.3099,-0.589456 -2.09584,-0.589456 -0.32748,0 -1.24441,-0.02183 -2.00852,0.611288 -0.50213,0.414802 -0.78594,0.8951 -0.93876,2.161338 -0.0655,0.633119 -0.0873,1.244407 -0.0873,1.877526 0,0.676783 0,1.353566 0.0218,2.030348 0.0218,1.681041 -0.0437,2.335992 0.37114,3.143765 0.56762,1.113417 1.52822,1.462724 2.72896,1.462724 1.3754,0 2.00852,-0.502129 2.40149,-0.982427 0.65495,-0.785941 0.65495,-1.659209 0.63312,-2.597972 z m -1.63738,-3.143765 h -2.75079 v -0.458465 c 0,-1.047922 0,-1.593714 0.21831,-2.074012 0.21832,-0.480297 0.61129,-0.698614 1.15708,-0.698614 0.9606,0 1.30991,0.654951 1.35357,1.506387 0.0218,0.414802 0.0218,0.851436 0.0218,1.266239 z"
         style="font-style:normal;font-variant:normal;font-weight:normal;font-stretch:normal;font-family:'Akzidenz-Grotesk BQ Condensed';-inkscape-font-specification:'Akzidenz-Grotesk BQ Condensed, ';stroke-width:0.545793;fill:#ffffff"
         id="path1287" />
      <path
         d="m 286.79517,61.611935 v -1.833862 h -0.28381 c -0.87327,0 -1.68104,0.545792 -2.16134,1.266238 -0.19648,0.305644 -0.34931,0.633119 -0.50213,0.982427 v -2.05218 h -1.68104 v 10.91585 h 1.7902 v -5.217777 c 0,-1.375397 -0.21832,-3.47124 1.59372,-3.951537 0.4148,-0.109159 0.8296,-0.109159 1.2444,-0.109159 z"
         style="font-style:normal;font-variant:normal;font-weight:normal;font-stretch:normal;font-family:'Akzidenz-Grotesk BQ Condensed';-inkscape-font-specification:'Akzidenz-Grotesk BQ Condensed, ';stroke-width:0.545793;fill:#ffffff"
         id="path1289" />
      <path
         d="m 293.10453,68.09595 c 0,-0.502129 -0.0655,-1.353565 -0.8951,-2.248665 -0.19648,-0.196485 -0.4148,-0.371139 -0.63312,-0.567624 l -1.2444,-1.02609 c -0.41481,-0.349307 -0.98243,-0.785941 -1.22258,-1.309902 -0.13099,-0.26198 -0.13099,-0.436634 -0.13099,-0.567624 0,-1.047922 0.76411,-1.200744 1.15708,-1.200744 0.76411,0 0.98243,0.502129 1.06975,0.785942 0.10916,0.349307 0.0873,0.851436 0.0873,1.222575 h 1.55005 c 0,-1.047922 -0.0218,-1.462724 -0.21832,-1.986685 -0.0873,-0.26198 -0.24014,-0.523961 -0.43663,-0.742278 -0.67678,-0.676782 -1.85569,-0.676782 -2.05218,-0.676782 -0.61129,0 -1.04792,0.13099 -1.28807,0.218317 -0.15282,0.06549 -0.63312,0.26198 -0.93876,0.654951 -0.54579,0.698614 -0.56763,1.637377 -0.56763,1.921189 0,1.28807 0.58946,1.877526 1.50639,2.685299 l 1.35357,1.178912 c 0.65495,0.567624 1.13524,0.960595 1.13524,1.921189 0,0.742278 -0.48029,1.309902 -1.26623,1.309902 -0.17466,0 -0.82961,-0.04366 -1.15708,-0.633119 -0.13099,-0.240149 -0.15283,-0.545792 -0.15283,-0.829604 -0.0218,-0.371139 -0.0437,-0.720447 -0.0437,-1.091585 h -1.68104 c 0.0218,1.528219 0.0655,2.31416 0.54579,2.969111 0.34931,0.502129 1.00426,1.004258 2.37966,1.004258 0.17465,0 0.74228,0 1.28807,-0.174654 0.69861,-0.240148 1.85569,-0.916931 1.85569,-2.816289 z"
         style="font-style:normal;font-variant:normal;font-weight:normal;font-stretch:normal;font-family:'Akzidenz-Grotesk BQ Condensed';-inkscape-font-specification:'Akzidenz-Grotesk BQ Condensed, ';stroke-width:0.545793;fill:#ffffff"
         id="path1291" />
      <path
         d="m 253.98315,83.081496 h -1.7902 v 1.135248 c 0,0.785942 0.0218,2.008517 -0.69861,2.554309 -0.41481,0.327476 -0.85144,0.327476 -1.02609,0.327476 -0.21832,0 -1.13525,-0.02183 -1.55006,-0.76411 -0.32747,-0.567624 -0.28381,-1.397229 -0.30564,-2.008516 -0.0437,-1.15708 -0.0655,-2.292329 -0.0655,-3.449409 0,-2.31416 0.0218,-4.191686 0.21831,-5.064954 0.28381,-1.244407 1.26624,-1.353565 1.74654,-1.353565 0.50213,0 0.80777,0.174653 0.98243,0.305644 0.52396,0.39297 0.56762,0.851436 0.58945,1.484555 0.0218,0.567624 0.0218,1.135249 0.0218,1.681041 h 1.76837 c 0.0218,-0.327475 0.0218,-0.676783 0.0218,-1.004258 0,-1.702873 -0.21831,-2.488814 -0.80777,-3.100101 -0.4148,-0.414803 -1.20074,-0.982427 -2.57614,-0.982427 -1.06975,0 -2.35782,0.349307 -3.03461,1.266239 -0.78594,1.047921 -0.78594,2.728962 -0.80777,3.907874 -0.0218,0.873268 -0.0218,1.724704 -0.0218,2.597972 v 2.466982 c 0,2.139507 0.0655,3.274755 0.65495,4.169855 0.26198,0.39297 0.56762,0.654951 0.72045,0.785941 0.72044,0.545792 1.46272,0.676782 2.33599,0.676782 0.21831,0 0.98242,0 1.70287,-0.26198 0.67678,-0.26198 1.52822,-0.764109 1.81203,-2.401487 0.0873,-0.523961 0.0873,-1.200743 0.0873,-1.331734 0.0218,-0.545792 0.0218,-1.091584 0.0218,-1.637377 z"
         style="font-style:normal;font-variant:normal;font-weight:normal;font-stretch:normal;font-family:'Akzidenz-Grotesk BQ Condensed';-inkscape-font-specification:'Akzidenz-Grotesk BQ Condensed, ';stroke-width:0.545793;fill:#ffffff"
         id="path1293" />
      <path
         d="m 261.75455,83.146991 c 0.0218,-0.807773 0.0218,-1.593714 0,-2.401487 -0.0218,-0.895099 -0.0437,-3.362081 -2.99094,-3.362081 -1.24441,0 -1.96485,0.371138 -2.33599,0.785941 -0.65495,0.676782 -0.76411,1.702872 -0.78594,2.554309 -0.0437,0.938763 -0.0437,1.877526 -0.0437,2.83812 v 1.419061 c 0,0.829604 0.0218,1.746536 0.45847,2.510645 0.54579,0.916932 1.57188,1.200744 2.57614,1.200744 2.24866,0 2.79446,-1.200744 2.96911,-2.226834 0.0655,-0.327475 0.0873,-0.567624 0.10916,-1.222575 0.0437,-0.698614 0.0437,-1.397228 0.0437,-2.095843 z m -1.81203,-0.02183 c 0,1.397229 -0.0218,2.554309 -0.10916,3.056438 -0.13099,0.698615 -0.43663,1.135249 -1.20074,1.135249 -0.52396,0 -0.91693,-0.261981 -1.06975,-0.76411 -0.0873,-0.26198 -0.10916,-0.742278 -0.10916,-1.375397 0,-0.873268 -0.0218,-1.768367 -0.0218,-2.641635 0,-1.244407 0,-2.248665 0.10915,-2.707131 0.0655,-0.283812 0.28382,-1.02609 1.20075,-1.02609 1.11341,-0.02183 1.15708,1.135248 1.17891,1.92119 0.0218,0.807772 0.0218,1.593714 0.0218,2.401486 z"
         style="font-style:normal;font-variant:normal;font-weight:normal;font-stretch:normal;font-family:'Akzidenz-Grotesk BQ Condensed';-inkscape-font-specification:'Akzidenz-Grotesk BQ Condensed, ';stroke-width:0.545793;fill:#ffffff"
         id="path1295" />
      <path
         d="m 274.31904,88.495757 v -7.96857 c 0,-1.069753 -0.10916,-2.074011 -1.06976,-2.750794 -0.54579,-0.371139 -1.15708,-0.39297 -1.37539,-0.39297 -0.9606,0 -1.52822,0.458465 -1.7902,0.720446 -0.19649,0.196485 -0.43664,0.502129 -0.45847,0.545792 -0.13099,-0.196485 -0.19648,-0.327475 -0.28381,-0.414802 -0.45847,-0.589456 -1.13525,-0.851436 -1.87753,-0.851436 -0.98242,0 -1.57188,0.436633 -1.85569,0.698614 -0.24015,0.240149 -0.4148,0.480297 -0.4803,0.567624 v -1.069753 h -1.63738 v 10.915849 h 1.74654 v -7.117134 c 0,-1.178911 0.0218,-1.833862 0.45847,-2.292328 0.3493,-0.349307 0.7641,-0.349307 0.93876,-0.349307 0.21832,-0.02183 0.80777,0.02183 1.15708,0.589456 0.24015,0.414802 0.21832,1.02609 0.21832,2.008516 v 7.160797 h 1.76836 V 81.33496 c 0,-0.698614 -0.0873,-1.746536 0.52396,-2.292328 0.13099,-0.130991 0.41481,-0.305644 0.87327,-0.305644 0.28381,0 0.87327,0.06549 1.17891,0.742278 0.17466,0.39297 0.17466,0.960594 0.17466,1.855694 v 7.160797 z"
         style="font-style:normal;font-variant:normal;font-weight:normal;font-stretch:normal;font-family:'Akzidenz-Grotesk BQ Condensed';-inkscape-font-specification:'Akzidenz-Grotesk BQ Condensed, ';stroke-width:0.545793;fill:#ffffff"
         id="path1297" />
      <path
         d="m 287.06841,88.495757 v -7.96857 c 0,-1.069753 -0.10916,-2.074011 -1.06976,-2.750794 -0.54579,-0.371139 -1.15708,-0.39297 -1.37539,-0.39297 -0.9606,0 -1.52822,0.458465 -1.7902,0.720446 -0.19649,0.196485 -0.43664,0.502129 -0.45847,0.545792 -0.13099,-0.196485 -0.19648,-0.327475 -0.28381,-0.414802 -0.45847,-0.589456 -1.13525,-0.851436 -1.87753,-0.851436 -0.98242,0 -1.57188,0.436633 -1.85569,0.698614 -0.24015,0.240149 -0.4148,0.480297 -0.4803,0.567624 v -1.069753 h -1.63738 v 10.915849 h 1.74654 v -7.117134 c 0,-1.178911 0.0218,-1.833862 0.45847,-2.292328 0.3493,-0.349307 0.76411,-0.349307 0.93876,-0.349307 0.21832,-0.02183 0.80777,0.02183 1.15708,0.589456 0.24015,0.414802 0.21832,1.02609 0.21832,2.008516 v 7.160797 h 1.76836 V 81.33496 c 0,-0.698614 -0.0873,-1.746536 0.52396,-2.292328 0.13099,-0.130991 0.41481,-0.305644 0.87327,-0.305644 0.28381,0 0.87327,0.06549 1.17891,0.742278 0.17466,0.39297 0.17466,0.960594 0.17466,1.855694 v 7.160797 z"
         style="font-style:normal;font-variant:normal;font-weight:normal;font-stretch:normal;font-family:'Akzidenz-Grotesk BQ Condensed';-inkscape-font-specification:'Akzidenz-Grotesk BQ Condensed, ';stroke-width:0.545793;fill:#ffffff"
         id="path1299" />
      <path
         d="m 290.71396,75.658718 v -2.248665 h -1.7247 v 2.248665 z m 0,12.837039 V 77.579908 h -1.7247 v 10.915849 z"
         style="font-style:normal;font-variant:normal;font-weight:normal;font-stretch:normal;font-family:'Akzidenz-Grotesk BQ Condensed';-inkscape-font-specification:'Akzidenz-Grotesk BQ Condensed, ';stroke-width:0.545793;fill:#ffffff"
         id="path1301" />
      <path
         d="m 296.54234,87.12036 c -0.30564,0.08733 -0.45846,0.08733 -0.61128,0.08733 -0.50213,0 -0.67679,-0.152822 -0.80778,-0.349307 -0.19648,-0.305644 -0.19648,-0.589456 -0.19648,-0.916931 V 78.88981 h 1.61554 V 77.579908 H 294.9268 V 74.65446 h -1.74654 v 2.925448 h -1.35356 v 1.309902 h 1.3099 v 6.04738 c 0,0.261981 -0.0218,0.545793 -0.0218,0.807773 0,0.742278 -0.0437,1.812031 0.56762,2.401487 0.58946,0.567624 1.74654,0.545793 1.85569,0.545793 0.19649,0 0.52397,0 0.98243,-0.152822 z"
         style="font-style:normal;font-variant:normal;font-weight:normal;font-stretch:normal;font-family:'Akzidenz-Grotesk BQ Condensed';-inkscape-font-specification:'Akzidenz-Grotesk BQ Condensed, ';stroke-width:0.545793;fill:#ffffff"
         id="path1303" />
      <path
         d="m 301.53123,87.12036 c -0.30565,0.08733 -0.45847,0.08733 -0.61129,0.08733 -0.50213,0 -0.67678,-0.152822 -0.80777,-0.349307 -0.19649,-0.305644 -0.19649,-0.589456 -0.19649,-0.916931 V 78.88981 h 1.61555 v -1.309902 h -1.61555 V 74.65446 h -1.74654 v 2.925448 h -1.35356 v 1.309902 h 1.3099 v 6.04738 c 0,0.261981 -0.0218,0.545793 -0.0218,0.807773 0,0.742278 -0.0437,1.812031 0.56762,2.401487 0.58946,0.567624 1.74654,0.545793 1.8557,0.545793 0.19648,0 0.52396,0 0.98242,-0.152822 z"
         style="font-style:normal;font-variant:normal;font-weight:normal;font-stretch:normal;font-family:'Akzidenz-Grotesk BQ Condensed';-inkscape-font-specification:'Akzidenz-Grotesk BQ Condensed, ';stroke-width:0.545793;fill:#ffffff"
         id="path1305" />
      <path
         d="m 308.61595,85.111844 h -1.63737 c 0.0218,1.047922 -0.0873,1.593714 -0.52396,1.92119 -0.32748,0.26198 -0.63312,0.240148 -0.80778,0.240148 -0.3493,0 -1.04792,-0.04366 -1.3099,-0.960594 -0.0655,-0.240149 -0.0873,-0.50213 -0.10916,-1.02609 -0.0218,-0.63312 -0.0218,-1.288071 0,-1.92119 h 4.38817 v -1.615546 c 0,-0.895099 0.0655,-2.139506 -0.37114,-2.990942 -0.19648,-0.392971 -0.50212,-0.654951 -0.65495,-0.76411 -0.63312,-0.502129 -1.3099,-0.589456 -2.09584,-0.589456 -0.32747,0 -1.24441,-0.02183 -2.00852,0.611288 -0.50212,0.414802 -0.78594,0.895099 -0.93876,2.161338 -0.0655,0.633119 -0.0873,1.244407 -0.0873,1.877526 0,0.676783 0,1.353566 0.0218,2.030348 0.0218,1.681041 -0.0437,2.335992 0.37114,3.143765 0.56762,1.113417 1.52821,1.462724 2.72896,1.462724 1.37539,0 2.00851,-0.502129 2.40148,-0.982427 0.65496,-0.785941 0.65496,-1.659209 0.63312,-2.597972 z m -1.63737,-3.143765 h -2.7508 v -0.458465 c 0,-1.047922 0,-1.593714 0.21832,-2.074012 0.21832,-0.480297 0.61129,-0.698614 1.15708,-0.698614 0.96059,0 1.3099,0.654951 1.35356,1.506387 0.0218,0.414802 0.0218,0.851436 0.0218,1.266239 z"
         style="font-style:normal;font-variant:normal;font-weight:normal;font-stretch:normal;font-family:'Akzidenz-Grotesk BQ Condensed';-inkscape-font-specification:'Akzidenz-Grotesk BQ Condensed, ';stroke-width:0.545793;fill:#ffffff"
         id="path1307" />
      <path
         d="m 316.3338,85.111844 h -1.63738 c 0.0218,1.047922 -0.0873,1.593714 -0.52396,1.92119 -0.32747,0.26198 -0.63312,0.240148 -0.80777,0.240148 -0.34931,0 -1.04792,-0.04366 -1.3099,-0.960594 -0.0655,-0.240149 -0.0873,-0.50213 -0.10916,-1.02609 -0.0218,-0.63312 -0.0218,-1.288071 0,-1.92119 h 4.38817 v -1.615546 c 0,-0.895099 0.0655,-2.139506 -0.37114,-2.990942 -0.19648,-0.392971 -0.50213,-0.654951 -0.65495,-0.76411 -0.63312,-0.502129 -1.3099,-0.589456 -2.09584,-0.589456 -0.32748,0 -1.24441,-0.02183 -2.00852,0.611288 -0.50213,0.414802 -0.78594,0.895099 -0.93876,2.161338 -0.0655,0.633119 -0.0873,1.244407 -0.0873,1.877526 0,0.676783 0,1.353566 0.0218,2.030348 0.0218,1.681041 -0.0437,2.335992 0.37114,3.143765 0.56763,1.113417 1.52822,1.462724 2.72896,1.462724 1.3754,0 2.00852,-0.502129 2.40149,-0.982427 0.65495,-0.785941 0.65495,-1.659209 0.63312,-2.597972 z m -1.63738,-3.143765 h -2.75079 v -0.458465 c 0,-1.047922 0,-1.593714 0.21832,-2.074012 0.21831,-0.480297 0.61128,-0.698614 1.15708,-0.698614 0.96059,0 1.3099,0.654951 1.35356,1.506387 0.0218,0.414802 0.0218,0.851436 0.0218,1.266239 z"
         style="font-style:normal;font-variant:normal;font-weight:normal;font-stretch:normal;font-family:'Akzidenz-Grotesk BQ Condensed';-inkscape-font-specification:'Akzidenz-Grotesk BQ Condensed, ';stroke-width:0.545793;fill:#ffffff"
         id="path1309" />
    </g>
  </g>
</svg>
